<svg width="312" height="312" viewBox="0 0 312 312" fill="none" xmlns="http://www.w3.org/2000/svg">
<path d="M156 26C121.522 26 88.4558 39.6964 64.0761 64.0761C39.6964 88.4559 26 121.522 26 156C26 190.478 39.6964 223.544 64.0761 247.924C88.4558 272.304 121.522 286 156 286V260C135.431 260 115.323 253.901 98.2207 242.473C81.118 231.045 67.788 214.803 59.9165 195.799C52.045 176.796 49.9855 155.885 53.9983 135.711C58.0112 115.537 67.9162 97.0056 82.4609 82.4609C97.0056 67.9162 115.537 58.0112 135.711 53.9983C155.885 49.9855 176.796 52.045 195.799 59.9165C214.803 67.788 231.045 81.118 242.473 98.2207C253.901 115.323 260 135.431 260 156C259.985 164.767 258.893 173.499 256.75 182H283.4C287.256 163.11 286.862 143.599 282.247 124.88C277.632 106.161 268.911 88.7031 256.716 73.7705C244.521 58.8379 229.157 46.8047 211.738 38.5425C194.318 30.2804 175.279 25.9961 156 26ZM234 169H143V78H169V143H234V169Z" fill="#8AF969"/>
<path fill-rule="evenodd" clip-rule="evenodd" d="M194.415 220.006L243.688 245.35L292.931 220.006L243.688 194L194.415 220.006Z" fill="#E1EBF4"/>
<path fill-rule="evenodd" clip-rule="evenodd" d="M244.892 304.978L294.376 279.513V222.053L244.892 247.487V304.978Z" fill="#E1EBF4"/>
<path fill-rule="evenodd" clip-rule="evenodd" d="M193 279.513L242.454 304.978V247.487L193 222.053V279.513Z" fill="#E1EBF4"/>
</svg>
