<svg width="243" height="243" viewBox="0 0 243 243" fill="none" xmlns="http://www.w3.org/2000/svg">
<path d="M69.6526 46.3907L119.291 73.0986V132.899L69.6526 106.036V46.3907ZM18.0704 136.765L18.8435 137.206L67.3773 163.472L116.596 136.765L67.2889 110.256L18.0704 136.765ZM69.6747 227.337L119.158 200.585V140.719L69.6747 167.471V227.337ZM173.392 106.036V46.3907L123.864 73.1207V132.766L173.392 106.036ZM224.952 136.743L175.799 110.123L126.448 136.787L127.796 137.538L174.85 162.964L175.711 163.428L192.058 154.592L224.952 136.743ZM15.4636 200.497L65.0356 227.271V167.449L15.4636 140.697V200.497ZM178.009 227.271L227.536 200.497V140.697L178.009 167.471V227.271ZM173.369 227.271V167.449L123.842 140.719V200.519L173.369 227.271ZM72.2593 42.4143L74.0708 43.3863L120.705 68.6141L121.566 69.0781L170.807 42.4143L121.5 15.7285L72.2593 42.4143Z" fill="#8AF969"/>
</svg>
