<svg height="512" viewBox="0 0 64 64" width="512" xmlns="http://www.w3.org/2000/svg"><g id="_02-discord" data-name="02-discord"><rect fill="#7388d9" height="62" rx="6" width="62" x="1" y="1"/><path d="m57 1h-50a6 6 0 0 0 -6 6v10a22 22 0 0 0 22 22h18a22 22 0 0 0 22-22v-10a6 6 0 0 0 -6-6z" fill="#8198f2"/><path d="m57 1h-50a6 6 0 0 0 -6 6v4a6 6 0 0 1 6-6h50a6 6 0 0 1 6 6v-4a6 6 0 0 0 -6-6z" fill="#94aaff"/><path d="m57 59h-50a6 6 0 0 1 -6-6v4a6 6 0 0 0 6 6h50a6 6 0 0 0 6-6v-4a6 6 0 0 1 -6 6z" fill="#5061a6"/><path d="m36 52-1-5a18.587 18.587 0 0 0 12-5c-.421.11-8.2 3-15 3s-14.579-2.89-15-3a18.587 18.587 0 0 0 12 5l-1 5a55.746 55.746 0 0 1 -16.1-3.093 5.972 5.972 0 0 1 -3.894-5.848 117.465 117.465 0 0 1 4.113-25.359 6 6 0 0 1 4.13-4.177 55.127 55.127 0 0 1 12.751-1.523 23.189 23.189 0 0 0 -11 6c.421-.11 7.2-3.008 14-3a43.061 43.061 0 0 1 14.029 2.972 23.088 23.088 0 0 0 -11.029-5.972 55.127 55.127 0 0 1 12.751 1.519 6 6 0 0 1 4.13 4.177 117.465 117.465 0 0 1 4.113 25.363 5.972 5.972 0 0 1 -3.894 5.848 55.746 55.746 0 0 1 -16.1 3.093z" fill="#fdfef9"/><circle cx="22" cy="33" fill="#7388d9" r="5"/><circle cx="42" cy="33" fill="#7388d9" r="5"/><g fill="#5061a6"><path d="m42 30a5 5 0 0 1 4.9 4 5 5 0 1 0 -9.8 0 5 5 0 0 1 4.9-4z"/><path d="m22 30a5 5 0 0 1 4.9 4 5 5 0 1 0 -9.8 0 5 5 0 0 1 4.9-4z"/><path d="m43.218 15.63a76.447 76.447 0 0 0 -8.218-.63c.267.055.789.174 1.482.381a45.828 45.828 0 0 1 9.547 2.591 20.956 20.956 0 0 0 -2.811-2.342z"/><path d="m11.9 48.907a5.973 5.973 0 0 1 -3.8-4.59c-.036.577-.069 1.156-.1 1.742a5.972 5.972 0 0 0 3.9 5.848 55.746 55.746 0 0 0 16.1 3.093l1-5s-.221 0-.595-.027l-.405 2.027a55.746 55.746 0 0 1 -16.1-3.093z"/><path d="m47 42c-.421.11-8.2 3-15 3s-14.579-2.89-15-3a18.587 18.587 0 0 0 12 5l-.162.811a29.385 29.385 0 0 0 3.162.189 29.385 29.385 0 0 0 3.162-.189l-.162-.811a18.587 18.587 0 0 0 12-5z"/><path d="m27.623 15.355c.638-.189 1.124-.3 1.377-.355a76.293 76.293 0 0 0 -8.14.619 21.265 21.265 0 0 0 -2.86 2.381 48.8 48.8 0 0 1 9.623-2.645z"/><path d="m52.1 48.907a55.746 55.746 0 0 1 -16.1 3.093l-.4-2.027c-.379.027-.6.027-.6.027l1 5a55.746 55.746 0 0 0 16.1-3.093 5.972 5.972 0 0 0 3.894-5.848c-.026-.586-.059-1.165-.095-1.742a5.973 5.973 0 0 1 -3.799 4.59z"/></g></g></svg>