<svg width="1108" height="1279" viewBox="0 0 1108 1279" fill="none" xmlns="http://www.w3.org/2000/svg">
<path d="M177.539 1047.72L177.001 472.715C178.179 472.614 171.125 431.552 198.786 411.635C228.67 390.119 517.673 221.643 517.673 221.643C517.673 221.643 555.57 198.275 588.147 219.875C620.725 241.476 909.509 410.035 909.509 410.035C909.509 410.035 930.217 421.719 931.294 453.59C932.355 485.46 931.833 828.085 931.833 828.085C931.833 828.085 936.076 854.113 912.708 871.117C889.34 888.121 580.706 1070.84 580.706 1070.84C580.706 1070.84 562.641 1080.92 523.33 1067.66C484.018 1054.37 326.789 952.383 326.789 952.383V1155.31L532.354 1275.36C532.354 1275.36 559.442 1285.98 583.871 1270.58C608.3 1255.18 1073.62 984.27 1073.62 984.27C1073.62 984.27 1106.55 968.866 1107.09 929.554C1107.63 890.242 1107.09 360.117 1107.09 360.117C1107.09 360.117 1108.15 321.344 1081.6 302.741C1055.04 284.154 580.689 8.99012 580.689 8.99012C580.689 8.99012 557.675 -5.70753 532.168 6.68361C506.696 19.0748 27.2126 301.663 27.2126 301.663C27.2126 301.663 1.18444 316.529 0.645692 344.157C0.106947 371.785 0.645692 936.255 0.645692 936.255C0.645692 936.255 0.292141 959.623 19.7711 973.799L177.27 1068.43L177.539 1047.72Z" fill="#37DD00"/>
<path d="M532.538 388.081L350.695 495.56C350.695 495.56 325.728 506.723 326.266 539.115C326.805 571.507 326.266 745.387 326.266 745.387C326.266 745.387 326.452 768.048 344.146 780.792C361.857 793.537 532.538 891.639 532.538 891.639C532.538 891.639 547.236 902.97 569.022 893.137C590.807 883.305 762.381 782.914 762.381 782.914C762.381 782.914 782.92 772.997 782.92 743.249V535.377C782.92 535.377 784.688 515.898 766.623 502.8C748.558 489.702 573.971 386.65 573.971 386.65C573.971 386.65 551.479 374.427 532.538 388.064V388.081Z" fill="#37DD00"/>
<path opacity="0.3" d="M765.899 502.817C765.377 502.413 764.703 501.958 763.895 501.419C737.682 483.708 573.247 386.65 573.247 386.65C573.247 386.65 550.754 374.427 531.814 388.064L349.97 495.544C349.97 495.544 345.206 497.682 339.869 502.783C338.707 503.894 337.529 505.14 336.367 506.537C336.367 506.537 324.936 520.073 344.583 531.841C364.23 543.61 554.593 663.918 554.593 663.918C554.593 663.918 764.484 531.841 771.926 525.814C771.926 525.814 783.745 516.79 765.882 502.8L765.899 502.817Z" fill="white"/>
<path opacity="0.3" d="M11.5382 324.173L185.704 417.932L520.215 220.044C520.215 220.044 560.604 193.612 600.892 226.223C647.443 254.288 911.983 411.736 911.983 411.736L1092.5 313.129C1092.5 313.129 1087.43 306.092 1081.22 302.135C1075 298.179 584.157 9.36099 584.157 9.36099C584.157 9.36099 559.526 -7.32327 533.464 5.80864C508.261 19.8665 23.3064 304.324 23.3064 304.324C23.3064 304.324 4.7029 318.803 11.5382 324.173Z" fill="white"/>
</svg>
