<svg width="738" height="852" viewBox="0 0 738 852" fill="none" xmlns="http://www.w3.org/2000/svg">
<g clip-path="url(#clip0_634_7620)">
<path d="M737.9 844.41C737.9 844.41 734.26 849.03 694.15 849.02C652.79 849.02 649.08 843.7 649.08 843.7V834.33H737.9V844.4V844.41Z" fill="url(#paint0_linear_634_7620)"/>
<path d="M737.9 834.34C737.9 837.97 718.02 840.91 693.49 840.91C668.96 840.91 649.08 837.97 649.08 834.34C649.08 830.71 668.96 827.77 693.49 827.77C718.02 827.77 737.9 830.71 737.9 834.34Z" fill="url(#paint1_linear_634_7620)"/>
<path d="M711.17 835.35C711.17 835.35 709.62 838.39 692.56 838.39C674.97 838.39 673.39 834.88 673.39 834.88V828.71H711.17V835.35Z" fill="url(#paint2_linear_634_7620)"/>
<path d="M711.17 828.72C711.17 831.11 702.71 833.05 692.28 833.05C681.85 833.05 673.39 831.11 673.39 828.72C673.39 826.33 681.85 824.39 692.28 824.39C702.71 824.39 711.17 826.33 711.17 828.72Z" fill="url(#paint3_linear_634_7620)"/>
<path d="M338.79 376.69C338.79 376.69 307.98 357.09 270.26 358.72C207.85 361.42 178.87 399.78 207.15 429.28C226.2 449.16 252.69 436.61 261.96 426.55C281.51 405.33 296.01 369.9 338.79 376.69Z" fill="#37DD00"/>
<path d="M520.27 681.89C520.27 681.89 545.78 673.25 562.29 650.82C589.6 613.71 580.96 579.32 550.93 581.92C530.7 583.68 525.66 604.7 527.15 614.67C530.3 635.72 543.96 660.43 520.27 681.88V681.89Z" fill="#37DD00"/>
<path d="M201.88 717.03C201.88 717.03 202.06 733.7 212.08 747.73C228.66 770.93 250.56 772.46 254.8 754.29C257.66 742.05 246.26 735.04 240.1 734C227.11 731.8 209.94 735.09 201.88 717.03Z" fill="#37DD00"/>
<path d="M322.94 367.99C210 382.9 130.53 486.55 145.44 599.49C160.35 712.43 264 791.9 376.94 776.99C489.89 762.07 569.36 658.43 554.45 545.49C539.54 432.54 435.89 353.07 322.94 367.99Z" fill="white"/>
<path style="mix-blend-mode:overlay" d="M518.37 563.46C490.62 597.99 426.16 592.26 374.4 550.66C322.64 509.06 303.17 447.35 330.92 412.82C358.67 378.29 423.13 384.03 474.89 425.62C526.65 467.22 546.12 528.94 518.37 563.46Z" fill="url(#paint4_radial_634_7620)"/>
<path d="M0 847.29C0 847.29 3.64 851.91 43.75 851.9C85.11 851.9 88.82 846.58 88.82 846.58V837.21L0 837.22V847.29Z" fill="url(#paint5_linear_634_7620)"/>
<path d="M0 837.22C0 840.85 19.88 843.79 44.41 843.79C68.94 843.79 88.82 840.85 88.82 837.22C88.82 833.59 68.94 830.65 44.41 830.65C19.88 830.65 0 833.59 0 837.22Z" fill="url(#paint6_linear_634_7620)"/>
<path d="M26.7202 838.24C26.7202 838.24 28.2702 841.28 45.3302 841.28C62.9202 841.28 64.5002 837.77 64.5002 837.77V831.6H26.7202V838.24Z" fill="url(#paint7_linear_634_7620)"/>
<path d="M26.7202 831.6C26.7202 833.99 35.1802 835.93 45.6102 835.93C56.0402 835.93 64.5002 833.99 64.5002 831.6C64.5002 829.21 56.0402 827.27 45.6102 827.27C35.1802 827.27 26.7202 829.21 26.7202 831.6Z" fill="url(#paint8_linear_634_7620)"/>
<path d="M193.45 730.76L172 748.02C172 748.02 166.25 745.08 160.87 738.4C156.02 732.37 154.34 725.09 154.34 725.09L178.45 705.69" fill="url(#paint9_linear_634_7620)"/>
<path d="M155.62 729.04C155.62 729.04 156.86 733.14 161.19 738.78C163.28 741.51 168.57 745.79 168.57 745.79L150.37 760.44C150.37 760.44 146.16 758.29 142.23 753.4C138.68 748.99 137.46 743.66 137.46 743.66L155.63 729.04H155.62Z" fill="url(#paint10_linear_634_7620)"/>
<path d="M138.6 747.22C138.6 747.22 139.57 749.83 142.43 753.65C143.81 755.5 147.34 758.42 147.34 758.42L55.0401 832.7C55.0401 832.7 47.8601 833.72 43.7101 832.99C34.7001 831.4 33.8101 831.54 33.8101 831.54L138.6 747.21V747.22Z" fill="url(#paint11_linear_634_7620)"/>
<g style="mix-blend-mode:multiply">
<path opacity="0.02" d="M565.63 602C569.58 597.03 577.55 599.05 576.39 605.19C572.27 627.07 563.14 658.99 542.91 688.34C484.62 772.89 409.08 782.65 395.33 719.92C386.07 677.65 425.71 650.82 446.99 645.95C485.42 637.14 534.36 641.34 565.63 602Z" fill="#8AF969" fill-opacity="0.1"/>
<path opacity="0.03" d="M565.15 602.93C569.07 598 576.98 600 575.83 606.09C571.74 627.8 562.67 659.49 542.6 688.62C484.75 772.54 409.77 782.22 396.13 719.97C386.94 678.01 426.29 651.39 447.4 646.55C485.54 637.8 534.11 641.98 565.15 602.93Z" fill="#8AF969" fill-opacity="0.1"/>
<path opacity="0.04" d="M564.68 603.85C568.57 598.96 576.42 600.94 575.28 606.99C571.22 628.54 562.22 659.99 542.3 688.9C484.88 772.19 410.47 781.8 396.93 720.01C387.81 678.37 426.86 651.94 447.82 647.14C485.68 638.46 533.88 642.6 564.69 603.85H564.68Z" fill="#8AF969" fill-opacity="0.1"/>
<path opacity="0.05" d="M564.2 604.78C568.06 599.92 575.85 601.9 574.72 607.89C570.7 629.28 561.76 660.49 541.99 689.18C485.01 771.84 411.16 781.37 397.72 720.06C388.67 678.73 427.42 652.51 448.22 647.75C485.79 639.13 533.63 643.25 564.2 604.79V604.78Z" fill="#8AF969" fill-opacity="0.1"/>
<path opacity="0.06" d="M563.73 605.71C567.56 600.89 575.29 602.85 574.17 608.8C570.18 630.02 561.31 661 541.69 689.46C485.14 771.49 411.86 780.95 398.52 720.1C389.54 679.09 428 653.07 448.63 648.34C485.91 639.79 533.39 643.87 563.73 605.71Z" fill="#8AF969" fill-opacity="0.1"/>
<path opacity="0.07" d="M563.25 606.63C567.05 601.85 574.72 603.79 573.61 609.7C569.65 630.76 560.85 661.49 541.38 689.74C485.27 771.14 412.55 780.52 399.31 720.14C390.4 679.44 428.56 653.62 449.04 648.93C486.04 640.45 533.14 644.5 563.25 606.62V606.63Z" fill="#8AF969" fill-opacity="0.1"/>
<path opacity="0.08" d="M562.77 607.56C566.54 602.81 574.15 604.74 573.05 610.6C569.12 631.5 560.39 661.99 541.07 690.02C485.39 770.79 413.24 780.1 400.11 720.19C391.27 679.81 429.13 654.19 449.45 649.53C486.16 641.11 532.9 645.13 562.77 607.55V607.56Z" fill="#8AF969" fill-opacity="0.1"/>
<path opacity="0.09" d="M562.3 608.48C566.04 603.77 573.6 605.69 572.5 611.5C568.6 632.23 559.94 662.49 540.77 690.3C485.53 770.43 413.94 779.68 400.91 720.23C392.14 680.17 429.71 654.74 449.87 650.13C486.29 641.78 532.67 645.76 562.31 608.48H562.3Z" fill="#8AF969" fill-opacity="0.1"/>
<path opacity="0.1" d="M561.82 609.41C565.54 604.74 573.03 606.64 571.94 612.41C568.07 632.98 559.48 663 540.46 690.59C485.65 770.09 414.63 779.26 401.7 720.29C392.99 680.54 430.27 655.32 450.27 650.74C486.4 642.45 532.42 646.41 561.82 609.42V609.41Z" fill="#8AF969" fill-opacity="0.1"/>
<path opacity="0.11" d="M561.35 610.34C565.04 605.71 572.47 607.59 571.39 613.31C567.55 633.72 559.03 663.5 540.16 690.87C485.79 769.74 415.32 778.84 402.5 720.33C393.86 680.9 430.84 655.88 450.68 651.33C486.53 643.11 532.17 647.03 561.34 610.34H561.35Z" fill="#8AF969" fill-opacity="0.1"/>
<path opacity="0.12" d="M560.87 611.26C564.53 606.66 571.9 608.53 570.83 614.21C567.02 634.45 558.57 663.99 539.85 691.15C485.91 769.39 416.01 778.41 403.3 720.37C394.73 681.25 431.42 656.43 451.1 651.92C486.66 643.76 531.94 647.66 560.88 611.26H560.87Z" fill="#8AF969" fill-opacity="0.1"/>
<path opacity="0.13" d="M560.4 612.19C564.03 607.63 571.34 609.48 570.28 615.11C566.5 635.19 558.11 664.49 539.55 691.43C486.05 769.04 416.71 777.99 404.1 720.42C395.6 681.62 431.99 657 451.51 652.53C486.78 644.44 531.7 648.3 560.4 612.19Z" fill="#8AF969" fill-opacity="0.1"/>
<path opacity="0.14" d="M559.92 613.11C563.52 608.59 570.77 610.43 569.72 616.01C565.97 635.93 557.65 664.99 539.24 691.71C486.17 768.69 417.4 777.56 404.89 720.46C396.46 681.97 432.55 657.56 451.92 653.12C486.91 645.1 531.46 648.93 559.93 613.11H559.92Z" fill="#8AF969" fill-opacity="0.1"/>
<path opacity="0.15" d="M559.45 614.04C563.02 609.55 570.21 611.38 569.17 616.92C565.45 636.67 557.2 665.5 538.94 692C486.31 768.34 418.1 777.15 405.69 720.52C397.33 682.35 433.12 658.13 452.33 653.73C487.03 645.77 531.21 649.57 559.45 614.05V614.04Z" fill="#8AF969" fill-opacity="0.1"/>
<path opacity="0.16" d="M558.97 614.97C562.51 610.52 569.64 612.33 568.61 617.82C564.92 637.41 556.74 666 538.63 692.27C486.43 767.98 418.79 776.72 406.48 720.55C398.19 682.7 433.69 658.68 452.74 654.31C487.15 646.42 530.97 650.19 558.97 614.96V614.97Z" fill="#8AF969" fill-opacity="0.1"/>
<path opacity="0.17" d="M558.49 615.89C562 611.48 569.07 613.27 568.05 618.72C564.39 638.15 556.28 666.5 538.32 692.55C486.56 767.63 419.48 776.29 407.28 720.59C399.06 683.05 434.26 659.23 453.15 654.91C487.28 647.08 530.73 650.82 558.5 615.89H558.49Z" fill="#8AF969" fill-opacity="0.1"/>
<path opacity="0.18" d="M558.02 616.82C561.5 612.45 568.51 614.22 567.5 619.63C563.88 638.89 555.83 667 538.02 692.84C486.7 767.29 420.18 775.88 408.08 720.65C399.93 683.43 434.83 659.81 453.56 655.52C487.4 647.76 530.49 651.46 558.02 616.82Z" fill="#8AF969" fill-opacity="0.1"/>
<path opacity="0.19" d="M557.54 617.74C560.99 613.4 567.95 615.17 566.94 620.52C563.35 639.62 555.37 667.49 537.71 693.11C486.82 766.93 420.87 775.44 408.87 720.68C400.79 683.77 435.4 660.36 453.97 656.1C487.52 648.41 530.24 652.08 557.55 617.73L557.54 617.74Z" fill="#8AF969" fill-opacity="0.1"/>
<path opacity="0.2" d="M557.07 618.67C560.49 614.37 567.39 616.12 566.39 621.43C562.83 640.37 554.92 668 537.41 693.4C486.96 766.59 421.57 775.03 409.67 720.74C401.66 684.15 435.97 660.93 454.38 656.71C487.64 649.08 530 652.72 557.07 618.67Z" fill="#8AF969" fill-opacity="0.1"/>
<path opacity="0.21" d="M556.59 619.6C559.98 615.34 566.82 617.07 565.83 622.33C562.3 641.1 554.46 668.5 537.1 693.68C487.08 766.24 422.26 774.6 410.47 720.78C402.52 684.51 436.54 661.49 454.8 657.31C487.78 649.75 529.77 653.36 556.6 619.6H556.59Z" fill="#8AF969" fill-opacity="0.1"/>
<path opacity="0.22" d="M556.12 620.52C559.48 616.29 566.26 618.01 565.28 623.23C561.78 641.84 554 669 536.8 693.96C487.22 765.88 422.96 774.18 411.27 720.82C403.39 684.86 437.12 662.04 455.21 657.9C487.9 650.4 529.53 653.98 556.13 620.52H556.12Z" fill="#8AF969" fill-opacity="0.1"/>
<path opacity="0.23" d="M555.64 621.45C558.97 617.26 565.69 618.96 564.72 624.14C561.25 642.59 553.54 669.5 536.49 694.25C487.34 765.54 423.65 773.77 412.06 720.88C404.25 685.24 437.68 662.62 455.61 658.51C488.01 651.08 529.27 654.63 555.64 621.46V621.45Z" fill="#8AF969" fill-opacity="0.1"/>
<path opacity="0.24" d="M555.16 622.37C558.46 618.22 565.12 619.91 564.16 625.03C560.72 643.31 553.08 669.99 536.18 694.52C487.47 765.18 424.34 773.33 412.85 720.91C405.11 685.58 438.24 663.17 456.02 659.09C488.14 651.72 529.03 655.24 555.17 622.36L555.16 622.37Z" fill="#8AF969" fill-opacity="0.1"/>
<path opacity="0.25" d="M554.69 623.3C557.96 619.19 564.56 620.86 563.61 625.94C560.2 644.06 552.63 670.5 535.88 694.8C487.6 764.83 425.04 772.91 413.65 720.96C405.98 685.95 438.82 663.73 456.43 659.7C488.26 652.4 528.79 655.88 554.69 623.3Z" fill="#8AF969" fill-opacity="0.1"/>
<path opacity="0.26" d="M554.21 624.23C557.45 620.15 563.99 621.81 563.04 626.85C559.66 644.8 552.16 671.01 535.56 695.09C487.72 764.49 425.72 772.49 414.44 721.01C406.84 686.31 439.38 664.3 456.84 660.3C488.38 653.07 528.55 656.52 554.21 624.23Z" fill="#8AF969" fill-opacity="0.1"/>
<path opacity="0.27" d="M553.74 625.15C556.95 621.11 563.43 622.75 562.49 627.74C559.14 645.53 551.71 671.5 535.26 695.36C487.85 764.13 426.42 772.06 415.24 721.05C407.71 686.67 439.95 664.85 457.25 660.89C488.51 653.72 528.3 657.14 553.74 625.15Z" fill="#8AF969" fill-opacity="0.1"/>
<path opacity="0.28" d="M553.26 626.08C556.44 622.08 562.86 623.7 561.93 628.65C558.61 646.28 551.25 672.01 534.95 695.65C487.98 763.79 427.11 771.64 416.03 721.1C408.57 687.04 440.51 665.42 457.66 661.49C488.63 654.39 528.06 657.78 553.26 626.08Z" fill="#8AF969" fill-opacity="0.1"/>
<path opacity="0.29" d="M552.79 627.01C555.94 623.04 562.31 624.66 561.38 629.55C558.09 647.01 550.8 672.5 534.65 695.93C488.11 763.43 427.81 771.22 416.83 721.14C409.44 687.39 441.09 665.98 458.07 662.09C488.75 655.05 527.82 658.41 552.79 627V627.01Z" fill="#8AF969" fill-opacity="0.1"/>
<path opacity="0.3" d="M552.31 627.93C555.44 624 561.74 625.6 560.82 630.45C557.56 647.75 550.34 673 534.34 696.21C488.24 763.08 428.5 770.8 417.63 721.19C410.31 687.76 441.66 666.54 458.48 662.69C488.87 655.72 527.58 659.05 552.31 627.93Z" fill="#8AF969" fill-opacity="0.1"/>
<path opacity="0.31" d="M551.83 628.86C554.93 624.97 561.17 626.55 560.26 631.36C557.04 648.5 549.88 673.51 534.03 696.5C488.36 762.74 429.19 770.38 418.42 721.24C411.17 688.12 442.22 667.11 458.89 663.29C489 656.38 527.33 659.68 551.83 628.86Z" fill="#8AF969" fill-opacity="0.1"/>
<path opacity="0.32" d="M551.36 629.78C554.43 625.93 560.61 627.49 559.71 632.25C556.52 649.22 549.42 674 533.73 696.77C488.5 762.38 429.89 769.95 419.22 721.28C412.03 688.48 442.8 667.66 459.3 663.88C489.12 657.04 527.09 660.31 551.36 629.78Z" fill="#8AF969" fill-opacity="0.1"/>
<path opacity="0.33" d="M550.88 630.71C553.92 626.89 560.04 628.44 559.15 633.16C555.99 649.97 548.96 674.51 533.42 697.06C488.63 762.04 430.58 769.53 420.01 721.33C412.89 688.84 443.36 668.23 459.71 664.49C489.24 657.72 526.85 660.95 550.88 630.72V630.71Z" fill="#8AF969" fill-opacity="0.1"/>
<path opacity="0.34" d="M550.41 631.64C553.42 627.86 559.48 629.4 558.6 634.06C555.47 650.71 548.51 675 533.12 697.34C488.76 761.69 431.27 769.11 420.81 721.37C413.76 689.2 443.93 668.79 460.12 665.08C489.37 658.37 526.61 661.57 550.41 631.64Z" fill="#8AF969" fill-opacity="0.1"/>
<path opacity="0.35" d="M549.93 632.56C552.91 628.82 558.91 630.34 558.04 634.96C554.94 651.44 548.05 675.5 532.81 697.61C488.89 761.33 431.96 768.67 421.61 721.41C414.63 689.56 444.51 669.34 460.54 665.67C489.5 659.03 526.37 662.2 549.94 632.55L549.93 632.56Z" fill="#8AF969" fill-opacity="0.1"/>
<path opacity="0.36" d="M549.46 633.49C552.41 629.78 558.35 631.29 557.49 635.87C554.42 652.19 547.6 676.01 532.51 697.9C489.02 760.98 432.66 768.26 422.41 721.46C415.5 689.92 445.08 669.91 460.95 666.27C489.62 659.69 526.13 662.83 549.46 633.48V633.49Z" fill="#8AF969" fill-opacity="0.1"/>
<path opacity="0.37" d="M548.98 634.41C551.9 630.74 557.78 632.23 556.93 636.76C553.89 652.92 547.14 676.5 532.2 698.17C489.15 760.62 433.35 767.82 423.2 721.5C416.36 690.28 445.64 670.46 461.35 666.87C489.73 660.36 525.88 663.47 548.98 634.41Z" fill="#8AF969" fill-opacity="0.1"/>
<path opacity="0.38" d="M548.5 635.34C551.39 631.71 557.21 633.18 556.37 637.67C553.36 653.66 546.68 677.01 531.89 698.46C489.27 760.28 434.04 767.41 423.99 721.55C417.22 690.64 446.21 671.03 461.76 667.47C489.86 661.03 525.64 664.1 548.5 635.34Z" fill="#8AF969" fill-opacity="0.1"/>
<path opacity="0.39" d="M548.03 636.27C550.89 632.68 556.66 634.14 555.82 638.58C552.84 654.41 546.23 677.52 531.59 698.75C489.41 759.94 434.74 767 424.8 721.6C418.1 691.01 446.79 671.6 462.18 668.07C489.99 661.69 525.4 664.74 548.03 636.27Z" fill="#8AF969" fill-opacity="0.1"/>
<path opacity="0.4" d="M547.55 637.19C550.38 633.63 556.09 635.08 555.26 639.47C552.31 655.14 545.77 678 531.28 699.02C489.53 759.58 435.43 766.56 425.59 721.64C418.96 691.37 447.35 672.15 462.59 668.66C490.11 662.35 525.16 665.36 547.56 637.18L547.55 637.19Z" fill="#8AF969" fill-opacity="0.1"/>
<path opacity="0.41" d="M547.08 638.12C549.88 634.6 555.53 636.03 554.71 640.38C551.79 655.88 545.32 678.51 530.98 699.31C489.67 759.24 436.13 766.15 426.39 721.69C419.83 691.73 447.92 672.72 463 669.27C490.24 663.02 524.92 666 547.08 638.12Z" fill="#8AF969" fill-opacity="0.1"/>
<path opacity="0.42" d="M546.6 639.04C549.37 635.56 554.96 636.97 554.15 641.27C551.26 656.61 544.85 679 530.67 699.58C489.79 758.88 436.82 765.71 427.18 721.73C420.69 692.09 448.49 673.27 463.4 669.86C490.35 663.68 524.67 666.63 546.6 639.04Z" fill="#8AF969" fill-opacity="0.1"/>
<path opacity="0.43" d="M546.13 639.97C548.87 636.52 554.4 637.92 553.6 642.18C550.74 657.36 544.4 679.51 530.37 699.87C489.93 758.53 437.52 765.3 427.98 721.78C421.56 692.45 449.06 673.84 463.82 670.46C490.48 664.34 524.43 667.26 546.13 639.97Z" fill="#8AF969" fill-opacity="0.1"/>
<path opacity="0.44" d="M545.65 640.9C548.36 637.49 553.83 638.88 553.04 643.09C550.22 658.1 543.94 680.02 530.06 700.16C490.05 758.19 438.21 764.88 428.78 721.84C422.42 692.83 449.63 674.42 464.23 671.07C490.61 665.02 524.19 667.91 545.65 640.91V640.9Z" fill="#8AF969" fill-opacity="0.1"/>
<path opacity="0.45" d="M545.18 641.82C547.86 638.45 553.27 639.82 552.49 643.98C549.7 658.83 543.49 680.5 529.76 700.42C490.19 757.82 438.91 764.44 429.58 721.86C423.29 693.16 450.21 674.95 464.65 671.65C490.74 665.67 523.96 668.52 545.19 641.82H545.18Z" fill="#8AF969" fill-opacity="0.1"/>
<path opacity="0.46" d="M544.7 642.75C547.35 639.42 552.7 640.77 551.93 644.89C549.17 659.58 543.03 681.01 529.45 700.71C490.31 757.48 439.6 764.03 430.37 721.91C424.15 693.53 450.77 675.52 465.05 672.25C490.85 666.33 523.71 669.16 544.7 642.74V642.75Z" fill="#8AF969" fill-opacity="0.1"/>
<path opacity="0.47" d="M544.22 643.67C546.84 640.37 552.13 641.71 551.37 645.79C548.64 660.31 542.57 681.51 529.14 700.99C490.44 757.13 440.29 763.6 431.16 721.96C425.01 693.9 451.33 676.09 465.46 672.85C490.97 667 523.46 669.79 544.23 643.67H544.22Z" fill="#8AF969" fill-opacity="0.1"/>
<path opacity="0.48" d="M543.75 644.6C546.34 641.34 551.57 642.66 550.82 646.69C548.12 661.05 542.12 682.01 528.84 701.27C490.58 756.78 440.99 763.18 431.97 722C425.89 694.25 451.92 676.64 465.88 673.44C491.11 667.65 523.23 670.42 543.76 644.59L543.75 644.6Z" fill="#8AF969" fill-opacity="0.1"/>
<path opacity="0.49" d="M543.27 645.53C545.83 642.31 551 643.62 550.26 647.6C547.59 661.8 541.66 682.52 528.53 701.56C490.7 756.43 441.68 762.76 432.76 722.06C426.75 694.63 452.48 677.22 466.28 674.06C491.22 668.34 522.98 671.07 543.27 645.54V645.53Z" fill="#8AF969" fill-opacity="0.1"/>
<path opacity="0.5" d="M542.8 646.45C545.34 643.26 550.45 644.56 549.71 648.49C547.07 662.52 541.21 683 528.23 701.83C490.84 756.07 442.38 762.33 433.56 722.09C427.62 694.97 453.05 677.76 466.7 674.64C491.35 668.99 522.75 671.68 542.81 646.45H542.8Z" fill="#8AF969" fill-opacity="0.1"/>
<path opacity="0.5" d="M542.32 647.38C544.83 644.23 549.88 645.51 549.14 649.4C546.53 663.27 540.74 683.51 527.91 702.12C490.95 755.73 443.06 761.91 434.34 722.14C428.47 695.34 453.61 678.33 467.09 675.24C491.46 669.65 522.48 672.32 542.31 647.37L542.32 647.38Z" fill="#8AF969" fill-opacity="0.1"/>
<path opacity="0.51" d="M541.85 648.3C544.33 645.19 549.32 646.45 548.59 650.3C546.01 664.01 540.28 684.01 527.61 702.4C491.09 755.38 443.76 761.49 435.14 722.19C429.34 695.7 454.18 678.9 467.51 675.84C491.59 670.32 522.25 672.95 541.85 648.3Z" fill="#8AF969" fill-opacity="0.1"/>
<path opacity="0.52" d="M541.37 649.23C543.82 646.16 548.75 647.4 548.03 651.2C545.48 664.74 539.82 684.51 527.3 702.68C491.21 755.03 444.45 761.07 435.94 722.23C430.21 696.06 454.75 679.45 467.92 676.44C491.71 670.98 522.01 673.59 541.37 649.23Z" fill="#8AF969" fill-opacity="0.1"/>
<path opacity="0.53" d="M540.89 650.16C543.31 647.12 548.18 648.36 547.47 652.11C544.95 665.49 539.36 685.02 526.99 702.97C491.34 754.69 445.14 760.65 436.73 722.29C431.07 696.44 455.32 680.03 468.32 677.05C491.83 671.66 521.76 674.23 540.88 650.17L540.89 650.16Z" fill="#8AF969" fill-opacity="0.1"/>
<path opacity="0.54" d="M540.42 651.08C542.81 648.08 547.62 649.3 546.92 653.01C544.43 666.23 538.91 685.52 526.69 703.24C491.47 754.33 445.84 760.22 437.53 722.32C431.93 696.78 455.89 680.57 468.74 677.63C491.96 672.3 521.52 674.85 540.42 651.08Z" fill="#8AF969" fill-opacity="0.1"/>
<path opacity="0.55" d="M539.94 652.01C542.3 649.05 547.05 650.25 546.36 653.91C543.9 666.96 538.45 686.01 526.38 703.52C491.6 753.97 446.53 759.79 438.32 722.36C432.79 697.14 456.45 681.13 469.14 678.22C492.07 672.96 521.27 675.47 539.93 652L539.94 652.01Z" fill="#8AF969" fill-opacity="0.1"/>
<path opacity="0.56" d="M539.47 652.94C541.8 650.01 546.49 651.2 545.81 654.82C543.38 667.71 538 686.52 526.08 703.81C491.73 753.63 447.22 759.38 439.13 722.42C433.67 697.51 457.03 681.71 469.57 678.84C492.21 673.65 521.05 676.13 539.48 652.94H539.47Z" fill="#8AF969" fill-opacity="0.1"/>
<path opacity="0.57" d="M538.99 653.86C541.29 650.97 545.92 652.15 545.25 655.71C542.86 668.44 537.54 687.01 525.77 704.08C491.86 753.27 447.91 758.94 439.92 722.45C434.53 697.86 457.6 682.25 469.97 679.42C492.33 674.29 520.8 676.74 538.99 653.85V653.86Z" fill="#8AF969" fill-opacity="0.1"/>
<path opacity="0.58" d="M538.52 654.79C540.79 651.94 545.36 653.1 544.7 656.62C542.34 669.18 537.09 687.52 525.47 704.37C491.99 752.93 448.61 758.53 440.72 722.51C435.4 698.23 458.17 682.83 470.39 680.03C492.46 674.97 520.56 677.38 538.52 654.79Z" fill="#8AF969" fill-opacity="0.1"/>
<path opacity="0.59" d="M538.04 655.71C540.28 652.9 544.8 654.04 544.14 657.52C541.81 669.92 536.63 688.02 525.16 704.65C492.12 752.58 449.3 758.11 441.51 722.55C436.26 698.59 458.73 683.38 470.79 680.62C492.57 675.62 520.31 678.01 538.04 655.71Z" fill="#8AF969" fill-opacity="0.1"/>
<path opacity="0.6" d="M537.56 656.64C539.77 653.86 544.23 654.99 543.58 658.42C541.28 670.66 536.17 688.51 524.85 704.93C492.24 752.23 449.99 757.68 442.3 722.6C437.12 698.96 459.3 683.95 471.19 681.23C492.69 676.3 520.06 678.65 537.55 656.65L537.56 656.64Z" fill="#8AF969" fill-opacity="0.1"/>
<path opacity="0.61" d="M537.09 657.57C539.27 654.83 543.67 655.94 543.03 659.33C540.76 671.4 535.71 689.02 524.55 705.22C492.38 751.89 450.69 757.27 443.11 722.65C438 699.32 459.88 684.52 471.62 681.83C492.83 676.97 519.84 679.29 537.09 657.57Z" fill="#8AF969" fill-opacity="0.1"/>
<path opacity="0.62" d="M536.61 658.49C538.76 655.79 543.1 656.89 542.47 660.23C540.23 672.14 535.25 689.52 524.24 705.5C492.51 751.53 451.38 756.84 443.9 722.69C438.86 699.68 460.44 685.07 472.02 682.42C492.94 677.62 519.58 679.91 536.61 658.49Z" fill="#8AF969" fill-opacity="0.1"/>
<path opacity="0.63" d="M536.14 659.42C538.26 656.75 542.54 657.84 541.92 661.13C539.71 672.88 534.8 690.02 523.94 705.78C492.64 751.18 452.08 756.42 444.7 722.74C439.73 700.04 461.02 685.64 472.44 683.02C493.07 678.29 519.35 680.55 536.14 659.42Z" fill="#8AF969" fill-opacity="0.1"/>
<path opacity="0.64" d="M535.66 660.34C537.75 657.71 541.97 658.78 541.36 662.03C539.18 673.61 534.34 690.52 523.63 706.05C492.77 750.82 452.77 755.98 445.49 722.77C440.59 700.39 461.58 686.18 472.84 683.61C493.19 678.94 519.1 681.17 535.66 660.34Z" fill="#8AF969" fill-opacity="0.1"/>
<path opacity="0.65" d="M535.19 661.27C537.25 658.68 541.41 659.73 540.81 662.93C538.66 674.35 533.89 691.02 523.33 706.33C492.9 750.47 453.47 755.56 446.3 722.82C441.46 700.76 462.16 686.75 473.26 684.21C493.32 679.61 518.87 681.8 535.19 661.27Z" fill="#8AF969" fill-opacity="0.1"/>
<path opacity="0.66" d="M534.71 662.2C536.74 659.65 540.84 660.68 540.25 663.84C538.13 675.1 533.43 691.52 523.02 706.62C493.03 750.13 454.16 755.15 447.09 722.87C442.32 701.12 462.73 687.32 473.67 684.81C493.44 680.27 518.62 682.44 534.71 662.2Z" fill="#8AF969" fill-opacity="0.1"/>
<path opacity="0.67" d="M534.23 663.12C536.23 660.6 540.27 661.63 539.69 664.74C537.6 675.83 532.97 692.02 522.71 706.9C493.15 749.78 454.85 754.72 447.88 722.91C443.18 701.48 463.29 687.87 474.07 685.4C493.56 680.93 518.37 683.06 534.23 663.11V663.12Z" fill="#8AF969" fill-opacity="0.1"/>
<path opacity="0.68" d="M533.76 664.05C535.73 661.57 539.71 662.58 539.14 665.64C537.08 676.57 532.52 692.52 522.41 707.18C493.29 749.43 455.55 754.3 448.68 722.96C444.05 701.84 463.86 688.44 474.49 686.01C493.69 681.61 518.14 683.71 533.76 664.05Z" fill="#8AF969" fill-opacity="0.1"/>
<path opacity="0.69" d="M533.28 664.97C535.23 662.53 539.15 663.52 538.58 666.54C536.55 677.31 532.06 693.02 522.1 707.46C493.41 749.07 456.24 753.87 449.47 723C444.91 702.2 464.42 688.99 474.89 686.6C493.8 682.26 517.89 684.33 533.28 664.97Z" fill="#8AF969" fill-opacity="0.1"/>
<path opacity="0.7" d="M532.81 665.9C534.73 663.49 538.59 664.47 538.03 667.45C536.04 678.05 531.6 693.53 521.8 707.75C493.55 748.73 456.94 753.46 450.28 723.06C445.79 702.57 465.01 689.57 475.32 687.21C493.95 682.94 517.66 684.98 532.82 665.91L532.81 665.9Z" fill="#8AF969" fill-opacity="0.1"/>
<path opacity="0.71" d="M532.33 666.83C534.22 664.46 538.02 665.42 537.47 668.35C535.51 678.79 531.14 694.02 521.49 708.03C493.67 748.38 457.63 753.03 451.07 723.1C446.65 702.93 465.57 690.13 475.72 687.8C494.06 683.59 517.41 685.6 532.33 666.83Z" fill="#8AF969" fill-opacity="0.1"/>
<path opacity="0.72" d="M531.86 667.75C533.72 665.42 537.46 666.37 536.92 669.25C534.99 679.53 530.69 694.52 521.19 708.31C493.81 748.03 458.33 752.61 451.87 723.14C447.52 703.29 466.14 690.68 476.13 688.4C494.18 684.26 517.17 686.24 531.86 667.75Z" fill="#8AF969" fill-opacity="0.1"/>
<path opacity="0.73" d="M531.38 668.68C533.21 666.39 536.89 667.32 536.36 670.15C534.46 680.26 530.23 695.02 520.88 708.58C493.93 747.67 459.02 752.17 452.66 723.18C448.38 703.64 466.71 691.24 476.54 688.99C494.3 684.91 516.93 686.86 531.38 668.67V668.68Z" fill="#8AF969" fill-opacity="0.1"/>
<path opacity="0.74" d="M530.91 669.6C532.71 667.34 536.33 668.26 535.81 671.05C533.94 681 529.78 695.52 520.58 708.86C494.07 747.32 459.72 751.75 453.47 723.22C449.26 704 467.29 691.79 476.96 689.58C494.44 685.57 516.69 687.48 530.92 669.59L530.91 669.6Z" fill="#8AF969" fill-opacity="0.1"/>
<path opacity="0.75" d="M530.43 670.53C532.2 668.31 535.76 669.21 535.24 671.96C533.4 681.75 529.31 696.03 520.26 709.15C494.18 746.98 460.4 751.34 454.25 723.28C450.11 704.37 467.84 692.37 477.36 690.19C494.55 686.25 516.44 688.13 530.43 670.53Z" fill="#8AF969" fill-opacity="0.1"/>
<path opacity="0.76" d="M529.95 671.46C531.69 669.28 535.19 670.16 534.68 672.86C532.87 682.48 528.85 696.53 519.95 709.43C494.31 746.62 461.09 750.91 455.04 723.32C450.97 704.73 468.41 692.93 477.76 690.79C494.66 686.91 516.19 688.76 529.94 671.46H529.95Z" fill="#8AF969" fill-opacity="0.1"/>
<path opacity="0.77" d="M529.48 672.38C531.19 670.23 534.63 671.11 534.13 673.76C532.35 683.22 528.4 697.02 519.65 709.71C494.45 746.27 461.79 750.49 455.84 723.37C451.83 705.09 468.98 693.49 478.17 691.39C494.79 687.58 515.95 689.4 529.47 672.39L529.48 672.38Z" fill="#8AF969" fill-opacity="0.1"/>
<path opacity="0.78" d="M529 673.31C530.68 671.2 534.06 672.06 533.57 674.67C531.82 683.97 527.94 697.53 519.34 710C494.57 745.93 462.47 750.07 456.63 723.42C452.69 705.46 469.54 694.06 478.58 691.99C494.91 688.24 515.7 690.03 528.99 673.31H529Z" fill="#8AF969" fill-opacity="0.1"/>
<path opacity="0.79" d="M528.53 674.23C530.18 672.16 533.51 673 533.02 675.56C531.3 684.69 527.49 698.02 519.04 710.27C494.71 745.57 463.17 749.64 457.44 723.45C453.57 705.81 470.13 694.61 479 692.57C495.04 688.89 515.47 690.65 528.53 674.22V674.23Z" fill="#8AF969" fill-opacity="0.1"/>
<path opacity="0.8" d="M528.05 675.16C529.67 673.13 532.94 673.95 532.46 676.47C530.77 685.44 527.02 698.53 518.73 710.56C494.83 745.23 463.86 749.22 458.23 723.51C454.43 706.18 470.69 695.18 479.41 693.19C495.16 689.58 515.23 691.3 528.05 675.17V675.16Z" fill="#8AF969" fill-opacity="0.1"/>
<path opacity="0.81" d="M527.58 676.09C529.17 674.09 532.38 674.9 531.91 677.37C530.25 686.18 526.57 699.03 518.43 710.84C494.97 744.88 464.56 748.8 459.03 723.55C455.3 706.54 471.26 695.74 479.82 693.78C495.29 690.23 514.99 691.92 527.57 676.09H527.58Z" fill="#8AF969" fill-opacity="0.1"/>
<path opacity="0.82" d="M527.1 677.01C528.66 675.05 531.81 675.85 531.35 678.27C529.72 686.91 526.11 699.52 518.12 711.12C495.09 744.52 465.25 748.38 459.82 723.6C456.16 706.9 471.82 696.3 480.23 694.38C495.41 690.9 514.74 692.56 527.1 677.02V677.01Z" fill="#8AF969" fill-opacity="0.1"/>
<path opacity="0.83" d="M526.62 677.94C528.15 676.02 531.24 676.8 530.79 679.18C529.2 687.66 525.65 700.03 517.81 711.4C495.22 744.17 465.94 747.95 460.62 723.64C457.03 707.26 472.4 696.86 480.64 694.97C495.53 691.55 514.5 693.18 526.62 677.93V677.94Z" fill="#8AF969" fill-opacity="0.1"/>
<path opacity="0.84" d="M526.15 678.87C527.65 676.98 530.68 677.75 530.24 680.08C528.68 688.39 525.2 700.53 517.51 711.68C495.35 743.82 466.64 747.53 461.42 723.68C457.9 707.62 472.97 697.42 481.05 695.57C495.66 692.22 514.26 693.82 526.14 678.86L526.15 678.87Z" fill="#8AF969" fill-opacity="0.1"/>
<path opacity="0.85" d="M525.67 679.79C527.14 677.94 530.11 678.69 529.68 680.98C528.15 689.13 524.74 701.03 517.2 711.96C495.48 743.47 467.33 747.1 462.21 723.73C458.76 707.98 473.53 697.98 481.46 696.17C495.78 692.88 514.02 694.45 525.67 679.79Z" fill="#8AF969" fill-opacity="0.1"/>
<path opacity="0.86" d="M525.2 680.72C526.64 678.91 529.55 679.64 529.13 681.89C527.63 689.88 524.29 701.54 516.9 712.25C495.61 743.13 468.03 746.69 463.01 723.78C459.63 708.35 474.11 698.55 481.87 696.77C495.9 693.55 513.77 695.09 525.19 680.72H525.2Z" fill="#8AF969" fill-opacity="0.1"/>
<path opacity="0.87" d="M524.72 681.64C526.13 679.87 528.98 680.59 528.57 682.78C527.1 690.6 523.83 702.03 516.59 712.52C495.74 742.77 468.72 746.25 463.8 723.82C460.49 708.7 474.67 699.1 482.28 697.36C496.03 694.21 513.53 695.71 524.72 681.64Z" fill="#8AF969" fill-opacity="0.1"/>
<path opacity="0.88" d="M524.25 682.57C525.63 680.83 528.42 681.54 528.02 683.69C526.58 691.35 523.38 702.53 516.29 712.81C495.87 742.43 469.42 745.84 464.61 723.87C461.36 709.07 475.25 699.67 482.7 697.97C496.16 694.88 513.3 696.36 524.25 682.58V682.57Z" fill="#8AF969" fill-opacity="0.1"/>
<path opacity="0.89" d="M523.77 683.5C525.13 681.8 527.86 682.49 527.46 684.59C526.05 692.09 522.92 703.03 515.98 713.09C496 742.07 470.11 745.42 465.4 723.91C462.22 709.42 475.82 700.23 483.11 698.56C496.28 695.54 513.06 696.98 523.77 683.49V683.5Z" fill="#8AF969" fill-opacity="0.1"/>
<path opacity="0.9" d="M523.29 684.42C524.62 682.76 527.29 683.43 526.9 685.49C525.52 692.82 522.45 703.53 515.67 713.37C496.12 741.72 470.8 744.99 466.19 723.96C463.08 709.79 476.38 700.79 483.51 699.16C496.39 696.2 512.8 697.61 523.29 684.42Z" fill="#8AF969" fill-opacity="0.1"/>
<path opacity="0.91" d="M522.82 685.35C524.12 683.72 526.73 684.38 526.35 686.4C525 693.57 522 704.04 515.37 713.66C496.26 741.38 471.5 744.58 466.99 724.01C463.95 710.16 476.95 701.36 483.92 699.76C496.52 696.87 512.56 698.25 522.81 685.35H522.82Z" fill="#8AF969" fill-opacity="0.1"/>
<path opacity="0.92" d="M522.34 686.27C523.61 684.68 526.16 685.33 525.79 687.29C524.47 694.3 521.54 704.53 515.06 713.93C496.39 741.02 472.19 744.14 467.79 724.05C464.82 710.51 477.53 701.91 484.34 700.36C496.65 697.54 512.33 698.88 522.35 686.28L522.34 686.27Z" fill="#8AF969" fill-opacity="0.1"/>
<path opacity="0.93" d="M521.87 687.2C523.11 685.65 525.6 686.28 525.24 688.2C523.95 695.04 521.09 705.03 514.76 714.21C496.52 740.67 472.89 743.72 468.59 724.09C465.69 710.87 478.1 702.47 484.75 700.95C496.77 698.19 512.09 699.51 521.87 687.2Z" fill="#8AF969" fill-opacity="0.1"/>
<path opacity="0.94" d="M521.39 688.13C522.6 686.62 525.03 687.23 524.68 689.1C523.42 695.78 520.63 705.53 514.45 714.49C496.65 740.32 473.58 743.29 469.38 724.14C466.55 711.23 478.66 703.04 485.16 701.55C496.9 698.86 511.84 700.14 521.39 688.12V688.13Z" fill="#8AF969" fill-opacity="0.1"/>
<path opacity="0.95" d="M520.92 689.05C522.1 687.57 524.47 688.17 524.13 690C522.9 696.52 520.18 706.03 514.15 714.77C496.78 739.97 474.28 742.87 470.18 724.18C467.42 711.59 479.23 703.59 485.57 702.14C497.02 699.51 511.6 700.77 520.92 689.04V689.05Z" fill="#8AF969" fill-opacity="0.1"/>
<path opacity="0.96" d="M520.44 689.98C521.59 688.54 523.9 689.12 523.57 690.91C522.38 697.26 519.72 706.54 513.84 715.06C496.91 739.62 474.97 742.46 470.97 724.23C468.28 711.95 479.8 704.16 485.97 702.75C497.13 700.19 511.35 701.41 520.43 689.98H520.44Z" fill="#8AF969" fill-opacity="0.1"/>
<path opacity="0.97" d="M519.96 690.9C521.08 689.5 523.33 690.07 523.01 691.8C521.85 697.99 519.26 707.03 513.53 715.33C497.03 739.26 475.66 742.02 471.77 724.27C469.15 712.31 480.37 704.71 486.39 703.34C497.27 700.84 511.12 702.03 519.97 690.9H519.96Z" fill="#8AF969" fill-opacity="0.1"/>
<path opacity="0.98" d="M519.49 691.83C520.58 690.46 522.77 691.02 522.46 692.71C521.33 698.74 518.81 707.53 513.23 715.62C497.17 738.92 476.36 741.61 472.57 724.32C470.02 712.68 480.94 705.28 486.8 703.94C497.39 701.51 510.87 702.67 519.49 691.83Z" fill="#8AF969" fill-opacity="0.1"/>
<path opacity="0.99" d="M519.01 692.76C520.07 691.43 522.21 691.97 521.9 693.62C520.8 699.48 518.35 708.04 512.92 715.91C497.29 738.58 477.05 741.19 473.36 724.38C470.87 713.05 481.51 705.86 487.21 704.55C497.51 702.19 510.63 703.31 519.01 692.77V692.76Z" fill="#8AF969" fill-opacity="0.1"/>
<path d="M518.54 693.68C519.57 692.39 521.65 692.91 521.34 694.51C520.27 700.21 517.88 708.53 512.61 716.18C497.42 738.22 477.74 740.76 474.15 724.41C471.73 713.4 482.07 706.4 487.61 705.14C497.62 702.84 510.38 703.94 518.53 693.68H518.54Z" fill="#8AF969" fill-opacity="0.1"/>
</g>
<path d="M578.35 602.87C578.35 602.87 584.62 656.21 558.73 704.74C515.89 785.04 447.26 798.95 426.3 743.24C412.18 705.69 445.34 678.79 464.39 672.95C504.57 660.62 560.33 663.35 578.35 602.87Z" fill="#8AF969"/>
<path d="M578.13 604.2C565.19 663.53 504.58 660.88 464.4 673.21C450.6 677.44 429.92 691.91 424.65 714.29C428.55 690.33 450.86 673.77 465.21 669.26C505.08 656.74 568.52 653.86 576.08 603.21C577.11 596.36 569.62 583.38 554.14 583.03L553.83 581.21C567.85 580.63 575.6 590.9 577.8 600.05C578.13 601.41 578.42 602.85 578.13 604.2Z" fill="black"/>
<path d="M559.44 702.8C559.44 702.8 551.73 711.81 549.72 715.17C547.97 718.08 544.45 727.88 544.45 727.88L565.9 745.14C565.9 745.14 571.65 742.2 577.03 735.52C581.88 729.49 583.56 722.21 583.56 722.21L559.45 702.81L559.44 702.8Z" fill="url(#paint12_linear_634_7620)"/>
<path d="M582.27 726.16C582.27 726.16 581.03 730.26 576.7 735.9C574.61 738.63 569.32 742.91 569.32 742.91L587.52 757.56C587.52 757.56 591.73 755.41 595.66 750.52C599.21 746.11 600.43 740.78 600.43 740.78L582.26 726.16H582.27Z" fill="url(#paint13_linear_634_7620)"/>
<path d="M599.3 744.34C599.3 744.34 598.33 746.95 595.47 750.77C594.09 752.62 590.56 755.54 590.56 755.54L682.86 829.82C682.86 829.82 690.04 830.84 694.19 830.11C703.2 828.52 704.09 828.66 704.09 828.66L599.3 744.33V744.34Z" fill="url(#paint14_linear_634_7620)"/>
<g style="mix-blend-mode:multiply">
<path opacity="0.02" d="M216.23 389.39C207.79 389.44 203.24 379.51 210.56 375.59C236.63 361.63 277.3 344.48 324.53 340.98C460.63 330.88 533.66 400.95 480.18 467.44C444.13 512.25 383.34 493.55 360.57 475.59C319.42 443.15 283.01 388.98 216.23 389.38V389.39Z" fill="#EDFEE8"/>
<path opacity="0.03" d="M217.59 389.11C209.21 389.16 204.7 379.3 211.96 375.42C237.84 361.56 278.2 344.55 325.08 341.07C460.17 331.04 532.65 400.6 479.57 466.59C443.79 511.06 383.45 492.51 360.85 474.68C320.01 442.48 283.87 388.72 217.59 389.12V389.11Z" fill="#EDFEE8"/>
<path opacity="0.04" d="M218.94 388.83C210.62 388.88 206.15 379.1 213.36 375.24C239.04 361.49 279.1 344.6 325.63 341.15C459.7 331.2 531.64 400.23 478.95 465.72C443.44 509.86 383.55 491.44 361.13 473.75C320.6 441.79 284.73 388.44 218.95 388.83H218.94Z" fill="#EDFEE8"/>
<path opacity="0.05" d="M220.3 388.56C212.05 388.61 207.61 378.9 214.76 375.07C240.25 361.42 280.01 344.66 326.18 341.24C459.23 331.36 530.63 399.87 478.34 464.87C443.1 508.67 383.67 490.4 361.41 472.84C321.19 441.13 285.59 388.17 220.3 388.56Z" fill="#EDFEE8"/>
<path opacity="0.06" d="M221.65 388.28C213.46 388.33 209.05 378.69 216.15 374.89C241.44 361.34 280.9 344.71 326.72 341.31C458.76 331.51 529.61 399.49 477.72 463.99C442.75 507.46 383.77 489.32 361.68 471.9C321.76 440.43 286.44 387.88 221.65 388.27V388.28Z" fill="#EDFEE8"/>
<path opacity="0.07" d="M223.01 388C214.88 388.05 210.51 378.49 217.55 374.72C242.65 361.28 281.8 344.78 327.27 341.4C458.29 331.67 528.59 399.13 477.11 463.14C442.41 506.27 383.88 488.28 361.97 470.99C322.36 439.76 287.3 387.62 223.02 388H223.01Z" fill="#EDFEE8"/>
<path opacity="0.08" d="M224.36 387.72C216.3 387.77 211.96 378.28 218.94 374.54C243.84 361.2 282.69 344.83 327.8 341.48C457.8 331.83 527.56 398.77 476.47 462.28C442.04 505.08 383.97 487.22 362.22 470.07C322.92 439.08 288.13 387.34 224.35 387.73L224.36 387.72Z" fill="#EDFEE8"/>
<path opacity="0.09" d="M225.72 387.44C217.72 387.49 213.41 378.08 220.35 374.36C245.06 361.13 283.6 344.88 328.36 341.56C457.35 331.99 526.56 398.4 475.87 461.41C441.71 503.87 384.09 486.16 362.51 469.13C323.52 438.38 289 387.05 225.72 387.43V387.44Z" fill="#EDFEE8"/>
<path opacity="0.1" d="M227.07 387.16C219.13 387.21 214.86 377.87 221.74 374.19C246.25 361.06 284.49 344.94 328.9 341.65C456.87 332.15 525.54 398.04 475.25 460.56C441.36 502.69 384.19 485.11 362.79 468.22C324.1 437.72 289.86 386.79 227.07 387.16Z" fill="#EDFEE8"/>
<path opacity="0.11" d="M228.43 386.88C220.56 386.93 216.32 377.66 223.14 374.01C247.46 360.99 285.4 345 329.45 341.73C456.4 332.31 524.53 397.67 474.64 459.69C441.02 501.48 384.31 484.05 363.07 467.29C324.69 437.03 290.72 386.5 228.43 386.88Z" fill="#EDFEE8"/>
<path opacity="0.12" d="M229.78 386.6C221.97 386.65 217.76 377.46 224.53 373.83C248.66 360.91 286.29 345.05 329.99 341.81C455.93 332.46 523.5 397.3 474.01 458.83C440.66 500.29 384.4 482.99 363.33 466.37C325.26 436.35 291.56 386.23 229.77 386.6H229.78Z" fill="#EDFEE8"/>
<path opacity="0.13" d="M231.14 386.32C223.39 386.37 219.22 377.25 225.94 373.66C249.87 360.84 287.2 345.11 330.55 341.89C455.47 332.62 522.5 396.94 473.41 457.96C440.33 499.09 384.52 481.93 363.63 465.44C325.87 435.66 292.44 385.95 231.15 386.32H231.14Z" fill="#EDFEE8"/>
<path opacity="0.14" d="M232.49 386.04C224.8 386.09 220.67 377.05 227.33 373.48C251.07 360.77 288.09 345.16 331.09 341.97C454.99 332.77 521.48 396.57 472.79 457.1C439.97 497.89 384.63 480.87 363.9 464.52C326.44 434.99 293.29 385.67 232.5 386.04H232.49Z" fill="#EDFEE8"/>
<path opacity="0.15" d="M233.85 385.76C226.23 385.8 222.13 376.84 228.73 373.3C252.27 360.69 288.99 345.21 331.64 342.05C454.53 332.93 520.47 396.2 472.18 456.23C439.63 496.69 384.74 479.81 364.18 463.59C327.03 434.3 294.15 385.39 233.85 385.75V385.76Z" fill="#EDFEE8"/>
<path opacity="0.16" d="M235.2 385.48C227.64 385.52 223.57 376.63 230.12 373.13C253.47 360.63 289.88 345.28 332.17 342.14C454.04 333.09 519.44 395.84 471.54 455.38C439.26 495.5 384.82 478.76 364.44 462.68C327.6 433.63 294.99 385.13 235.19 385.49L235.2 385.48Z" fill="#EDFEE8"/>
<path opacity="0.17" d="M236.56 385.21C229.06 385.25 225.03 376.44 231.53 372.96C254.68 360.56 290.79 345.34 332.73 342.23C453.58 333.26 518.43 395.48 470.94 454.52C438.93 494.31 384.95 477.71 364.73 461.76C328.19 432.95 295.86 384.86 236.56 385.21Z" fill="#EDFEE8"/>
<path opacity="0.18" d="M237.91 384.93C230.48 384.97 226.48 376.23 232.92 372.78C255.88 360.49 291.69 345.39 333.27 342.31C453.11 333.41 517.41 395.12 470.32 453.66C438.58 493.11 385.05 476.65 365 460.84C328.77 432.28 296.71 384.58 237.91 384.94V384.93Z" fill="#EDFEE8"/>
<path opacity="0.19" d="M239.27 384.65C231.9 384.69 227.93 376.02 234.32 372.6C257.08 360.41 292.59 345.44 333.82 342.38C452.64 333.56 516.4 394.74 469.71 452.79C438.24 491.91 385.16 475.59 365.29 459.91C329.37 431.59 297.58 384.3 239.28 384.65H239.27Z" fill="#EDFEE8"/>
<path opacity="0.2" d="M240.62 384.37C233.31 384.41 229.38 375.82 235.71 372.43C258.28 360.34 293.48 345.51 334.36 342.47C452.17 333.73 515.38 394.38 469.08 451.93C437.88 490.71 385.26 474.53 365.55 458.98C329.94 430.9 298.42 384.02 240.61 384.36L240.62 384.37Z" fill="#EDFEE8"/>
<path opacity="0.21" d="M241.98 384.09C234.74 384.13 230.84 375.61 237.12 372.25C259.49 360.27 294.39 345.56 334.92 342.55C451.71 333.88 514.38 394.01 468.48 451.07C437.55 489.52 385.38 473.48 365.84 458.06C330.53 430.22 299.28 383.74 241.98 384.09Z" fill="#EDFEE8"/>
<path opacity="0.22" d="M243.33 383.81C236.15 383.85 232.28 375.41 238.51 372.07C260.69 360.19 295.28 345.61 335.46 342.63C451.23 334.04 513.35 393.64 467.86 450.2C437.2 488.31 385.48 472.41 366.12 457.13C331.12 429.53 300.14 383.46 243.34 383.8L243.33 383.81Z" fill="#EDFEE8"/>
<path opacity="0.23" d="M244.69 383.53C237.57 383.57 233.74 375.2 239.91 371.9C261.89 360.13 296.18 345.67 336.01 342.72C450.77 334.2 512.34 393.29 467.25 449.35C436.86 487.13 385.6 471.37 366.4 456.22C331.71 428.87 301 383.2 244.7 383.53H244.69Z" fill="#EDFEE8"/>
<path opacity="0.24" d="M246.04 383.25C238.99 383.29 235.19 374.99 241.3 371.72C263.09 360.05 297.08 345.73 336.54 342.8C450.28 334.36 511.31 392.92 466.61 448.48C436.49 485.92 385.68 470.3 366.65 455.29C332.27 428.18 301.83 382.91 246.03 383.25H246.04Z" fill="#EDFEE8"/>
<path opacity="0.25" d="M247.4 382.97C240.41 383.01 236.65 374.79 242.7 371.54C264.29 359.98 297.98 345.78 337.09 342.88C449.81 334.51 510.3 392.55 466 447.62C436.15 484.73 385.79 469.25 366.94 454.37C332.86 427.5 302.7 382.64 247.39 382.97H247.4Z" fill="#EDFEE8"/>
<path opacity="0.26" d="M248.75 382.69C241.82 382.73 238.09 374.58 244.1 371.37C265.5 359.91 298.88 345.84 337.64 342.96C449.35 334.67 509.29 392.18 465.39 446.75C435.81 483.52 385.91 468.18 367.22 453.44C333.45 426.81 303.56 382.36 248.75 382.69Z" fill="#EDFEE8"/>
<path opacity="0.27" d="M250.11 382.41C243.24 382.45 239.55 374.37 245.5 371.19C266.7 359.83 299.78 345.89 338.19 343.04C448.88 334.82 508.27 391.81 464.78 445.89C435.46 482.33 386.02 467.13 367.5 452.52C334.04 426.14 304.42 382.08 250.11 382.41Z" fill="#EDFEE8"/>
<path opacity="0.28" d="M251.46 382.14C244.66 382.18 241 374.18 246.89 371.02C267.9 359.77 300.67 345.96 338.73 343.13C448.4 334.99 507.25 391.46 464.15 445.04C435.1 481.15 386.11 466.08 367.77 451.61C334.61 425.47 305.27 381.82 251.46 382.14Z" fill="#EDFEE8"/>
<path opacity="0.29" d="M252.82 381.86C246.08 381.9 242.45 373.97 248.29 370.84C269.11 359.69 301.57 346.01 339.28 343.21C447.94 335.14 506.24 391.09 463.54 444.17C434.76 479.94 386.23 465.02 368.05 450.68C335.2 424.78 306.13 381.54 252.82 381.86Z" fill="#EDFEE8"/>
<path opacity="0.3" d="M254.17 381.58C247.49 381.62 243.9 373.77 249.69 370.67C270.31 359.63 302.47 346.07 339.83 343.3C447.47 335.31 505.23 390.73 462.93 443.32C434.42 478.76 386.34 463.97 368.33 449.77C335.79 424.11 306.99 381.27 254.17 381.59V381.58Z" fill="#EDFEE8"/>
<path opacity="0.31" d="M255.53 381.3C248.92 381.34 245.36 373.56 251.09 370.49C271.52 359.55 303.38 346.12 340.38 343.38C447 335.47 504.22 390.36 462.32 442.45C434.08 477.55 386.45 462.91 368.62 448.83C336.39 423.42 307.86 380.98 255.54 381.3H255.53Z" fill="#EDFEE8"/>
<path opacity="0.32" d="M256.88 381.02C250.33 381.06 246.8 373.35 252.48 370.31C272.71 359.48 304.27 346.17 340.91 343.46C446.52 335.62 503.18 390 461.68 441.59C433.71 476.36 386.54 461.85 368.87 447.91C336.94 422.74 308.69 380.71 256.87 381.02H256.88Z" fill="#EDFEE8"/>
<path opacity="0.33" d="M258.24 380.74C251.75 380.78 248.26 373.15 253.88 370.14C273.92 359.41 305.17 346.24 341.46 343.54C446.05 335.78 502.17 389.63 461.07 440.72C433.37 475.15 386.65 460.79 369.15 446.98C337.53 422.05 309.55 380.42 258.23 380.73L258.24 380.74Z" fill="#EDFEE8"/>
<path opacity="0.34" d="M259.59 380.46C253.17 380.5 249.71 372.94 255.28 369.96C275.12 359.33 306.07 346.29 342.01 343.62C445.58 335.93 501.16 389.26 460.46 439.86C433.03 473.96 386.76 459.73 369.44 446.06C338.13 421.37 310.42 380.15 259.6 380.46H259.59Z" fill="#EDFEE8"/>
<path opacity="0.35" d="M260.95 380.18C254.59 380.22 251.17 372.73 256.68 369.78C276.33 359.26 306.97 346.34 342.56 343.7C445.12 336.09 500.15 388.89 459.85 438.99C432.69 472.75 386.88 458.67 369.72 445.13C338.72 420.68 311.27 379.87 260.95 380.17V380.18Z" fill="#EDFEE8"/>
<path opacity="0.36" d="M262.3 379.9C256 379.94 252.61 372.53 258.07 369.61C277.52 359.19 307.86 346.4 343.1 343.79C444.64 336.25 499.13 388.53 459.22 438.14C432.33 471.57 386.97 457.62 369.98 444.22C339.28 420.02 312.11 379.61 262.29 379.9H262.3Z" fill="#EDFEE8"/>
<path opacity="0.37" d="M263.66 379.62C257.43 379.66 254.07 372.32 259.47 369.43C278.73 359.12 308.77 346.46 343.65 343.87C444.17 336.41 498.12 388.17 458.61 437.27C431.99 470.36 387.08 456.56 370.27 443.29C339.88 419.33 312.98 379.32 263.66 379.62Z" fill="#EDFEE8"/>
<path opacity="0.38" d="M265.01 379.34C258.84 379.38 255.52 372.12 260.87 369.25C279.93 359.04 309.67 346.51 344.2 343.95C443.71 336.56 497.1 387.8 458 436.41C431.65 469.17 387.2 455.5 370.55 442.37C340.47 418.65 313.84 379.05 265.02 379.34H265.01Z" fill="#EDFEE8"/>
<path opacity="0.39" d="M266.37 379.06C260.26 379.1 256.97 371.91 262.27 369.08C281.14 358.98 310.57 346.57 344.75 344.03C443.24 336.72 496.09 387.43 457.39 435.55C431.31 467.97 387.31 454.45 370.83 441.45C341.05 417.97 314.7 378.78 266.38 379.07L266.37 379.06Z" fill="#EDFEE8"/>
<path opacity="0.4" d="M267.72 378.79C261.67 378.83 258.42 371.71 263.66 368.91C282.33 358.91 311.46 346.63 345.29 344.12C442.77 336.88 495.07 387.07 456.76 434.69C430.94 466.78 387.4 453.39 371.1 440.53C341.63 417.3 315.55 378.5 267.72 378.79Z" fill="#EDFEE8"/>
<path opacity="0.41" d="M269.08 378.51C263.1 378.54 259.88 371.51 265.06 368.73C283.54 358.83 312.36 346.69 345.83 344.2C442.29 337.04 494.05 386.7 456.14 433.83C430.59 465.58 387.51 452.34 371.37 439.61C342.21 416.62 316.4 378.23 269.07 378.51H269.08Z" fill="#EDFEE8"/>
<path opacity="0.42" d="M270.44 378.23C264.52 378.26 261.33 371.3 266.46 368.55C284.74 358.76 313.26 346.74 346.38 344.28C441.82 337.2 493.04 386.34 455.53 432.96C430.25 464.38 387.62 451.27 371.65 438.67C342.8 415.92 317.26 377.94 270.43 378.22L270.44 378.23Z" fill="#EDFEE8"/>
<path opacity="0.43" d="M271.79 377.95C265.93 377.98 262.78 371.1 267.86 368.38C285.95 358.69 314.16 346.8 346.93 344.37C441.36 337.36 492.02 385.98 454.92 432.11C429.91 463.2 387.73 450.23 371.94 437.76C343.39 415.25 318.13 377.67 271.8 377.95H271.79Z" fill="#EDFEE8"/>
<path opacity="0.44" d="M273.15 377.67C267.36 377.7 264.24 370.89 269.26 368.2C287.15 358.62 315.07 346.85 347.48 344.45C440.89 337.52 491.01 385.61 454.3 431.24C429.56 461.99 387.84 449.16 372.21 436.83C343.97 414.57 318.98 377.39 273.15 377.67Z" fill="#EDFEE8"/>
<path opacity="0.45" d="M274.5 377.39C268.77 377.42 265.68 370.68 270.65 368.02C288.35 358.54 315.96 346.9 348.02 344.53C440.41 337.67 489.99 385.24 453.68 430.38C429.21 460.8 387.94 448.11 372.48 435.91C344.55 413.89 319.83 377.12 274.5 377.39Z" fill="#EDFEE8"/>
<path opacity="0.46" d="M275.86 377.11C270.19 377.14 267.14 370.48 272.05 367.85C289.55 358.48 316.86 346.97 348.57 344.61C439.95 337.83 488.98 384.87 453.07 429.51C428.87 459.59 388.05 447.04 372.77 434.98C345.15 413.2 320.7 376.83 275.86 377.1V377.11Z" fill="#EDFEE8"/>
<path opacity="0.47" d="M277.21 376.83C271.61 376.86 268.59 370.27 273.45 367.67C290.76 358.4 317.76 347.02 349.12 344.69C439.48 337.98 487.97 384.51 452.46 428.65C428.53 458.4 388.17 445.99 373.05 434.06C345.73 412.52 321.56 376.56 277.22 376.83H277.21Z" fill="#EDFEE8"/>
<path opacity="0.48" d="M278.57 376.55C273.03 376.58 270.05 370.06 274.85 367.49C291.97 358.32 318.66 347.07 349.67 344.77C439.01 338.14 486.95 384.14 451.84 427.79C428.18 457.2 388.27 444.93 373.32 433.14C346.31 411.84 322.41 376.29 278.57 376.55Z" fill="#EDFEE8"/>
<path opacity="0.49" d="M279.92 376.27C274.44 376.3 271.49 369.86 276.24 367.32C293.16 358.26 319.55 347.13 350.2 344.86C438.53 338.3 485.92 383.78 451.21 426.93C427.82 456.01 388.36 443.88 373.59 432.22C346.89 411.17 323.25 376.01 279.92 376.27Z" fill="#EDFEE8"/>
<path opacity="0.5" d="M281.28 375.99C275.87 376.02 272.95 369.65 277.64 367.14C294.37 358.18 320.45 347.19 350.75 344.94C438.06 338.46 484.91 383.41 450.6 426.07C427.48 454.81 388.48 442.82 373.87 431.3C347.48 410.49 324.11 375.74 281.28 376V375.99Z" fill="#EDFEE8"/>
<path opacity="0.5" d="M282.63 375.71C277.28 375.74 274.4 369.45 279.04 366.96C295.57 358.11 321.36 347.24 351.3 345.02C437.59 338.61 483.9 383.04 449.99 425.2C427.14 453.61 388.59 441.76 374.15 430.37C348.06 409.8 324.97 375.46 282.63 375.71Z" fill="#EDFEE8"/>
<path opacity="0.51" d="M283.99 375.44C278.7 375.47 275.85 369.25 280.44 366.79C296.78 358.04 322.26 347.3 351.85 345.11C437.13 338.78 482.89 382.69 449.37 424.35C426.79 452.42 388.69 440.71 374.43 429.46C348.65 409.13 325.83 375.19 283.99 375.45V375.44Z" fill="#EDFEE8"/>
<path opacity="0.52" d="M285.34 375.16C280.11 375.19 277.3 369.04 281.83 366.62C297.97 357.98 323.15 347.36 352.39 345.19C436.65 338.94 481.86 382.32 448.75 423.48C426.43 451.22 388.8 439.65 374.7 428.52C349.23 408.44 326.68 374.9 285.34 375.15V375.16Z" fill="#EDFEE8"/>
<path opacity="0.53" d="M286.7 374.88C281.54 374.91 278.76 368.84 283.23 366.44C299.18 357.9 324.05 347.42 352.94 345.27C436.18 339.09 480.85 381.95 448.14 422.62C426.09 450.02 388.91 438.59 374.98 427.6C349.81 407.76 327.54 374.63 286.7 374.87V374.88Z" fill="#EDFEE8"/>
<path opacity="0.54" d="M288.05 374.6C282.95 374.63 280.2 368.63 284.63 366.26C300.38 357.82 324.95 347.47 353.49 345.35C435.72 339.25 479.84 381.58 447.53 421.75C425.75 448.82 389.02 437.53 375.27 426.67C350.41 407.07 328.41 374.35 288.07 374.59L288.05 374.6Z" fill="#EDFEE8"/>
<path opacity="0.55" d="M289.41 374.32C284.37 374.35 281.66 368.42 286.03 366.09C301.59 357.76 325.85 347.53 354.04 345.44C435.25 339.41 478.83 381.23 446.91 420.9C425.4 447.64 389.13 436.48 375.54 425.76C350.99 406.4 329.26 374.08 289.41 374.32Z" fill="#EDFEE8"/>
<path opacity="0.56" d="M290.76 374.04C285.79 374.07 283.11 368.22 287.42 365.91C302.78 357.68 326.75 347.58 354.57 345.52C434.76 339.57 477.8 380.86 446.28 420.03C425.04 446.43 389.22 435.42 375.8 424.83C351.56 405.72 330.1 373.8 290.75 374.04H290.76Z" fill="#EDFEE8"/>
<path opacity="0.57" d="M292.12 373.76C287.21 373.79 284.57 368.01 288.82 365.73C303.99 357.61 327.65 347.63 355.12 345.6C434.3 339.72 476.78 380.49 445.67 419.17C424.7 445.24 389.33 434.36 376.09 423.91C352.15 405.04 330.97 373.53 292.12 373.76Z" fill="#EDFEE8"/>
<path opacity="0.58" d="M293.47 373.48C288.62 373.51 286.01 367.81 290.21 365.56C305.18 357.54 328.54 347.7 355.66 345.68C433.82 339.88 475.76 380.12 445.05 418.31C424.35 444.04 389.44 433.31 376.36 422.99C352.73 404.36 331.82 373.25 293.47 373.48Z" fill="#EDFEE8"/>
<path opacity="0.59" d="M294.83 373.2C290.05 373.23 287.47 367.6 291.62 365.38C306.4 357.47 329.45 347.75 356.22 345.76C433.37 340.03 474.76 379.75 444.44 417.44C424.01 442.84 389.55 432.24 376.64 422.06C353.32 403.67 332.68 372.97 294.83 373.2Z" fill="#EDFEE8"/>
<path opacity="0.6" d="M296.18 372.92C291.46 372.95 288.92 367.39 293.01 365.2C307.59 357.39 330.34 347.8 356.76 345.84C432.89 340.19 473.74 379.39 443.82 416.58C423.66 441.64 389.65 431.19 376.92 421.14C353.91 402.99 333.54 372.7 296.18 372.92Z" fill="#EDFEE8"/>
<path opacity="0.61" d="M297.54 372.64C292.88 372.67 290.37 367.19 294.41 365.03C308.8 357.32 331.24 347.86 357.31 345.93C432.42 340.35 472.73 379.03 443.21 415.72C423.32 440.45 389.76 430.13 377.2 420.22C354.49 402.32 334.39 372.42 297.54 372.65V372.64Z" fill="#EDFEE8"/>
<path opacity="0.62" d="M298.89 372.37C294.3 372.4 291.82 366.99 295.8 364.86C309.99 357.26 332.13 347.93 357.85 346.02C431.95 340.52 471.7 378.67 442.59 414.87C422.97 439.26 389.87 429.09 377.47 419.31C355.07 401.65 335.24 372.16 298.89 372.38V372.37Z" fill="#EDFEE8"/>
<path opacity="0.63" d="M300.25 372.09C295.72 372.12 293.28 366.78 297.21 364.68C311.21 357.18 333.05 347.98 358.41 346.1C431.49 340.68 470.7 378.3 441.98 414C422.63 438.06 389.98 428.02 377.76 418.38C355.67 400.96 336.11 371.88 300.26 372.09H300.25Z" fill="#EDFEE8"/>
<path opacity="0.64" d="M301.6 371.81C297.13 371.84 294.72 366.58 298.6 364.5C312.41 357.11 333.94 348.03 358.94 346.18C431 340.83 469.67 377.93 441.35 413.14C422.27 436.86 390.07 426.97 378.02 417.45C356.23 400.27 336.95 371.59 301.6 371.81Z" fill="#EDFEE8"/>
<path opacity="0.65" d="M302.96 371.53C298.55 371.56 296.18 366.37 300 364.33C313.61 357.04 334.84 348.09 359.49 346.26C430.54 340.99 468.66 377.57 440.74 412.27C421.92 435.66 390.19 425.9 378.3 416.52C356.82 399.59 337.81 371.31 302.95 371.52L302.96 371.53Z" fill="#EDFEE8"/>
<path opacity="0.66" d="M304.31 371.25C299.97 371.27 297.63 366.17 301.39 364.15C314.81 356.97 335.73 348.15 360.03 346.34C430.06 341.14 467.64 377.2 440.12 411.41C421.57 434.46 390.29 424.85 378.58 415.6C357.41 398.91 338.67 371.04 304.31 371.24V371.25Z" fill="#EDFEE8"/>
<path opacity="0.67" d="M305.67 370.97C301.39 370.99 299.09 365.96 302.8 363.97C316.02 356.89 336.64 348.2 360.59 346.42C429.6 341.3 466.63 376.83 439.51 410.55C421.23 433.27 390.4 423.79 378.86 414.68C358 398.23 339.53 370.76 305.67 370.97Z" fill="#EDFEE8"/>
<path opacity="0.68" d="M307.02 370.69C302.8 370.71 300.53 365.75 304.19 363.8C317.22 356.82 337.53 348.26 361.13 346.51C429.13 341.46 465.61 376.47 438.89 409.69C420.88 432.07 390.51 422.74 379.13 413.76C358.57 397.55 340.38 370.49 307.02 370.69Z" fill="#EDFEE8"/>
<path opacity="0.69" d="M308.38 370.41C304.23 370.43 301.99 365.55 305.59 363.62C318.42 356.75 338.44 348.31 361.68 346.59C428.66 341.62 464.6 376.1 438.28 408.83C420.54 430.88 390.62 421.68 379.42 412.84C359.17 396.88 341.25 370.22 308.39 370.42L308.38 370.41Z" fill="#EDFEE8"/>
<path opacity="0.7" d="M309.73 370.13C305.64 370.15 303.44 365.34 306.98 363.44C319.62 356.67 339.33 348.36 362.22 346.67C428.18 341.77 463.58 375.74 437.66 407.96C420.19 429.68 390.72 420.62 379.69 411.91C359.75 396.19 342.1 369.94 309.73 370.13Z" fill="#EDFEE8"/>
<path opacity="0.71" d="M311.09 369.85C307.06 369.87 304.89 365.14 308.39 363.27C320.83 356.61 340.24 348.43 362.78 346.76C427.73 341.94 462.58 375.38 437.05 407.11C419.85 428.49 390.84 419.57 379.97 411C360.34 395.52 342.96 369.67 311.09 369.86V369.85Z" fill="#EDFEE8"/>
<path opacity="0.72" d="M312.44 369.57C308.48 369.59 306.34 364.93 309.78 363.09C322.03 356.53 341.13 348.48 363.31 346.83C427.24 342.08 461.54 375 436.42 406.23C419.49 427.28 390.93 418.5 380.24 410.06C360.91 394.82 343.81 369.38 312.44 369.57Z" fill="#EDFEE8"/>
<path opacity="0.73" d="M313.8 369.29C309.9 369.31 307.8 364.72 311.18 362.91C323.23 356.46 342.03 348.53 363.86 346.91C426.77 342.24 460.53 374.63 435.81 405.37C419.15 426.08 391.04 417.44 380.52 409.14C361.5 394.14 344.67 369.11 313.8 369.29Z" fill="#EDFEE8"/>
<path opacity="0.74" d="M315.15 369.02C311.31 369.04 309.24 364.53 312.57 362.74C324.43 356.39 342.92 348.59 364.4 347C426.3 342.41 459.51 374.27 435.19 404.51C418.8 424.89 391.15 416.39 380.79 408.22C362.08 393.47 345.52 368.83 315.15 369.02Z" fill="#EDFEE8"/>
<path opacity="0.75" d="M316.51 368.74C312.74 368.76 310.7 364.32 313.97 362.57C325.63 356.32 343.82 348.66 364.95 347.09C425.83 342.57 458.5 373.92 434.57 403.66C418.45 423.7 391.25 415.34 381.07 407.3C362.66 392.79 346.37 368.56 316.5 368.74H316.51Z" fill="#EDFEE8"/>
<path opacity="0.76" d="M317.86 368.46C314.15 368.48 312.15 364.11 315.37 362.39C326.84 356.25 344.73 348.71 365.5 347.17C425.37 342.73 457.49 373.55 433.96 402.79C418.11 422.5 391.36 414.28 381.35 406.37C363.25 392.1 347.23 368.28 317.86 368.45V368.46Z" fill="#EDFEE8"/>
<path opacity="0.77" d="M319.22 368.18C315.57 368.2 313.61 363.91 316.77 362.21C328.04 356.17 345.63 348.76 366.05 347.25C424.9 342.88 456.47 373.18 433.35 401.93C417.77 421.3 391.48 413.22 381.63 405.45C363.84 391.42 348.09 368 319.22 368.18Z" fill="#EDFEE8"/>
<path opacity="0.78" d="M320.57 367.9C316.98 367.92 315.05 363.7 318.16 362.04C329.24 356.11 346.52 348.82 366.59 347.33C424.42 343.04 455.45 372.81 432.73 401.07C417.41 420.11 391.58 412.17 381.91 404.53C364.43 390.75 348.95 367.73 320.58 367.9H320.57Z" fill="#EDFEE8"/>
<path opacity="0.79" d="M321.93 367.62C318.41 367.64 316.51 363.5 319.56 361.86C330.44 356.03 347.42 348.88 367.14 347.41C423.96 343.19 454.44 372.44 432.11 400.2C417.06 418.9 391.68 411.1 382.18 403.6C365 390.06 349.8 367.45 321.93 367.61V367.62Z" fill="#EDFEE8"/>
<path opacity="0.8" d="M323.28 367.34C319.82 367.36 317.96 363.29 320.96 361.68C331.65 355.96 348.32 348.93 367.69 347.49C423.49 343.35 453.43 372.08 431.5 399.34C416.72 417.71 391.8 410.04 382.46 402.68C365.59 389.38 350.66 367.17 323.28 367.34Z" fill="#EDFEE8"/>
<path opacity="0.81" d="M324.64 367.06C321.24 367.08 319.41 363.08 322.36 361.51C332.86 355.89 349.22 348.99 368.23 347.58C423.01 343.51 452.41 371.72 430.88 398.48C416.37 416.51 391.9 408.99 382.74 401.76C366.18 388.7 351.52 366.9 324.64 367.06Z" fill="#EDFEE8"/>
<path opacity="0.82" d="M325.99 366.78C322.66 366.8 320.86 362.88 323.75 361.33C334.05 355.81 350.12 349.04 368.77 347.66C422.54 343.67 451.39 371.35 430.26 397.62C416.02 415.32 392 407.93 383.01 400.84C366.76 388.03 352.37 366.63 325.99 366.79V366.78Z" fill="#EDFEE8"/>
<path opacity="0.83" d="M327.35 366.5C324.08 366.52 322.32 362.67 325.15 361.15C335.26 355.74 351.02 349.09 369.32 347.74C422.07 343.82 450.37 370.98 429.64 396.75C415.67 414.11 392.11 406.87 383.28 399.91C367.33 387.34 353.22 366.34 327.34 366.5H327.35Z" fill="#EDFEE8"/>
<path opacity="0.84" d="M328.7 366.22C325.49 366.24 323.76 362.46 326.55 360.98C336.46 355.67 351.92 349.16 369.87 347.83C421.6 343.99 449.36 370.63 429.03 395.9C415.33 412.93 392.22 405.82 383.57 399C367.93 386.67 354.09 366.08 328.71 366.23L328.7 366.22Z" fill="#EDFEE8"/>
<path opacity="0.85" d="M330.06 365.95C326.92 365.97 325.22 362.27 327.95 360.81C337.67 355.61 352.82 349.22 370.42 347.91C421.14 344.15 448.35 370.26 428.42 395.03C414.99 411.73 392.33 404.76 383.85 398.07C368.52 385.98 354.95 365.8 330.06 365.95Z" fill="#EDFEE8"/>
<path opacity="0.86" d="M331.41 365.67C328.33 365.69 326.67 362.06 329.34 360.63C338.86 355.53 353.71 349.27 370.96 347.99C420.66 344.3 447.33 369.89 427.8 394.17C414.64 410.53 392.44 403.7 384.12 397.14C369.09 385.29 355.8 365.51 331.41 365.66V365.67Z" fill="#EDFEE8"/>
<path opacity="0.87" d="M332.77 365.39C329.75 365.41 328.13 361.86 330.74 360.45C340.07 355.46 354.61 349.32 371.51 348.07C420.19 344.46 446.32 369.52 427.18 393.31C414.29 409.34 392.54 402.65 384.4 396.22C369.68 384.62 356.66 365.24 332.77 365.39Z" fill="#EDFEE8"/>
<path opacity="0.88" d="M334.12 365.11C331.17 365.13 329.57 361.65 332.13 360.28C341.26 355.39 355.5 349.39 372.05 348.16C419.72 344.62 445.29 369.16 426.56 392.45C413.94 408.14 392.64 401.59 384.67 395.3C370.26 383.94 357.51 364.97 334.12 365.11Z" fill="#EDFEE8"/>
<path opacity="0.89" d="M335.48 364.83C332.59 364.85 331.03 361.44 333.54 360.1C342.48 355.31 356.42 349.44 372.6 348.24C419.25 344.78 444.28 368.8 425.95 391.59C413.6 406.95 392.76 400.54 384.95 394.38C370.85 383.26 358.36 364.7 335.48 364.83Z" fill="#EDFEE8"/>
<path opacity="0.9" d="M336.83 364.55C334 364.57 332.48 361.24 334.93 359.92C343.67 355.24 357.31 349.49 373.14 348.32C418.77 344.93 443.26 368.43 425.33 390.72C413.25 405.74 392.86 399.47 385.23 393.45C371.43 382.57 359.22 364.41 336.83 364.55Z" fill="#EDFEE8"/>
<path opacity="0.91" d="M338.19 364.27C335.42 364.29 333.93 361.03 336.33 359.75C344.88 355.17 358.21 349.55 373.69 348.41C418.31 345.1 442.25 368.07 424.71 389.87C412.89 404.56 392.96 398.43 385.5 392.54C372.01 381.91 360.07 364.15 338.18 364.28L338.19 364.27Z" fill="#EDFEE8"/>
<path opacity="0.92" d="M339.54 363.99C336.84 364 335.38 360.82 337.72 359.57C346.07 355.1 359.1 349.61 374.23 348.48C417.83 345.24 441.23 367.69 424.09 388.99C412.54 403.34 393.07 397.35 385.77 391.6C372.59 381.21 360.92 363.86 339.53 363.98L339.54 363.99Z" fill="#EDFEE8"/>
<path opacity="0.93" d="M340.9 363.71C338.26 363.72 336.84 360.62 339.13 359.39C347.29 355.02 360.01 349.66 374.79 348.56C417.37 345.4 440.22 367.32 423.49 388.13C412.21 402.15 393.19 396.3 386.07 390.68C373.2 380.53 361.8 363.58 340.91 363.71H340.9Z" fill="#EDFEE8"/>
<path opacity="0.94" d="M342.25 363.43C339.67 363.44 338.28 360.41 340.52 359.22C348.48 354.96 360.9 349.72 375.33 348.65C416.9 345.56 439.2 366.97 422.87 387.27C411.86 400.95 393.29 395.24 386.34 389.76C373.77 379.85 362.65 363.31 342.26 363.43H342.25Z" fill="#EDFEE8"/>
<path opacity="0.95" d="M343.61 363.15C341.1 363.16 339.74 360.21 341.92 359.04C349.69 354.88 361.81 349.77 375.88 348.73C416.43 345.72 438.19 366.6 422.25 386.41C411.51 399.76 393.4 394.19 386.61 388.84C374.35 379.18 363.5 363.04 343.6 363.16L343.61 363.15Z" fill="#EDFEE8"/>
<path opacity="0.96" d="M344.96 362.87C342.51 362.88 341.19 360 343.31 358.86C350.88 354.8 362.7 349.82 376.42 348.81C415.96 345.88 437.17 366.23 421.63 385.54C411.16 398.55 393.5 393.12 386.89 387.91C374.94 378.49 364.36 362.75 344.96 362.87Z" fill="#EDFEE8"/>
<path opacity="0.97" d="M346.32 362.6C343.93 362.61 342.65 359.8 344.72 358.69C352.1 354.74 363.61 349.89 376.97 348.9C415.49 346.04 436.16 365.87 421.02 384.69C410.82 397.37 393.61 392.08 387.17 386.99C375.53 377.81 365.22 362.48 346.32 362.59V362.6Z" fill="#EDFEE8"/>
<path opacity="0.98" d="M347.67 362.32C345.35 362.33 344.09 359.6 346.11 358.52C353.3 354.67 364.5 349.95 377.51 348.98C415.01 346.2 435.13 365.5 420.4 383.83C410.47 396.17 393.72 391.02 387.44 386.07C376.1 377.13 366.07 362.21 347.67 362.32Z" fill="#EDFEE8"/>
<path opacity="0.99" d="M349.03 362.04C346.77 362.05 345.55 359.39 347.51 358.34C354.5 354.6 365.4 350 378.06 349.06C414.55 346.35 434.12 365.14 419.78 382.96C410.12 394.97 393.82 389.96 387.72 385.14C376.69 376.44 366.93 361.92 349.03 362.03V362.04Z" fill="#EDFEE8"/>
<path d="M350.38 361.76C348.18 361.77 347 359.19 348.9 358.16C355.7 354.52 366.29 350.05 378.6 349.14C414.07 346.51 433.1 364.77 419.16 382.1C409.77 393.78 393.92 388.9 387.99 384.22C377.27 375.77 367.78 361.65 350.37 361.76H350.38Z" fill="#EDFEE8"/>
</g>
<path d="M205.95 382.51C205.95 382.51 256.96 330.54 330.22 316.64C451.45 293.63 524.48 354.29 483.45 423.79C455.8 470.62 399.19 458.46 376.84 443.31C329.66 411.35 285.15 350.13 205.95 382.51Z" fill="#8AF969"/>
<path d="M207.55 381.61C281.21 344.84 329.94 411.12 377.12 443.07C393.32 454.05 426.18 463.6 454.3 450.14C425.68 466.39 389.22 456.9 372.27 445.57C325.16 414.1 268.19 349.54 208.26 384.6C200.13 389.36 192.77 408.37 205.68 425.04L203.92 426.79C191.4 412.48 195.66 395.57 203.46 385.46C204.62 383.96 205.89 382.42 207.56 381.59L207.55 381.61Z" fill="black"/>
<path d="M325.15 317.68C325.15 317.68 341.06 318.16 346.26 317.44C350.78 316.82 363.98 312.25 363.98 312.25V275.31C363.98 275.31 356.06 271.77 344.56 271.77C334.18 271.77 325.14 276.15 325.14 276.15V317.69L325.15 317.68Z" fill="#8AF969"/>
<path d="M330.36 274.14C330.36 274.14 335.69 271.98 345.23 271.76C349.84 271.65 358.77 273.58 358.77 273.58V242.23C358.77 242.23 352.98 239.64 344.56 239.64C336.96 239.64 330.36 242.84 330.36 242.84V274.14Z" fill="#8AF969"/>
<path d="M335.03 241.05C335.03 241.05 338.58 239.86 344.98 239.64C348.07 239.53 354.1 240.76 354.1 240.76V0H344.57C339.47 0 335.04 0.14 335.04 0.14V241.05H335.03Z" fill="#8AF969"/>
<g opacity="0.27">
<path opacity="0.02" d="M237.32 759.67C239.44 762.89 236.77 767.11 233.45 765.28C221.59 758.77 204.88 747.47 191.75 730.24C153.92 680.61 162.55 635.14 201.37 639.05C227.53 641.68 235.54 669.64 234.34 682.85C232.17 706.71 220.5 734.18 237.32 759.67Z" fill="#8DF96E"/>
<path opacity="0.03" d="M236.87 759.23C238.98 762.43 236.33 766.62 233.03 764.8C221.26 758.34 204.67 747.12 191.64 730.02C154.09 680.76 162.65 635.63 201.19 639.51C227.16 642.12 235.11 669.88 233.91 682.98C231.76 706.66 220.18 733.93 236.87 759.23Z" fill="#8DF96E"/>
<path opacity="0.04" d="M236.43 758.78C238.52 761.95 235.89 766.11 232.62 764.31C220.94 757.9 204.47 746.76 191.54 729.8C154.27 680.91 162.771 636.12 201.021 639.97C226.791 642.56 234.681 670.11 233.501 683.11C231.371 706.62 219.871 733.67 236.441 758.78H236.43Z" fill="#8DF96E"/>
<path opacity="0.05" d="M235.98 758.33C238.06 761.48 235.44 765.61 232.19 763.82C220.6 757.46 204.26 746.41 191.42 729.57C154.44 681.05 162.87 636.6 200.82 640.42C226.4 642.99 234.23 670.33 233.05 683.24C230.93 706.57 219.52 733.42 235.96 758.34L235.98 758.33Z" fill="#8DF96E"/>
<path opacity="0.06" d="M235.54 757.88C237.6 761.01 235.01 765.1 231.78 763.33C220.28 757.02 204.06 746.05 191.33 729.34C154.63 681.19 163 637.08 200.66 640.87C226.04 643.42 233.81 670.55 232.65 683.36C230.55 706.51 219.23 733.16 235.54 757.89V757.88Z" fill="#8DF96E"/>
<path opacity="0.07" d="M235.09 757.43C237.14 760.53 234.56 764.59 231.36 762.84C219.95 756.58 203.85 745.69 191.22 729.11C154.8 681.33 163.11 637.56 200.48 641.32C225.67 643.85 233.37 670.77 232.22 683.48C230.13 706.45 218.9 732.89 235.09 757.43Z" fill="#8DF96E"/>
<path opacity="0.08" d="M234.64 756.98C236.67 760.06 234.12 764.09 230.94 762.34C219.61 756.13 203.65 745.33 191.11 728.87C154.97 681.46 163.21 638.03 200.3 641.76C225.29 644.27 232.94 670.98 231.79 683.6C229.72 706.39 218.57 732.63 234.64 756.98Z" fill="#8DF96E"/>
<path opacity="0.09" d="M234.2 756.53C236.21 759.58 233.68 763.58 230.53 761.85C219.29 755.68 203.45 744.97 191.01 728.64C155.16 681.61 163.33 638.51 200.13 642.21C224.93 644.7 232.51 671.2 231.38 683.72C229.33 706.33 218.27 732.37 234.21 756.52L234.2 756.53Z" fill="#8DF96E"/>
<path opacity="0.1" d="M233.75 756.08C235.75 759.11 233.23 763.08 230.11 761.36C218.96 755.24 203.24 744.61 190.9 728.42C155.33 681.76 163.44 639 199.95 642.67C224.55 645.14 232.08 671.44 230.95 683.85C228.91 706.29 217.94 732.11 233.75 756.08Z" fill="#8DF96E"/>
<path opacity="0.11" d="M233.31 755.63C235.29 758.64 232.8 762.57 229.7 760.87C218.64 754.8 203.05 744.26 190.8 728.19C155.51 681.9 163.56 639.48 199.77 643.13C224.17 645.59 231.64 671.67 230.52 683.98C228.5 706.24 217.61 731.86 233.3 755.64L233.31 755.63Z" fill="#8DF96E"/>
<path opacity="0.12" d="M232.86 755.18C234.83 758.16 232.35 762.07 229.28 760.38C218.31 754.36 202.84 743.9 190.69 727.96C155.68 682.04 163.67 639.96 199.59 643.58C223.8 646.02 231.21 671.89 230.1 684.11C228.1 706.19 217.3 731.61 232.86 755.19V755.18Z" fill="#8DF96E"/>
<path opacity="0.13" d="M232.42 754.73C234.37 757.69 231.92 761.56 228.87 759.88C217.99 753.91 202.64 743.53 190.6 727.72C155.88 682.17 163.8 640.43 199.43 644.02C223.44 646.44 230.79 672.1 229.69 684.22C227.7 706.12 216.99 731.33 232.43 754.73H232.42Z" fill="#8DF96E"/>
<path opacity="0.14" d="M231.97 754.28C233.9 757.21 231.47 761.06 228.44 759.39C217.65 753.47 202.43 743.17 190.48 727.49C156.04 682.31 163.89 640.91 199.24 644.47C223.06 646.87 230.35 672.32 229.26 684.34C227.29 706.06 216.66 731.07 231.97 754.28Z" fill="#8DF96E"/>
<path opacity="0.15" d="M231.53 753.83C233.45 756.74 231.04 760.55 228.03 758.9C217.32 753.03 202.23 742.82 190.38 727.26C156.22 682.45 164.01 641.39 199.07 644.92C222.69 647.3 229.92 672.54 228.84 684.47C226.88 706.02 216.35 730.82 231.53 753.83Z" fill="#8DF96E"/>
<path opacity="0.16" d="M231.08 753.38C232.98 756.27 230.59 760.04 227.61 758.41C216.99 752.58 202.02 742.46 190.27 727.04C156.39 682.6 164.12 641.88 198.88 645.38C222.31 647.74 229.48 672.78 228.4 684.6C226.46 705.97 216.01 730.56 231.07 753.39L231.08 753.38Z" fill="#8DF96E"/>
<path opacity="0.17" d="M230.64 752.93C232.53 755.79 230.15 759.54 227.2 757.92C216.67 752.14 201.83 742.1 190.17 726.81C156.58 682.74 164.24 642.36 198.71 645.83C221.94 648.17 229.05 673 227.99 684.72C226.07 705.91 215.7 730.3 230.64 752.93Z" fill="#8DF96E"/>
<path opacity="0.18" d="M230.19 752.48C232.06 755.32 229.71 759.03 226.78 757.42C216.34 751.69 201.62 741.74 190.06 726.57C156.75 682.87 164.35 642.83 198.53 646.27C221.57 648.59 228.62 673.21 227.56 684.83C225.65 705.84 215.38 730.03 230.19 752.47V752.48Z" fill="#8DF96E"/>
<path opacity="0.19" d="M229.75 752.03C231.6 754.84 229.27 758.53 226.37 756.93C216.02 751.25 201.42 741.38 189.96 726.34C156.93 683.01 164.46 643.31 198.36 646.72C221.2 649.02 228.19 673.43 227.14 684.96C225.25 705.79 215.06 729.77 229.74 752.03H229.75Z" fill="#8DF96E"/>
<path opacity="0.2" d="M229.3 751.58C231.14 754.37 228.83 758.02 225.95 756.44C215.69 750.81 201.22 741.02 189.86 726.11C157.11 683.15 164.58 643.79 198.19 647.18C220.84 649.46 227.77 673.66 226.73 685.09C224.86 705.74 214.75 729.52 229.31 751.58H229.3Z" fill="#8DF96E"/>
<path opacity="0.21" d="M228.86 751.13C230.68 753.89 228.39 757.52 225.54 755.95C215.37 750.37 201.02 740.67 189.76 725.88C157.3 683.29 164.7 644.27 198.02 647.63C220.47 649.89 227.34 673.88 226.31 685.21C224.45 705.69 214.44 729.26 228.87 751.13H228.86Z" fill="#8DF96E"/>
<path opacity="0.22" d="M228.41 750.68C230.22 753.42 227.94 757.01 225.12 755.46C215.03 749.93 200.81 740.31 189.65 725.66C157.47 683.44 164.81 644.77 197.83 648.09C220.08 650.33 226.9 674.11 225.88 685.35C224.04 705.65 214.11 729.01 228.42 750.7L228.41 750.68Z" fill="#8DF96E"/>
<path opacity="0.23" d="M227.97 750.23C229.76 752.95 227.51 756.5 224.7 754.96C214.7 749.47 200.61 739.94 189.54 725.42C157.64 683.57 164.92 645.24 197.65 648.53C219.71 650.75 226.46 674.33 225.45 685.46C223.62 705.58 213.78 728.74 227.96 750.23H227.97Z" fill="#8DF96E"/>
<path opacity="0.24" d="M227.52 749.78C229.3 752.47 227.06 756 224.28 754.47C214.37 749.03 200.4 739.58 189.43 725.19C157.81 683.72 165.02 645.72 197.47 648.98C219.33 651.18 226.03 674.55 225.02 685.58C223.21 705.52 213.46 728.48 227.51 749.78H227.52Z" fill="#8DF96E"/>
<path opacity="0.25" d="M227.08 749.34C228.84 752.01 226.63 755.5 223.87 753.99C214.05 748.6 200.2 739.24 189.33 724.97C158 683.87 165.14 646.21 197.3 649.44C218.97 651.62 225.6 674.78 224.61 685.71C222.82 705.47 213.15 728.22 227.08 749.33V749.34Z" fill="#8DF96E"/>
<path opacity="0.26" d="M226.63 748.89C228.37 751.53 226.18 755 223.45 753.5C213.72 748.16 200 738.88 189.22 724.74C158.17 684.01 165.25 646.69 197.12 649.89C218.59 652.05 225.17 675 224.18 685.84C222.4 705.43 212.82 727.97 226.63 748.89Z" fill="#8DF96E"/>
<path opacity="0.27" d="M226.19 748.44C227.92 751.06 225.74 754.49 223.04 753.01C213.4 747.72 199.8 738.52 189.13 724.51C158.36 684.15 165.38 647.17 196.95 650.34C218.23 652.48 224.74 675.22 223.76 685.96C222 705.37 212.51 727.71 226.18 748.44H226.19Z" fill="#8DF96E"/>
<path opacity="0.28" d="M225.74 747.99C227.45 750.59 225.3 753.99 222.62 752.51C213.07 747.27 199.6 738.16 189.02 724.28C158.53 684.29 165.49 647.65 196.77 650.79C217.85 652.91 224.31 675.44 223.34 686.08C221.59 705.31 212.19 727.44 225.74 747.98V747.99Z" fill="#8DF96E"/>
<path opacity="0.29" d="M225.3 747.54C227 750.11 224.86 753.48 222.21 752.02C212.74 746.83 199.4 737.8 188.92 724.05C158.72 684.43 165.6 648.13 196.6 651.25C217.49 653.35 223.88 675.67 222.92 686.22C221.19 705.27 211.87 727.2 225.3 747.55V747.54Z" fill="#8DF96E"/>
<path opacity="0.3" d="M224.85 747.09C226.53 749.64 224.42 752.98 221.79 751.53C212.41 746.38 199.19 737.44 188.81 723.82C158.89 684.57 165.71 648.61 196.42 651.7C217.11 653.78 223.44 675.9 222.5 686.34C220.79 705.21 211.56 726.94 224.86 747.1L224.85 747.09Z" fill="#8DF96E"/>
<path opacity="0.31" d="M224.41 746.64C226.07 749.16 223.98 752.47 221.38 751.04C212.09 745.94 199 737.09 188.71 723.59C159.07 684.71 165.83 649.09 196.25 652.15C216.75 654.21 223.02 676.12 222.08 686.46C220.38 705.15 211.24 726.67 224.42 746.64H224.41Z" fill="#8DF96E"/>
<path opacity="0.32" d="M223.96 746.19C225.61 748.69 223.53 751.96 220.96 750.55C211.76 745.5 198.79 736.73 188.6 723.36C159.24 684.85 165.94 649.57 196.07 652.6C216.37 654.64 222.58 676.34 221.65 686.58C219.97 705.1 210.91 726.41 223.96 746.19Z" fill="#8DF96E"/>
<path opacity="0.33" d="M223.52 745.74C225.15 748.22 223.1 751.46 220.54 750.05C211.43 745.05 198.58 736.36 188.49 723.12C159.42 684.98 166.05 650.04 195.88 653.04C215.99 655.06 222.14 676.55 221.22 686.7C219.56 705.04 210.59 726.15 223.51 745.73L223.52 745.74Z" fill="#8DF96E"/>
<path opacity="0.34" d="M223.07 745.29C224.69 747.74 222.65 750.95 220.12 749.56C211.1 744.61 198.38 736 188.39 722.9C159.6 685.13 166.17 650.53 195.71 653.5C215.62 655.5 221.71 676.78 220.8 686.83C219.15 704.99 210.27 725.89 223.07 745.29Z" fill="#8DF96E"/>
<path opacity="0.35" d="M222.63 744.84C224.23 747.27 222.22 750.45 219.71 749.07C210.78 744.17 198.18 735.65 188.29 722.67C159.78 685.27 166.28 651.01 195.54 653.95C215.25 655.93 221.29 677 220.38 686.95C218.75 704.93 209.95 725.63 222.63 744.84Z" fill="#8DF96E"/>
<path opacity="0.36" d="M222.18 744.39C223.76 746.79 221.77 749.94 219.29 748.58C210.44 743.73 197.97 735.29 188.18 722.44C159.95 685.41 166.39 651.49 195.36 654.4C214.88 656.36 220.85 677.23 219.96 687.08C218.34 704.88 209.64 725.38 222.18 744.39Z" fill="#8DF96E"/>
<path opacity="0.37" d="M221.74 743.94C223.31 746.32 221.34 749.44 218.88 748.09C210.12 743.28 197.78 734.93 188.08 722.21C160.14 685.55 166.51 651.97 195.19 654.85C214.51 656.79 220.43 677.45 219.54 687.2C217.94 704.82 209.32 725.11 221.74 743.94Z" fill="#8DF96E"/>
<path opacity="0.38" d="M221.29 743.49C222.84 745.85 220.89 748.93 218.46 747.59C209.79 742.83 197.57 734.57 187.97 721.97C160.31 685.68 166.62 652.44 195 655.3C214.13 657.22 219.98 677.67 219.11 687.32C217.53 704.77 208.99 724.85 221.29 743.49Z" fill="#8DF96E"/>
<path opacity="0.39" d="M220.85 743.04C222.39 745.37 220.45 748.43 218.05 747.1C209.47 742.39 197.37 734.21 187.87 721.74C160.49 685.83 166.74 652.92 194.83 655.75C213.76 657.65 219.56 677.89 218.69 687.44C217.12 704.71 208.68 724.59 220.85 743.03V743.04Z" fill="#8DF96E"/>
<path opacity="0.4" d="M220.4 742.59C221.92 744.9 220.01 747.92 217.63 746.61C209.14 741.95 197.17 733.85 187.76 721.52C160.67 685.98 166.84 653.41 194.65 656.21C213.39 658.09 219.12 678.12 218.26 687.58C216.71 704.67 208.35 724.34 220.4 742.6V742.59Z" fill="#8DF96E"/>
<path opacity="0.41" d="M219.96 742.14C221.47 744.42 219.57 747.41 217.22 746.12C208.82 741.51 196.97 733.5 187.67 721.29C160.86 686.12 166.97 653.89 194.49 656.66C213.03 658.53 218.71 678.34 217.86 687.7C216.33 704.61 208.05 724.08 219.97 742.14H219.96Z" fill="#8DF96E"/>
<path opacity="0.42" d="M219.51 741.69C221 743.95 219.13 746.91 216.79 745.63C208.48 741.07 196.75 733.14 187.55 721.06C161.02 686.26 167.07 654.37 194.3 657.11C212.65 658.96 218.26 678.56 217.42 687.82C215.9 704.55 207.72 723.82 219.51 741.69Z" fill="#8DF96E"/>
<path opacity="0.43" d="M219.07 741.24C220.54 743.47 218.69 746.4 216.38 745.13C208.15 740.62 196.56 732.77 187.45 720.82C161.2 686.39 167.19 654.84 194.12 657.55C212.27 659.38 217.83 678.78 216.99 687.94C215.49 704.5 207.39 723.55 219.06 741.24H219.07Z" fill="#8DF96E"/>
<path opacity="0.44" d="M218.62 740.79C220.08 743 218.24 745.9 215.96 744.64C207.82 740.18 196.35 732.41 187.34 720.59C161.38 686.53 167.3 655.32 193.94 658C211.9 659.81 217.39 679 216.57 688.06C215.08 704.44 207.07 723.29 218.62 740.78V740.79Z" fill="#8DF96E"/>
<path opacity="0.45" d="M218.18 740.34C219.62 742.53 217.81 745.39 215.55 744.15C207.5 739.73 196.15 732.06 187.24 720.36C161.56 686.67 167.41 655.8 193.77 658.45C211.53 660.24 216.97 679.22 216.15 688.18C214.68 704.38 206.76 723.03 218.17 740.33L218.18 740.34Z" fill="#8DF96E"/>
<path opacity="0.46" d="M217.73 739.89C219.16 742.05 217.36 744.89 215.13 743.66C207.17 739.29 195.95 731.7 187.13 720.14C161.73 686.82 167.52 656.29 193.59 658.91C211.15 660.68 216.53 679.45 215.73 688.31C214.28 704.33 206.44 722.77 217.73 739.89Z" fill="#8DF96E"/>
<path opacity="0.47" d="M217.29 739.45C218.7 741.59 216.93 744.39 214.72 743.18C206.85 738.86 195.75 731.35 187.03 719.92C161.91 686.97 167.64 656.78 193.42 659.38C210.79 661.13 216.11 679.69 215.31 688.46C213.87 704.3 206.12 722.54 217.29 739.46V739.45Z" fill="#8DF96E"/>
<path opacity="0.48" d="M216.84 739C218.23 741.11 216.48 743.88 214.3 742.68C206.52 738.41 195.54 730.99 186.93 719.68C162.1 687.1 167.76 657.25 193.25 659.82C210.42 661.55 215.68 679.9 214.89 688.57C213.47 704.23 205.81 722.27 216.85 739H216.84Z" fill="#8DF96E"/>
<path opacity="0.49" d="M216.4 738.55C217.78 740.64 216.04 743.38 213.89 742.19C206.2 737.97 195.35 730.63 186.83 719.45C162.28 687.24 167.88 657.73 193.07 660.27C210.05 661.98 215.25 680.12 214.47 688.69C213.06 704.18 205.49 722 216.41 738.54L216.4 738.55Z" fill="#8DF96E"/>
<path opacity="0.5" d="M215.95 738.1C217.31 740.17 215.6 742.87 213.47 741.7C205.86 737.53 195.14 730.27 186.72 719.22C162.45 687.38 167.99 658.21 192.89 660.72C209.67 662.41 214.81 680.35 214.04 688.82C212.65 704.13 205.16 721.75 215.95 738.1Z" fill="#8DF96E"/>
<path opacity="0.5" d="M215.51 737.65C216.86 739.69 215.16 742.37 213.05 741.21C205.53 737.09 194.93 729.92 186.61 718.99C162.62 687.52 168.09 658.69 192.71 661.17C209.3 662.84 214.38 680.57 213.61 688.94C212.24 704.07 204.84 721.49 215.5 737.65H215.51Z" fill="#8DF96E"/>
<path opacity="0.51" d="M215.06 737.2C216.39 739.22 214.72 741.86 212.63 740.72C205.2 736.64 194.73 729.56 186.5 718.77C162.8 687.67 168.2 659.18 192.53 661.63C208.92 663.28 213.94 680.8 213.19 689.07C211.83 704.02 204.52 721.23 215.06 737.2Z" fill="#8DF96E"/>
<path opacity="0.52" d="M214.62 736.75C215.93 738.74 214.28 741.36 212.22 740.22C204.88 736.19 194.53 729.19 186.4 718.53C162.98 687.8 168.32 659.65 192.36 662.07C208.56 663.7 213.51 681.01 212.77 689.18C211.43 703.95 204.2 720.96 214.62 736.74V736.75Z" fill="#8DF96E"/>
<path opacity="0.53" d="M214.17 736.3C215.47 738.27 213.84 740.85 211.8 739.73C204.55 735.75 194.32 728.83 186.29 718.3C163.15 687.95 168.43 660.13 192.17 662.52C208.17 664.13 213.07 681.23 212.34 689.31C211.02 703.91 203.88 720.71 214.16 736.3H214.17Z" fill="#8DF96E"/>
<path opacity="0.54" d="M213.73 735.85C215.01 737.8 213.4 740.35 211.39 739.24C204.23 735.31 194.13 728.48 186.2 718.07C163.34 688.09 168.56 660.61 192.01 662.97C207.82 664.56 212.65 681.45 211.93 689.43C210.62 703.85 203.57 720.44 213.73 735.84V735.85Z" fill="#8DF96E"/>
<path opacity="0.55" d="M213.281 735.4C214.551 737.32 212.951 739.84 210.971 738.75C203.901 734.87 193.921 728.12 186.091 717.84C163.521 688.23 168.661 661.1 191.831 663.43C207.441 665 212.221 681.69 211.501 689.56C210.211 703.8 203.241 720.19 213.281 735.4Z" fill="#8DF96E"/>
<path opacity="0.56" d="M212.84 734.95C214.09 736.85 212.52 739.33 210.56 738.26C203.57 734.43 193.72 727.76 185.99 717.62C163.7 688.38 168.78 661.59 191.66 663.89C207.08 665.44 211.79 681.92 211.09 689.7C209.81 703.76 202.94 719.95 212.85 734.97L212.84 734.95Z" fill="#8DF96E"/>
<path opacity="0.57" d="M212.39 734.5C213.62 736.37 212.07 738.83 210.14 737.77C203.24 733.99 193.52 727.41 185.88 717.39C163.87 688.52 168.89 662.07 191.48 664.34C206.7 665.87 211.36 682.14 210.66 689.82C209.4 703.7 202.61 719.68 212.4 734.51L212.39 734.5Z" fill="#8DF96E"/>
<path opacity="0.58" d="M211.95 734.05C213.17 735.9 211.64 738.32 209.73 737.27C202.92 733.53 193.32 727.04 185.78 717.15C164.05 688.65 169.01 662.54 191.31 664.78C206.33 666.29 210.93 682.35 210.24 689.93C209 703.63 202.29 719.41 211.95 734.05Z" fill="#8DF96E"/>
<path opacity="0.59" d="M211.5 733.6C212.7 735.43 211.19 737.82 209.3 736.78C202.58 733.09 193.1 726.68 185.66 716.92C164.22 688.79 169.11 663.02 191.11 665.23C205.94 666.72 210.48 682.57 209.8 690.06C208.57 703.59 201.96 719.16 211.49 733.6H211.5Z" fill="#8DF96E"/>
<path opacity="0.6" d="M211.06 733.15C212.25 734.95 210.75 737.31 208.89 736.29C202.26 732.65 192.91 726.33 185.57 716.69C164.41 688.93 169.23 663.5 190.95 665.68C205.58 667.15 210.06 682.79 209.39 690.18C208.18 703.53 201.65 718.89 211.06 733.15Z" fill="#8DF96E"/>
<path opacity="0.61" d="M210.61 732.7C211.78 734.48 210.31 736.81 208.47 735.8C201.93 732.21 192.7 725.97 185.46 716.46C164.58 689.07 169.34 663.98 190.77 666.13C205.21 667.58 209.63 683.01 208.96 690.3C207.77 703.47 201.32 718.63 210.61 732.7Z" fill="#8DF96E"/>
<path opacity="0.62" d="M210.17 732.25C211.33 734 209.87 736.3 208.06 735.31C201.61 731.77 192.5 725.61 185.36 716.24C164.76 689.22 169.46 664.47 190.6 666.59C204.84 668.02 209.2 683.25 208.55 690.43C207.37 703.42 201.02 718.38 210.17 732.25Z" fill="#8DF96E"/>
<path opacity="0.63" d="M209.72 731.8C210.86 733.53 209.43 735.8 207.64 734.81C201.27 731.32 192.3 725.24 185.25 716C164.94 689.35 169.57 664.94 190.42 667.03C204.47 668.44 208.77 683.46 208.12 690.55C206.96 703.36 200.69 718.11 209.72 731.8Z" fill="#8DF96E"/>
<path opacity="0.64" d="M209.28 731.35C210.4 733.05 208.99 735.29 207.23 734.32C200.95 730.88 192.1 724.89 185.15 715.77C165.12 689.49 169.69 665.42 190.24 667.49C204.09 668.88 208.33 683.69 207.7 690.68C206.55 703.31 200.37 717.86 209.28 731.36V731.35Z" fill="#8DF96E"/>
<path opacity="0.65" d="M208.83 730.9C209.94 732.58 208.54 734.78 206.81 733.83C200.62 730.43 191.89 724.53 185.04 715.54C165.29 689.63 169.79 665.9 190.06 667.94C203.72 669.31 207.9 683.91 207.27 690.8C206.14 703.26 200.05 717.6 208.83 730.9Z" fill="#8DF96E"/>
<path opacity="0.66" d="M208.39 730.45C209.48 732.11 208.11 734.28 206.4 733.34C200.3 729.99 191.7 724.17 184.94 715.31C165.47 689.77 169.91 666.38 189.89 668.39C203.35 669.74 207.47 684.13 206.85 690.93C205.74 703.21 199.73 717.34 208.38 730.46L208.39 730.45Z" fill="#8DF96E"/>
<path opacity="0.67" d="M207.94 730C209.02 731.63 207.66 733.77 205.98 732.85C199.97 729.55 191.49 723.82 184.84 715.08C165.66 689.91 170.03 666.86 189.72 668.84C202.99 670.17 207.05 684.35 206.44 691.05C205.34 703.15 199.42 717.08 207.95 730H207.94Z" fill="#8DF96E"/>
<path opacity="0.68" d="M207.5 729.56C208.56 731.17 207.23 733.28 205.57 732.36C199.65 729.11 191.29 723.46 184.74 714.86C165.84 690.07 170.15 667.35 189.55 669.3C202.62 670.61 206.62 684.58 206.02 691.18C204.94 703.1 199.11 716.83 207.51 729.56H207.5Z" fill="#8DF96E"/>
<path opacity="0.69" d="M207.05 729.11C208.09 730.69 206.78 732.77 205.14 731.87C199.31 728.67 191.08 723.1 184.62 714.63C166 690.21 170.25 667.83 189.35 669.75C202.22 671.04 206.17 684.81 205.57 691.3C204.5 703.04 198.76 716.56 207.04 729.11H207.05Z" fill="#8DF96E"/>
<path opacity="0.7" d="M206.61 728.66C207.64 730.22 206.34 732.27 204.73 731.38C198.98 728.23 190.88 722.75 184.52 714.4C166.18 690.35 170.37 668.31 189.18 670.2C201.86 671.47 205.74 685.03 205.16 691.43C204.11 703 198.45 716.31 206.61 728.66Z" fill="#8DF96E"/>
<path opacity="0.71" d="M206.16 728.21C207.17 729.75 205.9 731.76 204.31 730.89C198.65 727.79 190.67 722.39 184.41 714.17C166.36 690.49 170.47 668.79 189 670.65C201.48 671.91 205.31 685.25 204.73 691.55C203.7 702.94 198.13 716.05 206.15 728.21H206.16Z" fill="#8DF96E"/>
<path opacity="0.72" d="M205.72 727.76C206.72 729.27 205.46 731.26 203.9 730.4C198.33 727.34 190.48 722.03 184.31 713.94C166.54 690.63 170.59 669.27 188.83 671.1C201.12 672.34 204.88 685.47 204.32 691.67C203.3 702.88 197.82 715.78 205.72 727.76Z" fill="#8DF96E"/>
<path opacity="0.73" d="M205.27 727.31C206.25 728.8 205.02 730.75 203.48 729.9C198 726.89 190.27 721.66 184.2 713.7C166.71 690.76 170.7 669.74 188.65 671.55C200.74 672.77 204.45 685.69 203.89 691.8C202.89 702.83 197.5 715.53 205.27 727.31Z" fill="#8DF96E"/>
<path opacity="0.74" d="M204.82 726.86C205.78 728.32 204.57 730.24 203.06 729.41C197.67 726.45 190.07 721.31 184.1 713.48C166.89 690.91 170.82 670.23 188.48 672.01C200.38 673.21 204.02 685.92 203.47 691.93C202.49 702.78 197.18 715.28 204.83 726.87L204.82 726.86Z" fill="#8DF96E"/>
<path opacity="0.75" d="M204.38 726.41C205.33 727.85 204.14 729.74 202.65 728.92C197.35 726.01 189.87 720.95 184 713.25C167.08 691.05 170.94 670.71 188.3 672.46C200 673.64 203.58 686.15 203.05 692.05C202.08 702.72 196.86 715.01 204.38 726.41Z" fill="#8DF96E"/>
<path opacity="0.76" d="M203.93 725.96C204.86 727.38 203.69 729.23 202.23 728.43C197.02 725.57 189.66 720.59 183.89 713.02C167.25 691.19 171.04 671.19 188.12 672.91C199.63 674.07 203.15 686.37 202.62 692.17C201.67 702.67 196.54 714.75 203.93 725.96Z" fill="#8DF96E"/>
<path opacity="0.77" d="M203.491 725.51C204.411 726.9 203.251 728.73 201.821 727.94C196.691 725.13 189.47 720.24 183.79 712.79C167.43 691.33 171.16 671.67 187.95 673.36C199.26 674.5 202.721 686.59 202.201 692.3C201.261 702.62 196.221 714.5 203.491 725.52V725.51Z" fill="#8DF96E"/>
<path opacity="0.78" d="M203.04 725.06C203.94 726.43 202.81 728.22 201.39 727.44C196.35 724.68 189.25 719.87 183.67 712.55C167.59 691.46 171.26 672.14 187.76 673.8C198.88 674.92 202.28 686.8 201.77 692.41C200.85 702.55 195.89 714.22 203.04 725.05V725.06Z" fill="#8DF96E"/>
<path opacity="0.79" d="M202.6 724.61C203.49 725.95 202.37 727.72 200.98 726.95C196.03 724.23 189.05 719.51 183.57 712.32C167.78 691.6 171.38 672.62 187.59 674.25C198.51 675.35 201.85 687.02 201.35 692.53C200.45 702.49 195.58 713.96 202.6 724.6V724.61Z" fill="#8DF96E"/>
<path opacity="0.8" d="M202.15 724.16C203.02 725.48 201.93 727.21 200.56 726.46C195.7 723.79 188.85 719.16 183.46 712.1C167.95 691.75 171.49 673.11 187.4 674.71C198.13 675.79 201.41 687.25 200.92 692.67C200.03 702.45 195.25 713.72 202.14 724.17L202.15 724.16Z" fill="#8DF96E"/>
<path opacity="0.81" d="M201.71 723.71C202.56 725.01 201.49 726.7 200.15 725.97C195.38 723.35 188.65 718.8 183.37 711.87C168.14 691.89 171.61 673.59 187.24 675.16C197.77 676.22 200.99 687.47 200.51 692.79C199.64 702.4 194.94 713.45 201.71 723.71Z" fill="#8DF96E"/>
<path opacity="0.82" d="M201.26 723.26C202.1 724.53 201.04 726.2 199.73 725.48C195.05 722.91 188.44 718.44 183.26 711.64C168.31 692.03 171.72 674.07 187.06 675.62C197.39 676.66 200.56 687.71 200.08 692.92C199.23 702.35 194.62 713.2 201.26 723.27V723.26Z" fill="#8DF96E"/>
<path opacity="0.83" d="M200.82 722.81C201.64 724.06 200.61 725.69 199.32 724.98C194.73 722.46 188.25 718.07 183.16 711.4C168.5 692.16 171.84 674.54 186.89 676.06C197.03 677.08 200.13 687.92 199.67 693.03C198.83 702.28 194.31 712.93 200.83 722.8L200.82 722.81Z" fill="#8DF96E"/>
<path opacity="0.84" d="M200.37 722.36C201.18 723.58 200.16 725.19 198.9 724.49C194.39 722.02 188.04 717.72 183.05 711.17C168.67 692.31 171.95 675.02 186.71 676.51C196.65 677.51 199.7 688.14 199.24 693.16C198.42 702.23 193.98 712.67 200.37 722.36Z" fill="#8DF96E"/>
<path opacity="0.85" d="M199.93 721.91C200.72 723.11 199.73 724.68 198.49 724C194.07 721.58 187.84 717.36 182.95 710.94C168.85 692.45 172.07 675.5 186.54 676.96C196.29 677.94 199.27 688.36 198.82 693.28C198.01 702.17 193.67 712.41 199.93 721.91Z" fill="#8DF96E"/>
<path opacity="0.86" d="M199.48 721.46C200.25 722.63 199.28 724.18 198.07 723.51C193.74 721.13 187.64 717 182.84 710.72C169.03 692.6 172.17 675.99 186.35 677.42C195.9 678.38 198.83 688.59 198.39 693.41C197.6 702.12 193.34 712.16 199.48 721.46Z" fill="#8DF96E"/>
<path opacity="0.87" d="M199.04 721.01C199.8 722.16 198.84 723.67 197.65 723.02C193.41 720.69 187.43 716.65 182.73 710.49C169.2 692.74 172.28 676.47 186.17 677.87C195.53 678.81 198.39 688.81 197.96 693.54C197.19 702.08 193.01 711.9 199.03 721.02L199.04 721.01Z" fill="#8DF96E"/>
<path opacity="0.88" d="M198.59 720.56C199.33 721.69 198.4 723.17 197.23 722.52C193.08 720.24 187.22 716.28 182.63 710.25C169.38 692.87 172.4 676.94 186 678.31C195.16 679.23 197.97 689.02 197.55 693.65C196.79 702.01 192.71 711.63 198.6 720.56H198.59Z" fill="#8DF96E"/>
<path opacity="0.89" d="M198.15 720.11C198.88 721.21 197.96 722.66 196.82 722.03C192.76 719.8 187.03 715.92 182.53 710.02C169.56 693.01 172.52 677.42 185.83 678.76C194.8 679.66 197.54 689.25 197.13 693.77C196.39 701.95 192.39 711.37 198.15 720.1V720.11Z" fill="#8DF96E"/>
<path opacity="0.9" d="M197.7 719.67C198.41 720.75 197.52 722.16 196.4 721.55C192.43 719.37 186.82 715.58 182.42 709.8C169.74 693.16 172.63 677.92 185.65 679.22C194.42 680.1 197.11 689.48 196.7 693.9C195.97 701.9 192.06 711.11 197.7 719.66V719.67Z" fill="#8DF96E"/>
<path opacity="0.91" d="M197.26 719.22C197.95 720.27 197.08 721.66 195.99 721.06C192.1 718.93 186.62 715.22 182.32 709.57C169.92 693.3 172.75 678.4 185.47 679.68C194.05 680.54 196.67 689.71 196.28 694.04C195.57 701.86 191.75 710.87 197.26 719.22Z" fill="#8DF96E"/>
<path opacity="0.92" d="M196.81 718.77C197.49 719.8 196.64 721.15 195.57 720.57C191.77 718.49 186.42 714.86 182.21 709.35C170.09 693.45 172.85 678.89 185.29 680.14C193.67 680.98 196.24 689.94 195.85 694.17C195.16 701.82 191.42 710.62 196.81 718.78V718.77Z" fill="#8DF96E"/>
<path opacity="0.93" d="M196.37 718.32C197.03 719.33 196.2 720.65 195.16 720.07C191.45 718.03 186.22 714.49 182.11 709.11C170.27 693.58 172.97 679.36 185.12 680.58C193.3 681.4 195.81 690.15 195.43 694.28C194.75 701.75 191.1 710.34 196.36 718.32H196.37Z" fill="#8DF96E"/>
<path opacity="0.94" d="M195.92 717.87C196.57 718.85 195.75 720.14 194.74 719.58C191.12 717.59 186.01 714.14 182 708.88C170.45 693.72 173.08 679.84 184.94 681.03C192.93 681.83 195.38 690.37 195.01 694.41C194.35 701.7 190.79 710.09 195.92 717.87Z" fill="#8DF96E"/>
<path opacity="0.95" d="M195.48 717.42C196.11 718.38 195.32 719.64 194.33 719.09C190.8 717.15 185.82 713.78 181.91 708.65C170.64 693.86 173.21 680.32 184.78 681.48C192.57 682.26 194.96 690.6 194.6 694.53C193.96 701.64 190.48 709.83 195.49 717.42H195.48Z" fill="#8DF96E"/>
<path opacity="0.96" d="M195.03 716.97C195.65 717.9 194.87 719.13 193.9 718.6C190.46 716.71 185.6 713.42 181.79 708.42C170.8 694 173.31 680.8 184.59 681.93C192.19 682.69 194.52 690.82 194.17 694.65C193.54 701.58 190.15 709.56 195.04 716.97H195.03Z" fill="#8DF96E"/>
<path opacity="0.97" d="M194.59 716.52C195.19 717.43 194.44 718.63 193.49 718.11C190.14 716.27 185.4 713.07 181.69 708.19C170.98 694.14 173.42 681.28 184.41 682.38C191.81 683.12 194.08 691.04 193.74 694.77C193.13 701.52 189.83 709.3 194.58 716.51L194.59 716.52Z" fill="#8DF96E"/>
<path opacity="0.98" d="M194.14 716.07C194.72 716.96 193.99 718.12 193.07 717.61C189.8 715.82 185.2 712.7 181.58 707.96C171.16 694.28 173.53 681.76 184.23 682.83C191.44 683.55 193.65 691.26 193.31 694.9C192.71 701.48 189.5 709.05 194.13 716.07H194.14Z" fill="#8DF96E"/>
<path opacity="0.99" d="M193.7 715.62C194.27 716.48 193.551 717.61 192.661 717.12C189.481 715.38 185 712.34 181.48 707.73C171.34 694.43 173.65 682.24 184.06 683.28C191.07 683.98 193.22 691.48 192.9 695.02C192.32 701.42 189.19 708.78 193.7 715.62Z" fill="#8DF96E"/>
<path d="M193.25 715.17C193.8 716.01 193.11 717.11 192.24 716.63C189.15 714.93 184.79 711.99 181.37 707.5C171.51 694.57 173.76 682.72 183.88 683.74C190.7 684.42 192.78 691.71 192.47 695.15C191.91 701.37 188.87 708.53 193.25 715.17Z" fill="#8DF96E"/>
</g>
<path d="M237.2 766.4C237.2 766.4 204.61 759.83 181.04 735.27C142.04 694.62 147.05 651.57 183.86 649.95C208.67 648.86 218.11 673.55 217.89 685.88C217.42 711.89 205.08 744.17 237.2 766.41V766.4Z" fill="#8AF969"/>
<path d="M236.46 766.01C204.04 746.99 217.26 711.84 217.73 685.82C217.9 676.89 213.36 661.93 201.21 654.53C214.56 661.43 220.01 677.74 219.9 687.05C219.6 712.91 209.09 750.79 237.44 764.99C241.4 766.97 250.94 764.88 253.82 755.06C253.94 754.66 254.93 755.07 254.9 755.2C252.86 764.3 244.99 767.09 238.97 766.61C238.11 766.54 237.2 766.44 236.47 766.01H236.46Z" fill="black"/>
<path d="M350.983 656C331.117 653.711 311.25 651.445 291.395 649.078C289.219 648.823 287.088 648.123 284.979 647.489C276.895 645.034 276.619 644.99 277.182 636.423C278.077 622.791 278.441 609.014 280.749 595.604C284.327 574.827 295.426 563.673 313.194 560.351C317.589 559.528 321.012 560.128 324.59 563.584C340.47 578.861 362.711 578.783 378.635 563.462C382.048 560.184 385.327 559.551 389.546 560.262C403.847 562.639 414.536 570.317 418.744 584.16C422.255 595.693 423.581 607.948 425.292 619.958C426.121 625.769 425.116 631.846 425.867 637.679C426.673 643.945 423.779 646.078 418.435 647.501C396.348 653.367 373.776 654.133 351.16 654.622L350.983 656Z" fill="black"/>
<path d="M351.836 475C369.202 475.033 382.787 487.074 385.648 504.787C386.036 507.164 387.089 509.508 388.209 511.675C390.25 515.6 388.087 527.608 384.616 531.599C383.097 533.335 381.977 535.436 380.757 537.415C377.297 543.032 374.636 549.334 370.311 554.177C359.709 566.041 344.417 565.786 333.35 554.343C332.962 553.945 332.396 553.679 332.141 553.215C326.574 543.441 320.575 533.866 315.706 523.76C313.599 519.381 312.745 513.82 317.325 509.419C318.046 508.723 317.802 506.965 317.913 505.693C319.521 488.069 333.993 474.978 351.847 475.011L351.836 475Z" fill="black"/>
<path d="M443.98 633.722C442.618 611.511 442.06 589.167 431 569.117C435.129 565.94 438.768 562.83 442.741 560.216C444.259 559.224 446.591 558.86 448.455 559.047C461.144 560.316 470.709 566.79 474.024 578.822C477.215 590.391 478.722 602.544 479.648 614.544C480.72 628.241 480.117 628.407 466.468 631.042C459.917 632.311 453.254 633.05 446.625 633.976C445.944 634.075 445.207 633.844 443.968 633.7L443.98 633.722Z" fill="black"/>
<path d="M270 567.964C266.92 580.282 263.446 591.983 261.196 603.927C259.645 612.15 259.558 620.681 259.295 629.091C259.153 633.362 257.668 634.584 253.67 633.758C245.139 631.997 236.532 630.621 228.066 628.595C226.384 628.188 223.905 625.502 224.003 624.016C224.931 610.179 225.325 596.166 227.902 582.605C230.24 570.243 238.585 562.02 251.409 559.433C255.483 558.608 259.088 558.674 262.332 562.24C264.724 564.871 268.099 566.588 270 567.953V567.964Z" fill="black"/>
<path d="M398.011 543.464C403.626 535.187 406.773 526.264 406.24 516.596C405.962 511.637 404.549 506.6 402.859 501.882C401.336 497.612 402.081 495.203 406.217 493.079C422.596 484.693 442.967 494.229 446.325 512.107C447.326 517.461 450.206 523.713 448.438 528.07C444.224 538.46 440.577 549.671 430.736 556.941C427.356 559.437 424.687 560.083 421.251 556.492C418.271 553.372 414.357 550.974 410.521 548.85C406.718 546.748 402.503 545.369 398 543.486L398.011 543.464Z" fill="black"/>
<path d="M304 542.117C295.496 547.806 287.415 553.341 279.145 558.602C278.112 559.259 275.722 559.062 274.71 558.306C271.52 555.895 268.107 553.417 265.829 550.239C262.038 544.967 258.926 539.212 255.769 533.524C251.111 525.128 256.169 505.465 264.895 497.376C273.843 489.079 287.471 487.697 297.864 493.66C301.166 495.556 301.866 497.902 300.41 500.872C293.129 515.801 296.808 529.6 304 542.128V542.117Z" fill="black"/>
</g>
<defs>
<linearGradient id="paint0_linear_634_7620" x1="649.08" y1="841.68" x2="737.9" y2="841.68" gradientUnits="userSpaceOnUse">
<stop offset="0.03" stop-color="#37DD00"/>
<stop offset="1" stop-color="#8AF969"/>
</linearGradient>
<linearGradient id="paint1_linear_634_7620" x1="5.28096e-06" y1="834.34" x2="1.00001" y2="834.34" gradientUnits="userSpaceOnUse">
<stop offset="0.03" stop-color="#37DD00"/>
<stop offset="1" stop-color="#8AF969"/>
</linearGradient>
<linearGradient id="paint2_linear_634_7620" x1="673.39" y1="833.56" x2="711.17" y2="833.56" gradientUnits="userSpaceOnUse">
<stop offset="0.03" stop-color="#37DD00"/>
<stop offset="1" stop-color="#8AF969"/>
</linearGradient>
<linearGradient id="paint3_linear_634_7620" x1="673.39" y1="828.72" x2="711.17" y2="828.72" gradientUnits="userSpaceOnUse">
<stop offset="0.03" stop-color="#37DD00"/>
<stop offset="1" stop-color="#8AF969"/>
</linearGradient>
<radialGradient id="paint4_radial_634_7620" cx="0" cy="0" r="1" gradientUnits="userSpaceOnUse" gradientTransform="translate(415.54 499.127) rotate(38.79) scale(120.25 80.5675)">
<stop stop-color="white"/>
<stop offset="1" stop-color="white"/>
</radialGradient>
<linearGradient id="paint5_linear_634_7620" x1="88.82" y1="844.56" x2="0" y2="844.56" gradientUnits="userSpaceOnUse">
<stop offset="0.03" stop-color="#37DD00"/>
<stop offset="1" stop-color="#8AF969"/>
</linearGradient>
<linearGradient id="paint6_linear_634_7620" x1="88.82" y1="837.22" x2="0" y2="837.22" gradientUnits="userSpaceOnUse">
<stop offset="0.03" stop-color="#37DD00"/>
<stop offset="1" stop-color="#8AF969"/>
</linearGradient>
<linearGradient id="paint7_linear_634_7620" x1="64.5002" y1="836.44" x2="26.7202" y2="836.44" gradientUnits="userSpaceOnUse">
<stop offset="0.03" stop-color="#37DD00"/>
<stop offset="1" stop-color="#8AF969"/>
</linearGradient>
<linearGradient id="paint8_linear_634_7620" x1="64.5002" y1="831.6" x2="26.7202" y2="831.6" gradientUnits="userSpaceOnUse">
<stop offset="0.03" stop-color="#37DD00"/>
<stop offset="1" stop-color="#8AF969"/>
</linearGradient>
<linearGradient id="paint9_linear_634_7620" x1="193.45" y1="726.85" x2="154.35" y2="726.85" gradientUnits="userSpaceOnUse">
<stop offset="0.03" stop-color="#37DD00"/>
<stop offset="1" stop-color="#8AF969"/>
</linearGradient>
<linearGradient id="paint10_linear_634_7620" x1="168.57" y1="744.74" x2="137.46" y2="744.74" gradientUnits="userSpaceOnUse">
<stop offset="0.03" stop-color="#37DD00"/>
<stop offset="1" stop-color="#8AF969"/>
</linearGradient>
<linearGradient id="paint11_linear_634_7620" x1="147.33" y1="790.24" x2="33.8101" y2="790.24" gradientUnits="userSpaceOnUse">
<stop offset="0.03" stop-color="#37DD00"/>
<stop offset="1" stop-color="#8AF969"/>
</linearGradient>
<linearGradient id="paint12_linear_634_7620" x1="544.45" y1="723.97" x2="583.55" y2="723.97" gradientUnits="userSpaceOnUse">
<stop offset="0.03" stop-color="#37DD00"/>
<stop offset="1" stop-color="#8AF969"/>
</linearGradient>
<linearGradient id="paint13_linear_634_7620" x1="569.32" y1="741.86" x2="600.44" y2="741.86" gradientUnits="userSpaceOnUse">
<stop offset="0.03" stop-color="#37DD00"/>
<stop offset="1" stop-color="#8AF969"/>
</linearGradient>
<linearGradient id="paint14_linear_634_7620" x1="590.56" y1="787.36" x2="704.09" y2="787.36" gradientUnits="userSpaceOnUse">
<stop offset="0.03" stop-color="#37DD00"/>
<stop offset="1" stop-color="#8AF969"/>
</linearGradient>
<clipPath id="clip0_634_7620">
<rect width="737.9" height="851.9" fill="white"/>
</clipPath>
</defs>
</svg>
