<svg width="361" height="361" viewBox="0 0 361 361" fill="none" xmlns="http://www.w3.org/2000/svg">
<path d="M317.99 95.1855L243.957 74.0332L222.805 0H74.7383C57.215 0 43.0098 14.2052 43.0098 31.7285V329.271C43.0098 346.795 57.215 361 74.7383 361H286.262C303.785 361 317.99 346.795 317.99 329.271V95.1855Z" fill="#8AF969"/>
<path d="M317.99 95.1855V329.271C317.99 346.795 303.785 361 286.262 361H180.5V0H222.805L243.957 74.0332L317.99 95.1855Z" fill="#54D62D"/>
<path d="M317.99 95.1855H243.957C232.323 95.1855 222.805 85.667 222.805 74.0332V0C225.554 0 228.304 1.05762 230.207 3.17356L314.817 87.7829C316.933 89.6859 317.99 92.4357 317.99 95.1855Z" fill="#8AF969"/>
<path d="M243.957 169.924H117.043C111.197 169.924 106.467 165.193 106.467 159.348C106.467 153.502 111.197 148.771 117.043 148.771H243.957C249.803 148.771 254.533 153.502 254.533 159.348C254.533 165.193 249.803 169.924 243.957 169.924Z" fill="#FFF5F5"/>
<path d="M243.957 212.229H117.043C111.197 212.229 106.467 207.498 106.467 201.652C106.467 195.807 111.197 191.076 117.043 191.076H243.957C249.803 191.076 254.533 195.807 254.533 201.652C254.533 207.498 249.803 212.229 243.957 212.229Z" fill="#FFF5F5"/>
<path d="M243.957 254.533H117.043C111.197 254.533 106.467 249.803 106.467 243.957C106.467 238.111 111.197 233.381 117.043 233.381H243.957C249.803 233.381 254.533 238.111 254.533 243.957C254.533 249.803 249.803 254.533 243.957 254.533Z" fill="#FFF5F5"/>
<path d="M201.652 296.838H117.043C111.197 296.838 106.467 292.108 106.467 286.262C106.467 280.416 111.197 275.686 117.043 275.686H201.652C207.498 275.686 212.229 280.416 212.229 286.262C212.229 292.108 207.498 296.838 201.652 296.838Z" fill="#FFF5F5"/>
<path d="M180.5 296.838H201.652C207.498 296.838 212.229 292.108 212.229 286.262C212.229 280.416 207.498 275.686 201.652 275.686H180.5V296.838Z" fill="#E3E7EA"/>
<path d="M180.5 254.533H243.957C249.803 254.533 254.533 249.803 254.533 243.957C254.533 238.111 249.803 233.381 243.957 233.381H180.5V254.533Z" fill="#E3E7EA"/>
<path d="M180.5 212.229H243.957C249.803 212.229 254.533 207.498 254.533 201.652C254.533 195.807 249.803 191.076 243.957 191.076H180.5V212.229Z" fill="#E3E7EA"/>
<path d="M180.5 169.924H243.957C249.803 169.924 254.533 165.193 254.533 159.348C254.533 153.502 249.803 148.771 243.957 148.771H180.5V169.924Z" fill="#E3E7EA"/>
</svg>
