<svg width="273" height="273" viewBox="0 0 273 273" fill="none" xmlns="http://www.w3.org/2000/svg">
<path d="M68.5747 210.6V222.95C68.5747 224.587 69.2232 226.161 70.3839 227.316C71.539 228.477 73.1133 229.125 74.7499 229.125H198.25C199.886 229.125 201.461 228.477 202.616 227.316C203.776 226.161 204.425 224.587 204.425 222.95V210.6C204.425 192.588 197.268 175.31 184.529 162.571C171.79 149.832 154.512 142.675 136.5 142.675C118.488 142.675 101.21 149.832 88.4705 162.571C75.7316 175.31 68.5747 192.588 68.5747 210.6Z" fill="#8AF969"/>
<path d="M13.0001 229.125H57.287C56.5895 227.162 56.2249 225.074 56.2249 222.95V210.6C56.2249 196.497 59.936 182.776 66.815 170.747C61.6589 168.573 55.9966 167.375 50.0497 167.375C26.1776 167.375 6.82495 186.728 6.82495 210.6V222.95C6.82495 226.359 9.59128 229.125 13.0001 229.125Z" fill="#8AF969"/>
<path d="M222.95 167.375C217.003 167.375 211.341 168.573 206.185 170.747C213.064 182.776 216.775 196.497 216.775 210.6V222.95C216.775 225.074 216.41 227.162 215.713 229.125H260C263.409 229.125 266.175 226.359 266.175 222.95V210.6C266.175 186.728 246.822 167.375 222.95 167.375Z" fill="#8AF969"/>
<path d="M71.6249 146.239C83.7993 134.303 83.9928 114.758 72.0571 102.584C60.1214 90.4095 40.5763 90.216 28.4019 102.152C16.2275 114.087 16.034 133.633 27.9697 145.807C39.9054 157.981 59.4505 158.175 71.6249 146.239Z" fill="#8AF969"/>
<path d="M244.565 146.305C256.741 134.368 256.934 114.821 244.998 102.646C233.061 90.47 213.514 90.2765 201.339 102.213C189.163 114.15 188.97 133.697 200.906 145.872C212.843 158.048 232.39 158.241 244.565 146.305Z" fill="#8AF969"/>
<path d="M143.342 129.72C166.904 125.924 182.927 103.747 179.132 80.185C175.336 56.6233 153.159 40.5998 129.597 44.3954C106.035 48.1911 90.0118 70.3686 93.8074 93.9302C97.6031 117.492 119.781 133.515 143.342 129.72Z" fill="#8AF969"/>
</svg>
