<svg width="421" height="424" viewBox="0 0 421 424" fill="none" xmlns="http://www.w3.org/2000/svg">
<g clip-path="url(#clip0_196_88)">
<path d="M190.733 107.406C122.176 107.406 66.6001 163.246 66.6001 232.129C66.6001 301.012 122.176 356.852 190.733 356.852L197.497 232.129L190.733 107.406Z" fill="#87F467"/>
<path d="M314.868 232.129C314.868 163.246 259.292 107.406 190.734 107.406V356.853C259.291 356.852 314.868 301.012 314.868 232.129Z" fill="#87F467"/>
<path d="M190.734 174.297C158.944 174.297 133.173 200.19 133.173 232.131C133.173 264.071 158.944 289.964 190.734 289.964L193.87 232.131L190.734 174.297Z" fill="black"/>
<path d="M248.295 232.131C248.295 200.19 222.524 174.297 190.734 174.297V289.965C222.524 289.964 248.295 264.071 248.295 232.131Z" fill="black"/>
<path d="M24.668 232.13C24.668 140.126 99.1652 65.2754 190.734 65.2754L198.958 52.8828L190.734 40.4902C139.788 40.4902 91.8898 60.4241 55.8647 96.6204C19.8396 132.816 0 180.941 0 232.13C0 283.319 19.8396 331.444 55.8639 367.639C91.8898 403.836 139.788 423.77 190.734 423.77L198.958 411.377L190.734 398.984C99.1652 398.984 24.668 324.134 24.668 232.13Z" fill="#87F467"/>
<path d="M325.603 96.6204C289.578 60.4241 241.681 40.4902 190.734 40.4902V65.2754C282.303 65.2754 356.8 140.126 356.8 232.13C356.8 324.134 282.303 398.984 190.734 398.984V423.77C241.681 423.77 289.579 403.836 325.603 367.639C361.627 331.443 381.467 283.319 381.467 232.13C381.467 180.941 361.628 132.816 325.603 96.6204Z" fill="#87F467"/>
<g filter="url(#filter0_d_196_88)">
<path d="M370.46 51.5491L366.67 13.57C366.194 8.80631 363.03 4.7432 358.542 3.13465C354.055 1.52691 349.045 2.65794 345.676 6.0436L280.218 71.8135C277.601 74.4424 276.298 78.113 276.668 81.8126L281.464 129.875C281.757 132.808 283.058 135.434 285.015 137.402L340.976 98.7004L370.46 51.5491Z" fill="#87F467"/>
</g>
<g filter="url(#filter1_d_196_88)">
<path d="M408.259 55.3567L370.459 51.5488L285.014 137.401C286.971 139.368 289.585 140.675 292.505 140.97L340.34 145.789C340.751 145.83 341.161 145.851 341.571 145.851C344.824 145.851 347.967 144.556 350.291 142.221L415.75 76.4513C419.119 73.0657 420.247 68.0334 418.645 63.5234C417.043 59.0133 413 55.835 408.259 55.3567Z" fill="#87F467"/>
</g>
<path d="M417.387 4.39932C412.571 -0.440398 404.761 -0.440398 399.944 4.39932L182.013 223.366C177.196 228.206 177.196 236.052 182.013 240.892L308.249 124.46L417.387 4.39932Z" fill="#21BF73"/>
<path d="M182.013 240.891C184.421 243.311 187.578 244.521 190.734 244.521C193.891 244.521 197.048 243.311 199.455 240.892L417.387 21.924C422.204 17.0843 422.204 9.23815 417.387 4.39844L182.013 240.891Z" fill="#097B44"/>
</g>
<defs>
<filter id="filter0_d_196_88" x="272.606" y="2.41406" width="101.854" height="142.988" filterUnits="userSpaceOnUse" color-interpolation-filters="sRGB">
<feFlood flood-opacity="0" result="BackgroundImageFix"/>
<feColorMatrix in="SourceAlpha" type="matrix" values="0 0 0 0 0 0 0 0 0 0 0 0 0 0 0 0 0 0 127 0" result="hardAlpha"/>
<feOffset dy="4"/>
<feGaussianBlur stdDeviation="2"/>
<feComposite in2="hardAlpha" operator="out"/>
<feColorMatrix type="matrix" values="0 0 0 0 0 0 0 0 0 0 0 0 0 0 0 0 0 0 0.25 0"/>
<feBlend mode="normal" in2="BackgroundImageFix" result="effect1_dropShadow_196_88"/>
<feBlend mode="normal" in="SourceGraphic" in2="effect1_dropShadow_196_88" result="shape"/>
</filter>
<filter id="filter1_d_196_88" x="281.014" y="51.5488" width="142.349" height="102.301" filterUnits="userSpaceOnUse" color-interpolation-filters="sRGB">
<feFlood flood-opacity="0" result="BackgroundImageFix"/>
<feColorMatrix in="SourceAlpha" type="matrix" values="0 0 0 0 0 0 0 0 0 0 0 0 0 0 0 0 0 0 127 0" result="hardAlpha"/>
<feOffset dy="4"/>
<feGaussianBlur stdDeviation="2"/>
<feComposite in2="hardAlpha" operator="out"/>
<feColorMatrix type="matrix" values="0 0 0 0 0 0 0 0 0 0 0 0 0 0 0 0 0 0 0.25 0"/>
<feBlend mode="normal" in2="BackgroundImageFix" result="effect1_dropShadow_196_88"/>
<feBlend mode="normal" in="SourceGraphic" in2="effect1_dropShadow_196_88" result="shape"/>
</filter>
<clipPath id="clip0_196_88">
<rect width="421" height="423" fill="white" transform="translate(0 0.769531)"/>
</clipPath>
</defs>
</svg>
