<svg width="512" height="512" viewBox="0 0 512 512" fill="none" xmlns="http://www.w3.org/2000/svg">
<g clip-path="url(#clip0_632_7584)">
<path d="M231.961 68.3711C115.06 68.3711 20.293 163.138 20.293 280.039C20.293 396.94 115.06 491.707 231.961 491.707L243.493 280.039L231.961 68.3711Z" fill="white"/>
<path d="M443.629 280.039C443.629 163.138 348.862 68.3711 231.961 68.3711V491.707C348.863 491.707 443.629 396.94 443.629 280.039Z" fill="white"/>
<path d="M231.961 129.074C148.585 129.074 80.9961 196.663 80.9961 280.039C80.9961 363.415 148.585 431.004 231.961 431.004L240.186 280.039L231.961 129.074Z" fill="#87F467"/>
<path d="M382.927 280.039C382.927 196.663 315.338 129.074 231.962 129.074V431.005C315.337 431.004 382.927 363.415 382.927 280.039Z" fill="#87F467"/>
<path d="M231.961 210.037C193.3 210.037 161.959 241.378 161.959 280.039C161.959 318.7 193.3 350.041 231.961 350.041L235.775 280.039L231.961 210.037Z" fill="white"/>
<path d="M301.964 280.039C301.964 241.378 270.623 210.037 231.962 210.037V350.042C270.623 350.041 301.964 318.7 301.964 280.039Z" fill="white"/>
<path d="M30 280.039C30 168.677 120.6 78.0779 231.962 78.0779L241.963 63.0779L231.962 48.0779C170.003 48.0779 111.752 72.2059 67.94 116.018C24.128 159.829 0 218.08 0 280.039C0 341.998 24.128 400.249 67.939 444.06C111.752 487.872 170.003 512 231.962 512L241.963 497L231.962 482C120.6 482 30 391.401 30 280.039Z" fill="#87F467"/>
<path d="M395.983 116.018C352.171 72.2059 293.921 48.0779 231.962 48.0779V78.0779C343.323 78.0779 433.923 168.677 433.923 280.039C433.923 391.401 343.323 482 231.962 482V512C293.921 512 352.172 487.872 395.983 444.06C439.794 400.248 463.922 341.998 463.922 280.039C463.922 218.08 439.795 159.829 395.983 116.018Z" fill="#87F467"/>
<g filter="url(#filter0_d_632_7584)">
<path d="M450.535 61.4649L445.926 15.4949C445.348 9.72889 441.5 4.81089 436.042 2.86389C430.584 0.917894 424.492 2.28689 420.395 6.38489L340.788 85.9929C337.605 89.1749 336.02 93.6179 336.47 98.0959L342.303 156.271C342.659 159.821 344.241 163 346.621 165.381L414.679 118.537L450.535 61.4649Z" fill="#87F467"/>
</g>
<g filter="url(#filter1_d_632_7584)">
<path d="M496.505 66.0738L450.535 61.4648L346.62 165.381C349.001 167.762 352.18 169.344 355.731 169.7L413.905 175.533C414.405 175.583 414.904 175.608 415.402 175.608C419.359 175.608 423.181 174.041 426.007 171.215L505.615 91.6068C509.713 87.5088 511.084 81.4178 509.136 75.9588C507.188 70.4998 502.271 66.6528 496.505 66.0738Z" fill="#87F467"/>
</g>
<path d="M507.606 4.39399C501.749 -1.46401 492.251 -1.46401 486.393 4.39399L221.355 269.432C215.497 275.29 215.497 284.787 221.355 290.645L374.878 149.716L507.606 4.39399Z" fill="#21BF73"/>
<path d="M221.355 290.645C224.284 293.574 228.123 295.039 231.962 295.039C235.801 295.039 239.64 293.574 242.568 290.646L507.606 25.607C513.464 19.749 513.464 10.252 507.606 4.39404L221.355 290.645Z" fill="#097B44"/>
</g>
<defs>
<filter id="filter0_d_632_7584" x="332.395" y="1.9917" width="122.14" height="171.389" filterUnits="userSpaceOnUse" color-interpolation-filters="sRGB">
<feFlood flood-opacity="0" result="BackgroundImageFix"/>
<feColorMatrix in="SourceAlpha" type="matrix" values="0 0 0 0 0 0 0 0 0 0 0 0 0 0 0 0 0 0 127 0" result="hardAlpha"/>
<feOffset dy="4"/>
<feGaussianBlur stdDeviation="2"/>
<feComposite in2="hardAlpha" operator="out"/>
<feColorMatrix type="matrix" values="0 0 0 0 0 0 0 0 0 0 0 0 0 0 0 0 0 0 0.25 0"/>
<feBlend mode="normal" in2="BackgroundImageFix" result="effect1_dropShadow_632_7584"/>
<feBlend mode="normal" in="SourceGraphic" in2="effect1_dropShadow_632_7584" result="shape"/>
</filter>
<filter id="filter1_d_632_7584" x="342.62" y="61.4648" width="171.389" height="122.143" filterUnits="userSpaceOnUse" color-interpolation-filters="sRGB">
<feFlood flood-opacity="0" result="BackgroundImageFix"/>
<feColorMatrix in="SourceAlpha" type="matrix" values="0 0 0 0 0 0 0 0 0 0 0 0 0 0 0 0 0 0 127 0" result="hardAlpha"/>
<feOffset dy="4"/>
<feGaussianBlur stdDeviation="2"/>
<feComposite in2="hardAlpha" operator="out"/>
<feColorMatrix type="matrix" values="0 0 0 0 0 0 0 0 0 0 0 0 0 0 0 0 0 0 0.25 0"/>
<feBlend mode="normal" in2="BackgroundImageFix" result="effect1_dropShadow_632_7584"/>
<feBlend mode="normal" in="SourceGraphic" in2="effect1_dropShadow_632_7584" result="shape"/>
</filter>
<clipPath id="clip0_632_7584">
<rect width="512" height="512" fill="white"/>
</clipPath>
</defs>
</svg>
