<svg width="208" height="208" viewBox="0 0 208 208" fill="none" xmlns="http://www.w3.org/2000/svg">
<g clip-path="url(#clip0_594_7720)">
<path d="M189.647 85.6427C181.672 85.6427 174.872 90.7574 172.346 97.878H115.62C114.825 93.9782 113.283 90.3488 111.155 87.1395L163.386 34.9078C165.88 36.0955 168.586 36.6929 171.294 36.6929C175.994 36.6929 180.694 34.9041 184.272 31.3261H184.272C191.427 24.1705 191.427 12.527 184.272 5.37141C177.116 -1.78461 165.473 -1.78461 158.317 5.37141C152.678 11.0107 151.486 19.4355 154.735 26.2562L102.503 78.4879C99.2935 76.3602 95.6641 74.8177 91.7647 74.0232V60.1199C98.8848 57.5945 104 50.7945 104 42.8192C104 32.6993 95.7669 24.4662 85.6471 24.4662C75.5272 24.4662 67.2941 32.6993 67.2941 42.8192C67.2941 50.7945 72.4089 57.5941 79.5294 60.1199V74.0232C75.6296 74.8177 72.0006 76.3602 68.7913 78.4879L34.9122 44.6092C38.1611 37.7884 36.9693 29.3636 31.3305 23.7243C24.1753 16.5683 12.5314 16.5683 5.37537 23.7243C-1.77983 30.88 -1.77983 42.5235 5.37537 49.6791C8.95297 53.2575 13.653 55.0459 18.3529 55.0459C21.0606 55.0459 23.7671 54.4484 26.2606 53.2608L60.1397 87.1395C58.012 90.3488 56.4696 93.9786 55.6747 97.878H35.6536C33.1283 90.7574 26.3283 85.6427 18.3529 85.6427C8.23313 85.6427 0 93.8754 0 103.996C0 114.116 8.23313 122.349 18.3529 122.349C26.3283 122.349 33.1279 117.234 35.6536 110.113H55.6743C56.4691 114.013 58.0116 117.642 60.1393 120.852L26.261 154.731C19.4403 151.482 11.015 152.673 5.37537 158.313C-1.77983 165.468 -1.77983 177.112 5.37537 184.267C8.95297 187.845 13.653 189.634 18.3529 189.634C23.0525 189.634 27.7525 187.845 31.3305 184.267C36.9693 178.628 38.1611 170.204 34.9118 163.382L68.7909 129.504C72.0002 131.631 75.6296 133.174 79.529 133.968V172.342C72.4085 174.868 67.2937 181.668 67.2937 189.643C67.2937 199.763 75.5268 207.996 85.6466 207.996C95.7665 207.996 104 199.763 104 189.643C104 181.668 98.8844 174.868 91.7643 172.342V133.968C95.6637 133.174 99.2931 131.631 102.502 129.504L124.146 151.147C120.897 157.968 122.089 166.393 127.728 172.032C131.306 175.61 136.005 177.399 140.705 177.399C145.405 177.399 150.105 175.61 153.683 172.032C160.838 164.876 160.838 153.233 153.683 146.077C148.043 140.438 139.619 139.246 132.798 142.496L111.154 120.852C113.282 117.643 114.825 114.013 115.619 110.114H172.346C174.872 117.234 181.672 122.349 189.647 122.349C199.767 122.349 208 114.116 208 103.996C208 93.8758 199.767 85.6427 189.647 85.6427ZM166.968 14.023C168.124 12.8676 169.66 12.2309 171.294 12.2309C172.928 12.2309 174.464 12.8672 175.62 14.023C178.005 16.4085 178.005 20.2891 175.62 22.6746C174.464 23.83 172.928 24.4666 171.294 24.4666C169.659 24.4666 168.124 23.8304 166.968 22.6746C164.583 20.2891 164.583 16.4085 166.968 14.023ZM85.6471 36.7015C89.0203 36.7015 91.7647 39.4459 91.7647 42.8192C91.7647 46.1924 89.0203 48.9368 85.6471 48.9368C82.2738 48.9368 79.5294 46.1924 79.5294 42.8192C79.5294 39.4459 82.2738 36.7015 85.6471 36.7015ZM14.0269 41.0275C11.6419 38.642 11.6419 34.7614 14.0269 32.3759C15.1824 31.2205 16.7187 30.5839 18.3529 30.5839C19.9872 30.5839 21.5231 31.2205 22.6785 32.3759C25.0636 34.7614 25.0636 38.642 22.6785 41.0275C21.5231 42.1829 19.9868 42.8196 18.3525 42.8196C16.7187 42.8192 15.1828 42.1829 14.0269 41.0275ZM18.3529 110.113C14.9797 110.113 12.2353 107.369 12.2353 103.996C12.2353 100.622 14.9797 97.878 18.3529 97.878C21.7262 97.878 24.4706 100.622 24.4706 103.996C24.4706 107.369 21.7262 110.113 18.3529 110.113ZM22.6789 175.616C21.5235 176.771 19.9872 177.408 18.3529 177.408C16.7187 177.408 15.1828 176.772 14.0274 175.616C11.6423 173.23 11.6423 169.35 14.0274 166.964C15.1828 165.809 16.7191 165.172 18.3533 165.172C19.9876 165.172 21.5235 165.809 22.6789 166.964C25.064 169.35 25.064 173.23 22.6789 175.616ZM85.6471 195.76C82.2738 195.76 79.5294 193.016 79.5294 189.643C79.5294 186.269 82.2738 183.525 85.6471 183.525C89.0203 183.525 91.7647 186.269 91.7647 189.643C91.7647 193.016 89.0203 195.76 85.6471 195.76ZM85.6471 122.349C75.5272 122.349 67.2941 114.116 67.2941 103.996C67.2941 93.8754 75.5272 85.6427 85.6471 85.6427C95.7669 85.6427 104 93.8754 104 103.996C104 114.116 95.7669 122.349 85.6471 122.349ZM145.031 154.729C147.417 157.114 147.417 160.995 145.031 163.38C143.876 164.536 142.34 165.173 140.705 165.173C139.071 165.173 137.535 164.536 136.379 163.38H136.38C133.995 160.995 133.995 157.114 136.379 154.729C137.535 153.573 139.071 152.937 140.705 152.937C142.34 152.937 143.876 153.573 145.031 154.729ZM189.647 110.113C186.274 110.113 183.529 107.369 183.529 103.996C183.529 100.622 186.274 97.878 189.647 97.878C193.02 97.878 195.765 100.622 195.765 103.996C195.765 107.369 193.02 110.113 189.647 110.113Z" fill="#8AF969"/>
</g>
<defs>
<clipPath id="clip0_594_7720">
<rect width="208" height="208" fill="white"/>
</clipPath>
</defs>
</svg>
