<svg width="202" height="202" viewBox="0 0 202 202" fill="none" xmlns="http://www.w3.org/2000/svg">
<g clip-path="url(#clip0_589_7455)">
<path d="M72.0888 134.377C70.4994 132.993 69.0071 131.501 67.6227 129.911L29.8898 167.644C26.0071 164.881 21.228 163.678 16.5001 164.274C11.7721 164.869 7.44032 167.219 4.36346 170.858C1.28661 174.496 -0.310709 179.158 -0.111852 183.92C0.0870053 188.681 2.06752 193.193 5.43709 196.563C8.80666 199.932 13.3193 201.913 18.0804 202.112C22.8416 202.311 27.5036 200.713 31.1425 197.637C34.7813 194.56 37.1312 190.228 37.7264 185.5C38.3216 180.772 37.1186 175.993 34.3559 172.11L72.0888 134.377ZM18.9376 195.687C16.4406 195.687 13.9997 194.947 11.9235 193.56C9.84735 192.172 8.22917 190.201 7.27361 187.894C6.31806 185.587 6.06804 183.048 6.55518 180.599C7.04232 178.15 8.24473 175.901 10.0104 174.135C11.776 172.37 14.0256 171.167 16.4746 170.68C18.9236 170.193 21.4621 170.443 23.769 171.398C26.0759 172.354 28.0476 173.972 29.4349 176.048C30.8221 178.124 31.5626 180.565 31.5626 183.062C31.5581 186.409 30.2266 189.618 27.8599 191.985C25.4932 194.351 22.2846 195.683 18.9376 195.687Z" fill="white"/>
<path d="M31.5625 183.062C31.5625 185.559 30.8221 188 29.4348 190.077C28.0476 192.153 26.0758 193.771 23.7689 194.726C21.462 195.682 18.9235 195.932 16.4745 195.445C14.0255 194.958 11.7759 193.755 10.0103 191.99C8.24464 190.224 7.04223 187.975 6.55509 185.526C6.06795 183.077 6.31797 180.538 7.27353 178.231C8.22908 175.924 9.84726 173.952 11.9234 172.565C13.9996 171.178 16.4405 170.438 18.9375 170.438C22.2845 170.442 25.4931 171.774 27.8598 174.14C30.2265 176.507 31.5581 179.716 31.5625 183.062Z" fill="#8AF969"/>
<path d="M183.062 2.8692e-05C179.586 -0.00602629 176.176 0.946384 173.206 2.75257C170.236 4.55875 167.822 7.14878 166.228 10.238C164.635 13.3271 163.924 16.7959 164.174 20.2628C164.423 23.7298 165.624 27.0608 167.644 29.8897L129.911 67.6227C131.501 69.007 132.993 70.4993 134.377 72.0888L172.11 34.3558C174.538 36.0812 177.34 37.2091 180.286 37.6476C183.233 38.0862 186.241 37.8232 189.066 36.8798C191.892 35.9365 194.455 34.3396 196.547 32.2189C198.639 30.0983 200.201 27.5137 201.106 24.6756C202.01 21.8375 202.233 18.8258 201.754 15.8857C201.275 12.9455 200.109 10.1599 198.351 7.75526C196.593 5.35067 194.292 3.39505 191.635 2.04746C188.978 0.699877 186.041 -0.00162007 183.062 2.8692e-05ZM183.062 31.5625C180.565 31.5625 178.124 30.8221 176.048 29.4348C173.972 28.0476 172.354 26.0758 171.398 23.7689C170.443 21.462 170.193 18.9235 170.68 16.4745C171.167 14.0255 172.37 11.7759 174.135 10.0103C175.901 8.24467 178.15 7.04225 180.599 6.55511C183.048 6.06798 185.587 6.31799 187.894 7.27355C190.201 8.22911 192.172 9.84728 193.56 11.9235C194.947 13.9996 195.687 16.4405 195.687 18.9375C195.683 22.2845 194.351 25.4932 191.985 27.8598C189.618 30.2265 186.409 31.5581 183.062 31.5625Z" fill="white"/>
<path d="M195.688 18.9375C195.688 21.4345 194.947 23.8754 193.56 25.9516C192.173 28.0277 190.201 29.6459 187.894 30.6015C185.587 31.557 183.049 31.8071 180.599 31.3199C178.15 30.8328 175.901 29.6304 174.135 27.8647C172.37 26.0991 171.167 23.8495 170.68 21.4005C170.193 18.9515 170.443 16.413 171.399 14.1061C172.354 11.7992 173.972 9.82745 176.048 8.4402C178.125 7.05294 180.566 6.3125 183.063 6.3125C186.409 6.31695 189.618 7.64851 191.985 10.0152C194.351 12.3819 195.683 15.5905 195.688 18.9375Z" fill="#8AF969"/>
<path d="M168.859 151.5C165.347 151.498 161.918 152.566 159.028 154.561L134.377 129.911C132.993 131.501 131.501 132.993 129.911 134.377L154.561 159.028C152.365 162.224 151.304 166.065 151.545 169.936C151.787 173.807 153.319 177.485 155.896 180.384C158.473 183.282 161.947 185.234 165.763 185.927C169.579 186.621 173.518 186.016 176.95 184.209C180.382 182.402 183.109 179.497 184.697 175.959C186.285 172.42 186.642 168.452 185.711 164.687C184.78 160.922 182.614 157.577 179.559 155.187C176.505 152.797 172.738 151.499 168.859 151.5ZM168.859 179.906C166.674 179.906 164.539 179.258 162.722 178.044C160.905 176.831 159.489 175.105 158.653 173.087C157.817 171.068 157.598 168.847 158.025 166.704C158.451 164.561 159.503 162.593 161.048 161.048C162.593 159.503 164.561 158.451 166.704 158.025C168.847 157.598 171.068 157.817 173.087 158.653C175.105 159.489 176.831 160.905 178.044 162.722C179.258 164.539 179.906 166.674 179.906 168.859C179.903 171.788 178.738 174.596 176.667 176.667C174.596 178.738 171.788 179.903 168.859 179.906Z" fill="white"/>
<path d="M168.859 179.906C174.96 179.906 179.906 174.96 179.906 168.859C179.906 162.758 174.96 157.812 168.859 157.812C162.758 157.812 157.812 162.758 157.812 168.859C157.812 174.96 162.758 179.906 168.859 179.906Z" fill="#8AF969"/>
<path d="M50.5948 46.1287C53.0518 42.5578 54.0856 38.1975 53.4934 33.9036C52.9012 29.6097 50.7257 25.6921 47.3939 22.9195C44.062 20.147 39.8143 18.7196 35.4843 18.9176C31.1542 19.1155 27.0545 20.9245 23.9895 23.9895C20.9245 27.0545 19.1155 31.1542 18.9176 35.4843C18.7196 39.8143 20.147 44.062 22.9195 47.3939C25.6921 50.7257 29.6097 52.9012 33.9036 53.4934C38.1975 54.0856 42.5578 53.0518 46.1287 50.5948L67.6227 72.0888C69.0071 70.4993 70.4993 69.0071 72.0888 67.6227L50.5948 46.1287ZM36.297 47.3438C34.1121 47.3438 31.9763 46.696 30.1597 45.4821C28.343 44.2683 26.9271 42.543 26.091 40.5244C25.2549 38.5059 25.0361 36.2847 25.4624 34.1418C25.8886 31.9989 26.9407 30.0306 28.4856 28.4856C30.0306 26.9407 31.9989 25.8886 34.1418 25.4624C36.2847 25.0361 38.5059 25.2549 40.5244 26.091C42.543 26.9271 44.2683 28.343 45.4821 30.1597C46.696 31.9763 47.3438 34.1121 47.3438 36.297C47.3406 39.2258 46.1757 42.0337 44.1047 44.1047C42.0337 46.1757 39.2258 47.3406 36.297 47.3438Z" fill="white"/>
<path d="M36.2969 47.3438C42.3979 47.3438 47.3438 42.3979 47.3438 36.2969C47.3438 30.1959 42.3979 25.25 36.2969 25.25C30.1959 25.25 25.25 30.1959 25.25 36.2969C25.25 42.3979 30.1959 47.3438 36.2969 47.3438Z" fill="#8AF969"/>
<path d="M101 7.89063C97.5085 7.88949 94.1389 9.1749 91.5352 11.5012C88.9315 13.8275 87.2763 17.0317 86.8857 20.5013C86.4952 23.971 87.3969 27.4629 89.4183 30.3098C91.4398 33.1567 94.4393 35.1589 97.8438 35.9339V56.9388C98.8853 56.8598 99.9427 56.8125 101 56.8125C102.057 56.8125 103.115 56.8598 104.156 56.9388V35.9339C107.561 35.1589 110.56 33.1567 112.582 30.3098C114.603 27.4629 115.505 23.971 115.114 20.5013C114.724 17.0317 113.069 13.8275 110.465 11.5012C107.861 9.1749 104.492 7.88949 101 7.89063ZM101 29.9844C99.4394 29.9844 97.9138 29.5216 96.6162 28.6546C95.3186 27.7875 94.3073 26.5552 93.71 25.1134C93.1128 23.6715 92.9566 22.085 93.261 20.5544C93.5655 19.0237 94.317 17.6178 95.4205 16.5142C96.524 15.4107 97.93 14.6592 99.4606 14.3547C100.991 14.0503 102.578 14.2065 104.02 14.8038C105.461 15.401 106.694 16.4123 107.561 17.71C108.428 19.0076 108.891 20.5331 108.891 22.0938C108.89 24.1862 108.058 26.1928 106.579 27.6724C105.099 29.152 103.093 29.9836 101 29.9844Z" fill="white"/>
<path d="M101 29.9844C105.358 29.9844 108.891 26.4516 108.891 22.0938C108.891 17.7359 105.358 14.2031 101 14.2031C96.6421 14.2031 93.1094 17.7359 93.1094 22.0938C93.1094 26.4516 96.6421 29.9844 101 29.9844Z" fill="#8AF969"/>
<path d="M176.75 85.2188C173.113 85.2231 169.589 86.4812 166.772 88.781C163.955 91.0808 162.017 94.2815 161.284 97.8438H145.061C145.14 98.8853 145.188 99.9427 145.188 101C145.188 102.057 145.14 103.115 145.061 104.156H161.284C161.881 107.082 163.296 109.779 165.365 111.933C167.433 114.087 170.07 115.61 172.97 116.325C175.869 117.04 178.912 116.918 181.745 115.972C184.577 115.027 187.084 113.298 188.973 110.985C190.862 108.672 192.056 105.87 192.416 102.906C192.776 99.941 192.288 96.9351 191.008 94.237C189.728 91.5389 187.709 89.2592 185.185 87.6629C182.661 86.0666 179.736 85.219 176.75 85.2188ZM176.75 110.469C174.877 110.469 173.047 109.913 171.489 108.873C169.932 107.833 168.719 106.354 168.002 104.624C167.285 102.893 167.098 100.989 167.463 99.1527C167.829 97.316 168.73 95.6288 170.055 94.3046C171.379 92.9804 173.066 92.0785 174.903 91.7132C176.74 91.3478 178.643 91.5353 180.374 92.252C182.104 92.9687 183.583 94.1823 184.623 95.7394C185.663 97.2966 186.219 99.1273 186.219 101C186.217 103.511 185.219 105.918 183.443 107.693C181.668 109.469 179.261 110.467 176.75 110.469Z" fill="white"/>
<path d="M176.75 110.469C181.979 110.469 186.219 106.229 186.219 101C186.219 95.7706 181.979 91.5312 176.75 91.5312C171.521 91.5312 167.281 95.7706 167.281 101C167.281 106.229 171.521 110.469 176.75 110.469Z" fill="#8AF969"/>
<path d="M56.9386 97.8438H40.6208C39.8526 94.8685 38.0257 92.2756 35.4824 90.5509C32.9392 88.8263 29.8543 88.0885 26.8059 88.4757C23.7576 88.8628 20.9551 90.3485 18.9238 92.6542C16.8924 94.9598 15.7717 97.9272 15.7717 101C15.7717 104.073 16.8924 107.04 18.9238 109.346C20.9551 111.652 23.7576 113.137 26.8059 113.524C29.8543 113.912 32.9392 113.174 35.4824 111.449C38.0257 109.724 39.8526 107.132 40.6208 104.156H56.9386C56.8597 103.115 56.8124 102.057 56.8124 101C56.8124 99.9427 56.8597 98.8853 56.9386 97.8438ZM28.4061 107.313C27.1577 107.313 25.9372 106.942 24.8991 106.249C23.861 105.555 23.0519 104.569 22.5742 103.416C22.0964 102.262 21.9714 100.993 22.2149 99.7685C22.4585 98.544 23.0597 97.4192 23.9425 96.5364C24.8254 95.6536 25.9501 95.0524 27.1746 94.8088C28.3991 94.5653 29.6684 94.6903 30.8218 95.168C31.9753 95.6458 32.9612 96.4549 33.6548 97.493C34.3484 98.5311 34.7186 99.7515 34.7186 101C34.7189 101.829 34.5557 102.65 34.2386 103.416C33.9214 104.182 33.4565 104.878 32.8703 105.464C32.284 106.05 31.5881 106.515 30.8221 106.832C30.0561 107.15 29.2352 107.313 28.4061 107.313Z" fill="white"/>
<path d="M28.4062 107.312C31.8925 107.312 34.7188 104.486 34.7188 101C34.7188 97.5137 31.8925 94.6875 28.4062 94.6875C24.92 94.6875 22.0938 97.5137 22.0938 101C22.0938 104.486 24.92 107.312 28.4062 107.312Z" fill="#8AF969"/>
<path d="M104.156 166.066V145.061C103.115 145.14 102.057 145.187 101 145.187C99.9427 145.187 98.8853 145.14 97.8438 145.061V166.066C94.4392 166.842 91.4397 168.845 89.4184 171.692C87.3971 174.54 86.4955 178.032 86.886 181.502C87.2764 184.972 88.9315 188.177 91.535 190.504C94.1386 192.831 97.5081 194.117 101 194.117C104.492 194.117 107.862 192.831 110.465 190.504C113.069 188.177 114.724 184.972 115.114 181.502C115.505 178.032 114.603 174.54 112.582 171.692C110.56 168.845 107.561 166.842 104.156 166.066ZM101 187.797C99.4394 187.797 97.9138 187.334 96.6162 186.467C95.3186 185.6 94.3073 184.367 93.7101 182.926C93.1128 181.484 92.9566 179.897 93.261 178.367C93.5655 176.836 94.317 175.43 95.4205 174.327C96.524 173.223 97.93 172.471 99.4607 172.167C100.991 171.863 102.578 172.019 104.02 172.616C105.461 173.213 106.694 174.225 107.561 175.522C108.428 176.82 108.891 178.345 108.891 179.906C108.89 181.999 108.058 184.005 106.579 185.485C105.099 186.964 103.093 187.796 101 187.797Z" fill="white"/>
<path d="M101 187.797C105.358 187.797 108.891 184.264 108.891 179.906C108.891 175.548 105.358 172.016 101 172.016C96.6421 172.016 93.1094 175.548 93.1094 179.906C93.1094 184.264 96.6421 187.797 101 187.797Z" fill="#8AF969"/>
<path d="M101 63.125C93.509 63.125 86.1863 65.3463 79.9578 69.5081C73.7293 73.6698 68.8747 79.5851 66.0081 86.5059C63.1414 93.4266 62.3914 101.042 63.8528 108.389C65.3142 115.736 68.9214 122.485 74.2183 127.782C79.5153 133.079 86.2639 136.686 93.611 138.147C100.958 139.609 108.573 138.859 115.494 135.992C122.415 133.125 128.33 128.271 132.492 122.042C136.654 115.814 138.875 108.491 138.875 101C138.862 90.959 134.867 81.3331 127.767 74.233C120.667 67.133 111.041 63.1383 101 63.125ZM101 132.562C94.7575 132.562 88.6553 130.711 83.4648 127.243C78.2744 123.775 74.229 118.846 71.8401 113.078C69.4512 107.311 68.8261 100.965 70.044 94.8425C71.2618 88.7199 74.2679 83.096 78.682 78.6819C83.0961 74.2678 88.72 71.2618 94.8425 70.044C100.965 68.8261 107.311 69.4512 113.078 71.84C118.846 74.2289 123.775 78.2744 127.243 83.4648C130.711 88.6552 132.563 94.7575 132.563 101C132.554 109.368 129.226 117.391 123.309 123.309C117.391 129.226 109.368 132.554 101 132.562Z" fill="#8AF969"/>
<path d="M132.563 101C132.563 107.242 130.711 113.345 127.243 118.535C123.775 123.726 118.846 127.771 113.078 130.16C107.311 132.549 100.965 133.174 94.8425 131.956C88.72 130.738 83.0961 127.732 78.682 123.318C74.2679 118.904 71.2618 113.28 70.044 107.158C68.8261 101.035 69.4512 94.6888 71.8401 88.9216C74.229 83.1543 78.2744 78.2249 83.4648 74.7567C88.6553 71.2886 94.7575 69.4375 101 69.4375C109.368 69.4459 117.391 72.7739 123.309 78.6912C129.226 84.6085 132.554 92.6317 132.563 101Z" fill="#E1EBF4"/>
<path opacity="0.45" d="M31.5625 183.062C31.5625 186.411 30.2324 189.622 27.8647 191.99C25.4971 194.357 22.2859 195.688 18.9375 195.688C15.5891 195.688 12.3779 194.357 10.0103 191.99C7.64263 189.622 6.3125 186.411 6.3125 183.062C6.31213 182.535 6.34375 182.008 6.40719 181.484C6.79269 184.536 8.27828 187.341 10.5852 189.375C12.8922 191.409 15.862 192.531 18.9375 192.531C22.013 192.531 24.9828 191.409 27.2898 189.375C29.5967 187.341 31.0823 184.536 31.4678 181.484C31.5313 182.008 31.5629 182.535 31.5625 183.062Z" fill="#8AF969"/>
<path opacity="0.45" d="M195.688 18.9375C195.688 22.2859 194.357 25.4971 191.99 27.8647C189.622 30.2324 186.411 31.5625 183.063 31.5625C179.714 31.5625 176.503 30.2324 174.135 27.8647C171.768 25.4971 170.438 22.2859 170.438 18.9375C170.437 18.41 170.469 17.883 170.532 17.3594C170.918 20.4106 172.403 23.2163 174.71 25.2502C177.017 27.284 179.987 28.4062 183.063 28.4062C186.138 28.4062 189.108 27.284 191.415 25.2502C193.722 23.2163 195.207 20.4106 195.593 17.3594C195.656 17.883 195.688 18.41 195.688 18.9375Z" fill="#AD9359"/>
<path opacity="0.5" d="M195.688 18.9375C195.688 19.465 195.656 19.992 195.593 20.5156C195.207 17.4644 193.722 14.6587 191.415 12.6248C189.108 10.591 186.138 9.46881 183.063 9.46881C179.987 9.46881 177.017 10.591 174.71 12.6248C172.403 14.6587 170.918 17.4644 170.532 20.5156C170.469 19.992 170.437 19.465 170.438 18.9375C170.438 15.5891 171.768 12.3779 174.135 10.0103C176.503 7.64263 179.714 6.3125 183.063 6.3125C186.411 6.3125 189.622 7.64263 191.99 10.0103C194.357 12.3779 195.688 15.5891 195.688 18.9375Z" fill="#8AF969"/>
<path opacity="0.5" d="M179.906 168.859C179.906 171.789 178.742 174.599 176.671 176.671C174.599 178.742 171.789 179.906 168.859 179.906C165.93 179.906 163.12 178.742 161.048 176.671C158.976 174.599 157.813 171.789 157.813 168.859C157.807 168.331 157.849 167.802 157.939 167.281C158.315 169.91 159.626 172.314 161.632 174.053C163.638 175.793 166.204 176.75 168.859 176.75C171.514 176.75 174.08 175.793 176.086 174.053C178.092 172.314 179.404 169.91 179.78 167.281C179.87 167.802 179.912 168.331 179.906 168.859Z" fill="#A54B3F"/>
<path opacity="0.3" d="M47.3438 36.2969C47.3494 36.8257 47.3072 37.3539 47.2175 37.875C46.8414 35.2467 45.5299 32.8423 43.5239 31.1029C41.518 29.3636 38.952 28.406 36.2969 28.406C33.6418 28.406 31.0758 29.3636 29.0698 31.1029C27.0638 32.8423 25.7524 35.2467 25.3763 37.875C25.2866 37.3539 25.2443 36.8257 25.25 36.2969C25.25 33.3671 26.4139 30.5572 28.4856 28.4856C30.5573 26.4139 33.3671 25.25 36.2969 25.25C39.2267 25.25 42.0365 26.4139 44.1082 28.4856C46.1799 30.5572 47.3438 33.3671 47.3438 36.2969Z" fill="#F9DBD7"/>
<path opacity="0.5" d="M47.3438 36.2969C47.3438 39.2267 46.1799 42.0365 44.1082 44.1082C42.0365 46.1799 39.2267 47.3437 36.2969 47.3438C33.3671 47.3437 30.5573 46.1799 28.4856 44.1082C26.4139 42.0365 25.25 39.2267 25.25 36.2969C25.2443 35.7681 25.2866 35.2399 25.3763 34.7188C25.7524 37.347 27.0638 39.7515 29.0698 41.4908C31.0758 43.2302 33.6418 44.1877 36.2969 44.1877C38.952 44.1877 41.518 43.2302 43.524 41.4908C45.5299 39.7515 46.8414 37.347 47.2175 34.7188C47.3072 35.2399 47.3494 35.7681 47.3438 36.2969Z" fill="#A54B3F"/>
<path opacity="0.5" d="M108.891 22.0936C108.891 24.1863 108.059 26.1933 106.579 27.6731C105.1 29.1529 103.093 29.9842 101 29.9842C98.9072 29.9842 96.9002 29.1529 95.4204 27.6731C93.9407 26.1933 93.1093 24.1863 93.1093 22.0936C93.1055 21.5687 93.1585 21.0448 93.2671 20.5312C93.6352 22.3101 94.6053 23.9076 96.0139 25.0546C97.4225 26.2015 99.1834 26.8278 101 26.8278C102.816 26.8278 104.577 26.2015 105.986 25.0546C107.395 23.9076 108.365 22.3101 108.733 20.5312C108.841 21.0448 108.894 21.5687 108.891 22.0936Z" fill="#5F5968"/>
<path opacity="0.25" d="M34.7187 101C34.7187 102.674 34.0537 104.28 32.8699 105.464C31.686 106.647 30.0804 107.312 28.4062 107.312C26.7321 107.312 25.1265 106.647 23.9426 105.464C22.7588 104.28 22.0937 102.674 22.0937 101C22.0889 100.467 22.1579 99.9359 22.2989 99.4219C22.6476 100.777 23.4369 101.977 24.5425 102.834C25.6481 103.691 27.0073 104.156 28.4062 104.156C29.8052 104.156 31.1644 103.691 32.27 102.834C33.3756 101.977 34.1649 100.777 34.5136 99.4219C34.6545 99.9359 34.7236 100.467 34.7187 101Z" fill="#0F423C"/>
<path opacity="0.5" d="M108.891 179.906C108.891 181.999 108.059 184.006 106.579 185.486C105.1 186.965 103.093 187.797 101 187.797C98.9072 187.797 96.9002 186.965 95.4204 185.486C93.9407 184.006 93.1093 181.999 93.1093 179.906C93.1055 179.381 93.1585 178.857 93.2671 178.344C93.6352 180.123 94.6053 181.72 96.0139 182.867C97.4225 184.014 99.1834 184.64 101 184.64C102.816 184.64 104.577 184.014 105.986 182.867C107.395 181.72 108.365 180.123 108.733 178.344C108.841 178.857 108.894 179.381 108.891 179.906Z" fill="#5F5968"/>
<path opacity="0.5" d="M132.562 101C132.562 101.505 132.547 102.026 132.515 102.531C132.1 94.4525 128.598 86.8421 122.734 81.2711C116.869 75.7001 109.089 72.5939 101 72.5939C92.911 72.5939 85.1309 75.7001 79.2662 81.2711C73.4015 86.8421 69.9 94.4525 69.4848 102.531C69.4533 102.026 69.4375 101.505 69.4375 101C69.4375 92.6291 72.7628 84.6011 78.6819 78.6819C84.6011 72.7628 92.6291 69.4375 101 69.4375C109.371 69.4375 117.399 72.7628 123.318 78.6819C129.237 84.6011 132.562 92.6291 132.562 101Z" fill="white"/>
<path opacity="0.5" d="M132.562 101C132.562 109.371 129.237 117.399 123.318 123.318C117.399 129.237 109.371 132.563 101 132.563C92.6291 132.563 84.6011 129.237 78.6819 123.318C72.7628 117.399 69.4375 109.371 69.4375 101C69.4375 100.495 69.4533 99.9742 69.4848 99.4692C69.9 107.548 73.4014 115.158 79.2661 120.729C85.1308 126.3 92.911 129.406 101 129.406C109.089 129.406 116.869 126.3 122.734 120.729C128.599 115.158 132.1 107.548 132.515 99.4692C132.547 99.9742 132.562 100.495 132.562 101Z" fill="#9FA5AA"/>
<path opacity="0.5" d="M31.5625 183.062C31.5629 183.59 31.5313 184.117 31.4678 184.641C31.0823 181.589 29.5967 178.784 27.2898 176.75C24.9828 174.716 22.013 173.594 18.9375 173.594C15.862 173.594 12.8922 174.716 10.5852 176.75C8.27828 178.784 6.79269 181.589 6.40719 184.641C6.34375 184.117 6.31213 183.59 6.3125 183.062C6.3125 179.714 7.64263 176.503 10.0103 174.135C12.3779 171.768 15.5891 170.438 18.9375 170.438C22.2859 170.438 25.4971 171.768 27.8647 174.135C30.2324 176.503 31.5625 179.714 31.5625 183.062Z" fill="#8AF969"/>
<path opacity="0.3" d="M179.906 168.859C179.912 169.388 179.87 169.916 179.78 170.438C179.404 167.809 178.092 165.405 176.086 163.665C174.08 161.926 171.514 160.969 168.859 160.969C166.204 160.969 163.638 161.926 161.632 163.665C159.626 165.405 158.315 167.809 157.939 170.438C157.849 169.916 157.807 169.388 157.813 168.859C157.813 165.93 158.976 163.12 161.048 161.048C163.12 158.976 165.93 157.812 168.859 157.812C171.789 157.812 174.599 158.976 176.671 161.048C178.742 163.12 179.906 165.93 179.906 168.859Z" fill="#F9DBD7"/>
<path opacity="0.25" d="M186.219 101C186.219 103.511 185.221 105.92 183.445 107.695C181.67 109.471 179.261 110.469 176.75 110.469C174.239 110.469 171.83 109.471 170.055 107.695C168.279 105.92 167.281 103.511 167.281 101C167.28 100.471 167.328 99.9425 167.423 99.4219C167.794 101.628 168.934 103.631 170.642 105.075C172.349 106.52 174.513 107.313 176.75 107.313C178.987 107.313 181.151 106.52 182.858 105.075C184.566 103.631 185.706 101.628 186.077 99.4219C186.172 99.9425 186.22 100.471 186.219 101Z" fill="#0F423C"/>
</g>
<defs>
<clipPath id="clip0_589_7455">
<rect width="202" height="202" fill="white"/>
</clipPath>
</defs>
</svg>
