<svg width="729" height="486" viewBox="0 0 729 486" fill="none" xmlns="http://www.w3.org/2000/svg">
<g clip-path="url(#clip0_644_7522)">
<path fill-rule="evenodd" clip-rule="evenodd" d="M379.31 331.09L394.67 466.28L495.9 402.06L379.31 331.09Z" fill="#1E7600"/>
<path fill-rule="evenodd" clip-rule="evenodd" d="M118.29 152.13L45.7499 89.3301L23.8999 171.01L118.29 152.13Z" fill="#1E7600"/>
<path fill-rule="evenodd" clip-rule="evenodd" d="M415.29 233.13L342.75 170.33L320.9 252.01L415.29 233.13Z" fill="#1E7600"/>
<path opacity="0.8" fill-rule="evenodd" clip-rule="evenodd" d="M188.77 105.34L103.76 280.36H275.21L188.77 105.34Z" fill="#62BA2A"/>
<path opacity="0.5" fill-rule="evenodd" clip-rule="evenodd" d="M0.959961 19.2301L54.29 84.4401L85.44 17.0601L0.959961 19.2301Z" fill="#62BA2A"/>
<path opacity="0.3" fill-rule="evenodd" clip-rule="evenodd" d="M291.52 290.65L208.43 328.06L270.07 379.51L291.52 290.65Z" fill="#94EC5C"/>
<path opacity="0.5" fill-rule="evenodd" clip-rule="evenodd" d="M492.74 187.27L506.27 108.9L438.95 128.35L492.74 187.27Z" fill="#94EC5C"/>
<path opacity="0.7" fill-rule="evenodd" clip-rule="evenodd" d="M637.19 472.36L638.28 380.38L564.96 414.93L637.19 472.36Z" fill="#94EC5C"/>
<path fill-rule="evenodd" clip-rule="evenodd" d="M435.74 306.34L489.56 354.94L478.11 392.12L435.74 306.34Z" fill="#94EC5C"/>
<path fill-rule="evenodd" clip-rule="evenodd" d="M435.74 306.34L394.08 392.12H478.11L435.74 306.34Z" fill="#62BA2A"/>
<path fill-rule="evenodd" clip-rule="evenodd" d="M424.03 212.53L467.6 163.27L501.41 173.31L424.03 212.53Z" fill="#94EC5C"/>
<path fill-rule="evenodd" clip-rule="evenodd" d="M424.03 212.53L502.2 249.5L501.41 173.31L424.03 212.53Z" fill="#62BA2A"/>
<path fill-rule="evenodd" clip-rule="evenodd" d="M295.94 210.19L349 227.05L352.8 256.67L295.94 210.19Z" fill="#94EC5C"/>
<path fill-rule="evenodd" clip-rule="evenodd" d="M295.94 210.19L294.08 283.37L352.8 256.67L295.94 210.19Z" fill="#62BA2A"/>
<path fill-rule="evenodd" clip-rule="evenodd" d="M654.19 425.82L684.22 435.37L686.37 452.14L654.19 425.82Z" fill="#94EC5C"/>
<path fill-rule="evenodd" clip-rule="evenodd" d="M654.19 425.82L653.13 467.25L686.37 452.14L654.19 425.82Z" fill="#62BA2A"/>
<path fill-rule="evenodd" clip-rule="evenodd" d="M62.0698 47.5898L140.21 79.2398L109.5 143.62L62.0698 47.5898Z" fill="#94EC5C"/>
<path fill-rule="evenodd" clip-rule="evenodd" d="M62.0698 47.5898L49.5898 123.54L109.5 143.62L62.0698 47.5898Z" fill="#62BA2A"/>
<path d="M292.22 144.54L305.27 200.19L248.45 183.05L292.22 144.54Z" fill="#3D9505"/>
<path d="M267.99 137.34L292.22 144.54L248.45 183.05L267.99 137.34Z" fill="#1E7600"/>
<path d="M344.04 386.47L395.19 411.99L345.7 444.75L344.04 386.47Z" fill="#3D9505"/>
<path d="M323.02 400.51L344.04 386.47L345.7 444.75L323.02 400.51Z" fill="#1E7600"/>
<path d="M715.22 429.54L728.27 485.19L671.45 468.05L715.22 429.54Z" fill="#3D9505"/>
<path d="M690.99 422.34L715.22 429.54L671.45 468.05L690.99 422.34Z" fill="#1E7600"/>
<path d="M56.8999 294.14L86.8299 245.45L115.09 297.64L56.8999 294.14Z" fill="#3D9505"/>
<path d="M69.0199 316.32L56.8999 294.14L115.09 297.64L69.0199 316.32Z" fill="#1E7600"/>
<path d="M504.29 450.35L479.26 408.43L529.95 407.67L504.29 450.35Z" fill="#3D9505"/>
<path d="M525.88 449.94L504.29 450.35L529.95 407.67L525.88 449.94Z" fill="#94EC5C"/>
<path d="M270.04 134.52L227.47 158.41L228.07 107.72L270.04 134.52Z" fill="#3D9505"/>
<path d="M270.21 112.93L270.04 134.52L228.07 107.72L270.21 112.93Z" fill="#94EC5C"/>
<path fill-rule="evenodd" clip-rule="evenodd" d="M125.84 165.09L57.0601 248.34L169.21 204.68L125.84 165.09Z" fill="#298100"/>
<path fill-rule="evenodd" clip-rule="evenodd" d="M126.97 123.33L169.21 204.68L140.52 186.53L126.97 123.33Z" fill="#94EC5C"/>
<path fill-rule="evenodd" clip-rule="evenodd" d="M126.97 123.33L57.0601 248.34L140.52 186.53L126.97 123.33Z" fill="#62BA2A"/>
<path fill-rule="evenodd" clip-rule="evenodd" d="M373.87 300.09L443.07 243.52L345.01 260.99L373.87 300.09Z" fill="#94EC5C"/>
<path fill-rule="evenodd" clip-rule="evenodd" d="M366.25 333.81L345.01 260.99L365.39 280.32L366.25 333.81Z" fill="#298100"/>
<path fill-rule="evenodd" clip-rule="evenodd" d="M366.25 333.81L443.07 243.52L365.39 280.32L366.25 333.81Z" fill="#62BA2A"/>
<path fill-rule="evenodd" clip-rule="evenodd" d="M496.69 386.56L630.21 417.87L587.87 360.01L496.69 386.56Z" fill="#298100"/>
<path fill-rule="evenodd" clip-rule="evenodd" d="M547.65 289.44L496.69 386.56L587.87 360.01L547.65 289.44Z" fill="#62BA2A"/>
<path fill-rule="evenodd" clip-rule="evenodd" d="M547.65 289.44L572.34 364.24L630.21 417.87L547.65 289.44Z" fill="#94EC5C"/>
<path fill-rule="evenodd" clip-rule="evenodd" d="M221.86 70.8198L85.4302 84.6598L144.29 125.6L221.86 70.8198Z" fill="#62BA2A"/>
<path fill-rule="evenodd" clip-rule="evenodd" d="M205.29 179.23L221.86 70.8198L144.29 125.6L205.29 179.23Z" fill="#94EC5C"/>
<path fill-rule="evenodd" clip-rule="evenodd" d="M205.29 179.23L157.6 116.54L85.4302 84.6597L205.29 179.23Z" fill="#298100"/>
<path fill-rule="evenodd" clip-rule="evenodd" d="M131.38 307.81L243.21 334.04L207.74 285.57L131.38 307.81Z" fill="#298100"/>
<path fill-rule="evenodd" clip-rule="evenodd" d="M174.06 226.47L131.38 307.81L207.74 285.57L174.06 226.47Z" fill="#62BA2A"/>
<path fill-rule="evenodd" clip-rule="evenodd" d="M174.06 226.47L194.74 289.12L243.21 334.04L174.06 226.47Z" fill="#94EC5C"/>
<path fill-rule="evenodd" clip-rule="evenodd" d="M542.4 49.1401L524.76 174.03L574.27 130.46L542.4 49.1401Z" fill="#298100"/>
<path fill-rule="evenodd" clip-rule="evenodd" d="M635.58 87.7801L542.4 49.1401L574.27 130.46L635.58 87.7801Z" fill="#62BA2A"/>
<path fill-rule="evenodd" clip-rule="evenodd" d="M635.58 87.7803L569.1 116.59L524.76 174.03L635.58 87.7803Z" fill="#94EC5C"/>
<path d="M220.71 185.34L243.71 244.84L292.71 201.84L220.71 185.34Z" fill="#3D9505"/>
<path d="M243.71 244.84L255.71 302.84L220.71 185.34L243.71 244.84Z" fill="#298100"/>
<path d="M292.71 201.84L255.71 302.84L243.71 244.84L292.71 201.84Z" fill="#94EC5C"/>
<path d="M49.85 93.3498L44.43 45.0498L0 67.2398L49.85 93.3498Z" fill="#3D9505"/>
<path d="M44.4302 45.05L46.8202 0L49.8502 93.35L44.4302 45.05Z" fill="#298100"/>
<path d="M0 67.24L46.82 0L44.43 45.05L0 67.24Z" fill="#94EC5C"/>
<path d="M425.77 289.76L484.01 315.78L488.49 250.74L425.77 289.76Z" fill="#3D9505"/>
<path d="M484.01 315.78L533.39 348.49L425.77 289.76L484.01 315.78Z" fill="#298100"/>
<path d="M488.49 250.74L533.39 348.49L484.01 315.78L488.49 250.74Z" fill="#94EC5C"/>
<path d="M353.42 109.34L377.96 163.6L472.28 139.06L353.42 109.34Z" fill="#94EC5C"/>
<path d="M388.3 237.25L472.28 139.06L377.96 163.6L388.3 237.25Z" fill="#3D9505"/>
<path d="M353.42 109.34L388.3 237.25L377.96 163.6L353.42 109.34Z" fill="#298100"/>
<path d="M308.01 400.58L406.17 329.97L306.28 290.37L308.01 400.58Z" fill="#94EC5C"/>
<path d="M282.17 253.34L308.01 400.58L306.28 290.37L282.17 253.34Z" fill="#298100"/>
<path d="M406.17 329.97L306.28 290.37L282.17 253.34L406.17 329.97Z" fill="#62BA2A"/>
</g>
<defs>
<clipPath id="clip0_644_7522">
<rect width="728.27" height="485.19" fill="white"/>
</clipPath>
</defs>
</svg>
