<?xml version="1.0" encoding="UTF-8"?>
<svg id="Layer_2" data-name="Layer 2" xmlns="http://www.w3.org/2000/svg" xmlns:xlink="http://www.w3.org/1999/xlink" viewBox="0 0 271.37 264.12">
  <defs>
    <style>
      .cls-1 {
        fill: url(#linear-gradient);
      }

      .cls-1, .cls-2, .cls-3, .cls-4, .cls-5, .cls-6, .cls-7, .cls-8, .cls-9, .cls-10, .cls-11, .cls-12, .cls-13, .cls-14, .cls-15, .cls-16, .cls-17, .cls-18, .cls-19, .cls-20, .cls-21, .cls-22, .cls-23, .cls-24, .cls-25 {
        stroke-width: 0px;
      }

      .cls-2 {
        fill: #1a9300;
      }

      .cls-3 {
        fill: #137f00;
      }

      .cls-26 {
        opacity: .5;
      }

      .cls-4 {
        fill: #178a00;
      }

      .cls-5 {
        fill: url(#linear-gradient-6);
      }

      .cls-6 {
        fill: #004c00;
      }

      .cls-7 {
        fill: #72e059;
      }

      .cls-9 {
        fill: #40842f;
      }

      .cls-10 {
        fill: url(#linear-gradient-5);
      }

      .cls-11 {
        fill: #297600;
      }

      .cls-12 {
        fill: #003c00;
      }

      .cls-13 {
        fill: #c3ff98;
      }

      .cls-14 {
        fill: #096800;
      }

      .cls-15 {
        fill: url(#linear-gradient-2);
      }

      .cls-16 {
        fill: url(#linear-gradient-3);
      }

      .cls-17 {
        fill: #6dd653;
      }

      .cls-18 {
        fill: #fff;
        opacity: .7;
      }

      .cls-19 {
        fill: url(#linear-gradient-8);
      }

      .cls-20 {
        fill: #003d00;
      }

      .cls-21 {
        fill: #347026;
      }

      .cls-27 {
        mask: url(#mask-1);
      }

      .cls-28 {
        mask: url(#mask);
      }

      .cls-22 {
        fill: #9bca7c;
      }

      .cls-23 {
        fill: url(#linear-gradient-7);
        mix-blend-mode: multiply;
      }

      .cls-24 {
        fill: url(#linear-gradient-4);
      }

      .cls-25 {
        opacity: .1;
      }
    </style>
    <linearGradient id="linear-gradient" x1="0" y1="147.88" x2="246.49" y2="147.88" gradientUnits="userSpaceOnUse">
      <stop offset="0" stop-color="#98ff98"/>
      <stop offset="1" stop-color="#c3ff98"/>
    </linearGradient>
    <linearGradient id="linear-gradient-2" x1="245.92" y1="143.37" x2="271.37" y2="143.37" gradientUnits="userSpaceOnUse">
      <stop offset="0" stop-color="#a0e768"/>
      <stop offset=".85" stop-color="#e7f9db"/>
      <stop offset="1" stop-color="#89dd47"/>
    </linearGradient>
    <linearGradient id="linear-gradient-3" x1="38.27" y1="72.57" x2="72.61" y2="72.57" gradientUnits="userSpaceOnUse">
      <stop offset="0" stop-color="#178a00"/>
      <stop offset="1" stop-color="#b2ff9c"/>
    </linearGradient>
    <linearGradient id="linear-gradient-4" x1="72.17" y1="70.87" x2="123.42" y2="70.87" xlink:href="#linear-gradient-3"/>
    <linearGradient id="linear-gradient-5" x1="132.45" y1="65.71" x2="190.36" y2="65.71" xlink:href="#linear-gradient-3"/>
    <linearGradient id="linear-gradient-6" x1="246.07" y1="11.39" x2="270.98" y2="11.39" gradientUnits="userSpaceOnUse">
      <stop offset="0" stop-color="#137f00"/>
      <stop offset=".84" stop-color="#3ee400"/>
      <stop offset="1" stop-color="#137f00"/>
    </linearGradient>
    <filter id="luminosity-noclip" x="0" y="-8639.18" width="246.3" height="32766" color-interpolation-filters="sRGB" filterUnits="userSpaceOnUse">
      <feFlood flood-color="#fff" result="bg"/>
      <feBlend in="SourceGraphic" in2="bg"/>
    </filter>
    <mask id="mask-1" x="0" y="-8639.18" width="246.3" height="32766" maskUnits="userSpaceOnUse"/>
    <linearGradient id="linear-gradient-7" x1="123.15" y1="198.64" x2="123.15" y2="31.64" gradientUnits="userSpaceOnUse">
      <stop offset="0" stop-color="gray"/>
      <stop offset="1" stop-color="#000"/>
    </linearGradient>
    <mask id="mask" x="0" y="31.64" width="246.3" height="167" maskUnits="userSpaceOnUse">
      <g class="cls-27">
        <path class="cls-23" d="m246.3,185.82l-.38-154.18-76.52,56.55-34.2,3.44-37.57,14.92-25.24-19.09-25.56,17.48-10.61-11.31L0,107.66l.17,69.66c77.2,25.56,159.36,27.82,246.13,8.5Z"/>
      </g>
    </mask>
    <linearGradient id="linear-gradient-8" x1="123.15" y1="198.64" x2="123.15" y2="31.64" gradientUnits="userSpaceOnUse">
      <stop offset="0" stop-color="#fff"/>
      <stop offset="1" stop-color="#fff"/>
    </linearGradient>
  </defs>
  <g id="Layer_3" data-name="Layer 3">
    <g>
      <g>
        <polygon class="cls-22" points=".33 242.83 0 107.66 24.87 98.64 25.2 233.81 .33 242.83"/>
        <polygon class="cls-21" points="0 107.66 36.22 93.62 61.09 84.6 24.87 98.64 0 107.66"/>
        <polygon class="cls-13" points="270.8 22.62 271.37 255.1 25.2 233.81 24.87 98.64 61.09 84.6 71.7 95.91 97.27 78.44 122.5 97.52 160.07 82.6 194.27 79.16 270.8 22.62"/>
        <polygon class="cls-7" points="36.22 93.62 61.09 84.6 71.7 95.91 46.83 104.93 36.22 93.62"/>
        <polygon class="cls-8" points="46.83 104.93 72.4 87.46 97.27 78.44 71.7 95.91 46.83 104.93"/>
        <polygon class="cls-17" points="72.4 87.46 97.27 78.44 122.5 97.52 97.63 106.55 72.4 87.46"/>
        <polygon class="cls-8" points="97.63 106.55 135.2 91.62 160.07 82.6 122.5 97.52 97.63 106.55"/>
        <polygon class="cls-9" points="135.2 91.62 160.07 82.6 194.27 79.16 169.4 88.19 135.2 91.62"/>
        <polygon class="cls-11" points="246.49 264.12 .33 242.83 25.2 233.81 271.37 255.1 246.49 264.12"/>
        <polygon class="cls-8" points="169.4 88.19 245.92 31.64 270.8 22.62 194.27 79.16 169.4 88.19"/>
        <g class="cls-26">
          <polygon class="cls-1" points="245.92 31.64 246.49 264.12 .33 242.83 0 107.66 36.22 93.62 46.83 104.93 72.4 87.46 97.63 106.55 135.2 91.62 169.4 88.19 245.92 31.64"/>
        </g>
        <polygon class="cls-15" points="245.92 31.64 270.8 22.62 271.37 255.1 246.49 264.12 245.92 31.64"/>
      </g>
      <polygon class="cls-18" points="245.02 263.96 246.89 264.12 246.32 31.64 245.02 32.6 245.02 263.96"/>
      <g>
        <polygon class="cls-3" points=".18 98.79 .15 86.81 25.03 77.79 25.06 89.77 .18 98.79"/>
        <polygon class="cls-14" points="270.94 0 270.98 13.75 194.46 70.3 160.25 73.73 122.69 88.66 97.45 69.57 71.89 87.04 61.27 75.74 25.06 89.77 25.03 77.79 63.14 63.02 72.61 73.1 97.04 56.39 123.42 76.34 157.32 62.87 190.36 59.54 270.94 0"/>
        <polygon class="cls-12" points="36.4 84.76 61.27 75.74 25.06 89.77 .18 98.79 36.4 84.76"/>
        <polygon class="cls-12" points=".15 86.81 38.27 72.04 63.14 63.02 25.03 77.79 .15 86.81"/>
        <polygon class="cls-2" points="47.01 96.07 36.4 84.76 61.27 75.74 71.89 87.04 47.01 96.07"/>
        <polygon class="cls-16" points="38.27 72.04 63.14 63.02 72.61 73.1 47.74 82.12 38.27 72.04"/>
        <polygon class="cls-12" points="72.58 78.59 97.45 69.57 71.89 87.04 47.01 96.07 72.58 78.59"/>
        <polygon class="cls-12" points="47.74 82.12 72.17 65.41 97.04 56.39 72.61 73.1 47.74 82.12"/>
        <polygon class="cls-4" points="97.81 97.68 72.58 78.59 97.45 69.57 122.69 88.66 97.81 97.68"/>
        <polygon class="cls-24" points="72.17 65.41 97.04 56.39 123.42 76.34 98.54 85.36 72.17 65.41"/>
        <polygon class="cls-12" points="135.38 82.76 160.25 73.73 122.69 88.66 97.81 97.68 135.38 82.76"/>
        <polygon class="cls-12" points="98.54 85.36 132.45 71.89 157.32 62.87 123.42 76.34 98.54 85.36"/>
        <polygon class="cls-10" points="132.45 71.89 157.32 62.87 190.36 59.54 165.49 68.56 132.45 71.89"/>
        <polygon class="cls-6" points="169.58 79.32 135.38 82.76 160.25 73.73 194.46 70.3 169.58 79.32"/>
        <polygon class="cls-20" points="246.11 22.77 270.98 13.75 194.46 70.3 169.58 79.32 246.11 22.77"/>
        <polygon class="cls-20" points="165.49 68.56 246.07 9.02 270.94 0 190.36 59.54 165.49 68.56"/>
        <polygon class="cls-14" points="246.07 9.02 246.11 22.77 169.58 79.32 135.38 82.76 97.81 97.68 72.58 78.59 47.01 96.07 36.4 84.76 .18 98.79 .15 86.81 38.27 72.04 47.74 82.12 72.17 65.41 98.54 85.36 132.45 71.89 165.49 68.56 246.07 9.02"/>
        <polygon class="cls-5" points="246.07 9.02 270.94 0 270.98 13.75 246.11 22.77 246.07 9.02"/>
      </g>
      <polygon class="cls-18" points="2.94 106.83 .8 107.66 1.13 242.83 2.94 242.99 2.94 106.83"/>
      <polygon class="cls-25" points="23.27 234.51 25.2 233.81 24.87 98.64 23.27 99.22 23.27 234.51"/>
      <g class="cls-28">
        <path class="cls-19" d="m246.3,185.82l-.38-154.18-76.52,56.55-34.2,3.44-37.57,14.92-25.24-19.09-25.56,17.48-10.61-11.31L0,107.66l.17,69.66c77.2,25.56,159.36,27.82,246.13,8.5Z"/>
      </g>
    </g>
  </g>
</svg>