<svg width="706" height="808" viewBox="0 0 706 808" fill="none" xmlns="http://www.w3.org/2000/svg">
<g filter="url(#filter0_d_166_13)">
<path d="M129.21 641.86L128.89 300.32C129.59 300.26 125.4 275.87 141.83 264.04C159.58 251.26 331.24 151.19 331.24 151.19C331.24 151.19 353.75 137.31 373.1 150.14C392.45 162.97 563.98 263.09 563.98 263.09C563.98 263.09 576.28 270.03 576.92 288.96C577.55 307.89 577.24 511.4 577.24 511.4C577.24 511.4 579.76 526.86 565.88 536.96C552 547.06 368.68 655.59 368.68 655.59C368.68 655.59 357.95 661.58 334.6 653.7C311.25 645.81 217.86 585.23 217.86 585.23V705.76L339.96 777.07C339.96 777.07 356.05 783.38 370.56 774.23C385.07 765.08 661.46 604.17 661.46 604.17C661.46 604.17 681.02 595.02 681.34 571.67C681.66 548.32 681.34 233.44 681.34 233.44C681.34 233.44 681.97 210.41 666.2 199.36C650.42 188.32 368.67 24.88 368.67 24.88C368.67 24.88 355 16.15 339.85 23.51C324.72 30.87 39.92 198.72 39.92 198.72C39.92 198.72 24.46 207.55 24.14 223.96C23.82 240.37 24.14 575.65 24.14 575.65C24.14 575.65 23.93 589.53 35.5 597.95L129.05 654.16L129.21 641.86Z" fill="#37DD00"/>
</g>
<path d="M340.07 250.05L232.06 313.89C232.06 313.89 217.23 320.52 217.55 339.76C217.87 359 217.55 462.28 217.55 462.28C217.55 462.28 217.66 475.74 228.17 483.31C238.69 490.88 340.07 549.15 340.07 549.15C340.07 549.15 348.8 555.88 361.74 550.04C374.68 544.2 476.59 484.57 476.59 484.57C476.59 484.57 488.79 478.68 488.79 461.01V337.54C488.79 337.54 489.84 325.97 479.11 318.19C468.38 310.41 364.68 249.2 364.68 249.2C364.68 249.2 351.32 241.94 340.07 250.04V250.05Z" fill="#37DD00"/>
<path opacity="0.3" d="M478.68 318.2C478.37 317.96 477.97 317.69 477.49 317.37C461.92 306.85 364.25 249.2 364.25 249.2C364.25 249.2 350.89 241.94 339.64 250.04L231.63 313.88C231.63 313.88 228.8 315.15 225.63 318.18C224.94 318.84 224.24 319.58 223.55 320.41C223.55 320.41 216.76 328.45 228.43 335.44C240.1 342.43 353.17 413.89 353.17 413.89C353.17 413.89 477.84 335.44 482.26 331.86C482.26 331.86 489.28 326.5 478.67 318.19L478.68 318.2Z" fill="white"/>
<path opacity="0.3" d="M30.61 212.09L134.06 267.78L332.75 150.24C332.75 150.24 356.74 134.54 380.67 153.91C408.32 170.58 565.45 264.1 565.45 264.1L672.67 205.53C672.67 205.53 669.66 201.35 665.97 199C662.28 196.65 370.73 25.0999 370.73 25.0999C370.73 25.0999 356.1 15.1899 340.62 22.9899C325.65 31.3399 37.6 200.3 37.6 200.3C37.6 200.3 26.55 208.9 30.61 212.09Z" fill="white"/>
<defs>
<filter id="filter0_d_166_13" x="-0.00219727" y="0.559814" width="705.484" height="806.631" filterUnits="userSpaceOnUse" color-interpolation-filters="sRGB">
<feFlood flood-opacity="0" result="BackgroundImageFix"/>
<feColorMatrix in="SourceAlpha" type="matrix" values="0 0 0 0 0 0 0 0 0 0 0 0 0 0 0 0 0 0 127 0" result="hardAlpha"/>
<feOffset dy="4"/>
<feGaussianBlur stdDeviation="12"/>
<feComposite in2="hardAlpha" operator="out"/>
<feColorMatrix type="matrix" values="0 0 0 0 0.215686 0 0 0 0 0.866667 0 0 0 0 0 0 0 0 0.7 0"/>
<feBlend mode="normal" in2="BackgroundImageFix" result="effect1_dropShadow_166_13"/>
<feBlend mode="normal" in="SourceGraphic" in2="effect1_dropShadow_166_13" result="shape"/>
</filter>
</defs>
</svg>
