<svg width="658" height="760" viewBox="0 0 658 760" fill="none" xmlns="http://www.w3.org/2000/svg">
<path d="M105.665 621.863L105.345 280.323C106.045 280.263 101.855 255.873 118.285 244.043C136.035 231.263 307.695 131.193 307.695 131.193C307.695 131.193 330.205 117.313 349.555 130.143C368.905 142.973 540.435 243.093 540.435 243.093C540.435 243.093 552.735 250.033 553.375 268.963C554.005 287.893 553.695 491.403 553.695 491.403C553.695 491.403 556.215 506.863 542.335 516.963C528.455 527.063 345.135 635.593 345.135 635.593C345.135 635.593 334.405 641.583 311.055 633.703C287.705 625.813 194.315 565.233 194.315 565.233V685.763L316.415 757.073C316.415 757.073 332.505 763.383 347.015 754.233C361.525 745.083 637.915 584.173 637.915 584.173C637.915 584.173 657.475 575.023 657.795 551.673C658.115 528.323 657.795 213.443 657.795 213.443C657.795 213.443 658.425 190.413 642.655 179.363C626.875 168.323 345.125 4.88314 345.125 4.88314C345.125 4.88314 331.455 -3.84686 316.305 3.51314C301.175 10.8731 16.3753 178.723 16.3753 178.723C16.3753 178.723 0.915347 187.553 0.595347 203.963C0.275347 220.373 0.595347 555.653 0.595347 555.653C0.595347 555.653 0.385347 569.533 11.9553 577.953L105.505 634.163L105.665 621.863Z" fill="#37DD00"/>
<g filter="url(#filter0_d_707_7724)">
<path d="M316.525 230.053L208.515 293.893C208.515 293.893 193.685 300.523 194.005 319.763C194.325 339.003 194.005 442.283 194.005 442.283C194.005 442.283 194.115 455.743 204.625 463.313C215.145 470.883 316.525 529.153 316.525 529.153C316.525 529.153 325.255 535.883 338.195 530.043C351.135 524.203 453.045 464.573 453.045 464.573C453.045 464.573 465.245 458.683 465.245 441.013V317.543C465.245 317.543 466.295 305.973 455.565 298.193C444.835 290.413 341.135 229.203 341.135 229.203C341.135 229.203 327.775 221.943 316.525 230.043V230.053Z" fill="#37DD00"/>
</g>
<path opacity="0.3" d="M455.135 298.203C454.825 297.963 454.425 297.693 453.945 297.373C438.375 286.853 340.705 229.203 340.705 229.203C340.705 229.203 327.345 221.943 316.095 230.043L208.085 293.883C208.085 293.883 205.255 295.153 202.085 298.183C201.395 298.843 200.695 299.583 200.005 300.413C200.005 300.413 193.215 308.453 204.885 315.443C216.555 322.433 329.625 393.893 329.625 393.893C329.625 393.893 454.295 315.443 458.715 311.863C458.715 311.863 465.735 306.503 455.125 298.193L455.135 298.203Z" fill="white"/>
<path opacity="0.3" d="M7.06619 192.093L110.516 247.783L309.206 130.243C309.206 130.243 333.196 114.543 357.126 133.913C384.776 150.583 541.906 244.103 541.906 244.103L649.126 185.533C649.126 185.533 646.116 181.353 642.426 179.003C638.736 176.653 347.186 5.10309 347.186 5.10309C347.186 5.10309 332.556 -4.80691 317.076 2.99309C302.106 11.3431 14.0562 180.303 14.0562 180.303C14.0562 180.303 3.00619 188.903 7.06619 192.093Z" fill="white"/>
<defs>
<filter id="filter0_d_707_7724" x="160" y="196.212" width="339.273" height="374.215" filterUnits="userSpaceOnUse" color-interpolation-filters="sRGB">
<feFlood flood-opacity="0" result="BackgroundImageFix"/>
<feColorMatrix in="SourceAlpha" type="matrix" values="0 0 0 0 0 0 0 0 0 0 0 0 0 0 0 0 0 0 127 0" result="hardAlpha"/>
<feOffset dy="4"/>
<feGaussianBlur stdDeviation="17"/>
<feComposite in2="hardAlpha" operator="out"/>
<feColorMatrix type="matrix" values="0 0 0 0 0.215686 0 0 0 0 0.866667 0 0 0 0 0 0 0 0 0.7 0"/>
<feBlend mode="normal" in2="BackgroundImageFix" result="effect1_dropShadow_707_7724"/>
<feBlend mode="normal" in="SourceGraphic" in2="effect1_dropShadow_707_7724" result="shape"/>
</filter>
</defs>
</svg>
