<svg width="228" height="228" viewBox="0 0 228 228" fill="none" xmlns="http://www.w3.org/2000/svg">
<g clip-path="url(#clip0_590_7507)">
<path d="M146.224 118.054C148.723 117.332 154.572 115.638 157.292 107.64L162.894 91.1655L165.147 91.9309C166.179 92.2821 167.31 91.7252 167.661 90.6936L170.666 81.8546C171.018 80.823 170.461 79.6928 169.428 79.342L96.8012 54.647C95.77 54.2962 94.6384 54.8536 94.2876 55.8847L91.282 64.7232C90.9317 65.7544 91.4891 66.8851 92.5197 67.2363L94.7732 68.0026L89.0704 84.7776C86.3775 92.6967 88.159 95.3709 91.5379 99.418L106.235 117.017L104.596 121.835C98.9729 123.055 84.2776 126.257 82.2993 126.829C79.8018 127.551 73.9506 129.243 71.2309 137.242L66.4081 151.427L64.1542 150.661C63.1235 150.311 61.9914 150.867 61.6402 151.899L58.636 160.737C58.2847 161.769 58.8421 162.899 59.8737 163.251L132.501 187.946C133.531 188.297 134.663 187.74 135.014 186.708L138.018 177.871C138.37 176.839 137.813 175.708 136.78 175.357L134.528 174.59L139.452 160.105C142.145 152.187 140.364 149.511 136.985 145.466L122.289 127.866L123.926 123.049C129.55 121.829 144.245 118.627 146.224 118.054ZM115.531 130.9L131.513 150.036C132.739 151.504 133.388 152.305 133.564 153.039C133.776 153.921 133.493 155.481 132.701 157.808L127.777 172.295L73.1594 153.723L77.9813 139.539C79.5041 135.061 82.2646 134.262 84.2795 133.679C85.8553 133.223 99.3739 130.26 108.076 128.377C109.299 128.113 110.295 127.225 110.698 126.04L113.63 117.416C114.03 116.239 113.788 114.938 112.992 113.984L97.0585 94.9051L97.0101 94.8464C95.7836 93.3781 95.1342 92.5765 94.9586 91.8421C94.7473 90.9608 95.0291 89.4014 95.8212 87.0733L101.524 70.2983L156.143 88.8694L150.54 105.345C149.018 109.823 146.259 110.621 144.243 111.204C142.669 111.66 129.149 114.625 120.448 116.506C119.225 116.771 118.228 117.658 117.825 118.844L114.893 127.467C114.493 128.645 114.735 129.944 115.531 130.9Z" fill="white"/>
<path d="M158.68 198.897C157.086 199.8 155.442 200.665 153.797 201.467C153.531 201.597 153.274 201.739 153.026 201.893C152.762 201.984 152.499 202.091 152.239 202.212C145.099 205.541 137.653 207.885 129.983 209.245C129.885 209.259 129.787 209.264 129.688 209.282C127.88 209.602 126.04 209.868 124.22 210.077C124.2 210.08 124.18 210.085 124.16 210.087C120.818 210.456 117.438 210.644 114.023 210.644C74.6447 210.644 41.0623 185.377 28.6195 150.207C28.4322 149.67 28.2434 149.135 28.0654 148.597C25.0828 139.628 23.4628 130.043 23.4628 120.085C23.4628 110.106 25.0899 100.499 28.0852 91.514C28.1504 91.3177 28.2134 91.1229 28.2796 90.9261C28.4585 90.403 28.6435 89.8818 28.8322 89.362C28.92 89.1178 29.0088 88.8751 29.0989 88.6328C39.4386 60.803 63.0893 39.3934 92.2737 32.1721C92.2921 32.1678 92.3108 32.1664 92.3292 32.1622C92.7607 32.0552 93.1955 31.9509 93.6308 31.8504C93.6796 31.8396 93.7266 31.8218 93.7735 31.81C100.14 30.3507 106.761 29.566 113.554 29.5313L113.633 38.8422C113.656 41.7328 115.482 42.5676 117.686 40.6993L137.354 24.028C139.557 22.1597 139.534 19.1305 137.296 17.2993L117.352 0.960486C115.116 -0.870325 113.306 -0.00492766 113.331 2.88521L113.409 12.1778C84.8129 12.336 57.9528 23.5406 37.7144 43.7782C35.7206 45.7719 33.818 47.8314 32.0022 49.9486C31.9914 49.9608 31.9801 49.9707 31.9689 49.9839C31.9017 50.0618 31.8383 50.143 31.7721 50.221C15.8424 68.9137 6.86161 92.2113 6.1568 116.927C6.13943 117.119 6.11877 117.31 6.11407 117.506C6.09482 118.331 6.08496 119.169 6.08496 119.997C6.08496 121.356 6.11266 122.734 6.16385 124.092C6.16948 124.251 6.19014 124.407 6.20564 124.563C7.11846 147.082 14.9051 168.373 28.5665 186.008C28.6129 186.068 28.65 186.133 28.697 186.194C30.0315 187.916 31.4425 189.622 32.8855 191.264C32.9784 191.369 33.0803 191.461 33.1761 191.562C34.6369 193.209 36.1451 194.822 37.7149 196.391C53.7376 212.415 73.9122 222.775 95.8114 226.475C95.8781 226.487 95.9452 226.5 96.0119 226.513C96.0617 226.52 96.111 226.523 96.1598 226.531C102.008 227.499 107.977 228 114.023 228C129.932 228 145.256 224.615 159.572 217.942C159.88 217.799 160.173 217.634 160.455 217.46C160.776 217.349 161.091 217.218 161.402 217.067C163.366 216.108 165.328 215.078 167.23 214.001C171.401 211.639 172.869 206.344 170.507 202.174C168.145 198.002 162.85 196.537 158.68 198.897Z" fill="#8AF969"/>
<path d="M189.221 69.576C190.896 72.0689 193.638 73.4142 196.43 73.4142C198.094 73.4142 199.778 72.9367 201.263 71.9384C205.241 69.2652 206.298 63.8742 203.625 59.8961C202.404 58.0812 201.115 56.2814 199.786 54.5473C196.874 50.7401 191.429 50.0161 187.622 52.9273C183.816 55.8395 183.091 61.2864 186.004 65.0922C187.117 66.5483 188.199 68.057 189.221 69.576Z" fill="#8AF969"/>
<path d="M200.241 92.3666C200.799 94.1091 201.311 95.8958 201.766 97.6778C202.766 101.603 206.296 104.214 210.169 104.214C210.878 104.214 211.6 104.127 212.318 103.944C216.963 102.76 219.768 98.0351 218.584 93.3916C218.044 91.2725 217.434 89.1468 216.769 87.0732C215.309 82.5091 210.424 79.9928 205.86 81.455C201.295 82.9172 198.779 87.8025 200.241 92.3666Z" fill="#8AF969"/>
<path d="M194.714 178.498C191.087 175.364 185.608 175.762 182.474 179.387C181.273 180.775 180.017 182.142 178.737 183.452C175.387 186.88 175.451 192.374 178.88 195.724C180.568 197.374 182.757 198.195 184.943 198.195C187.198 198.195 189.452 197.321 191.151 195.582C192.675 194.021 194.174 192.392 195.602 190.739C198.735 187.113 198.338 181.633 194.714 178.498Z" fill="#8AF969"/>
<path d="M213.496 114.448C208.698 114.304 204.705 118.073 204.563 122.863C204.509 124.697 204.396 126.553 204.228 128.378C203.79 133.15 207.304 137.375 212.077 137.813C212.346 137.838 212.614 137.849 212.88 137.849C217.313 137.849 221.099 134.467 221.511 129.964C221.711 127.786 221.846 125.572 221.911 123.382C222.052 118.593 218.287 114.592 213.496 114.448Z" fill="#8AF969"/>
<path d="M209.637 148.1C205.172 146.352 200.139 148.554 198.391 153.017C197.723 154.724 196.993 156.436 196.221 158.102C194.206 162.45 196.098 167.607 200.447 169.622C201.629 170.17 202.868 170.428 204.09 170.428C207.366 170.428 210.501 168.564 211.969 165.397C212.887 163.413 213.758 161.378 214.553 159.345C216.3 154.882 214.099 149.848 209.637 148.1Z" fill="#8AF969"/>
<path d="M180.084 45.5187C182.937 41.6664 182.127 36.2322 178.274 33.3801C176.521 32.0808 174.702 30.8191 172.87 29.6274C168.852 27.0152 163.477 28.1534 160.865 32.1714C158.253 36.189 159.391 41.5636 163.408 44.1767C164.947 45.1768 166.473 46.2375 167.947 47.3288C169.5 48.4778 171.31 49.0328 173.105 49.0328C175.761 49.0328 178.383 47.8171 180.084 45.5187Z" fill="#8AF969"/>
</g>
<defs>
<clipPath id="clip0_590_7507">
<rect width="228" height="228" fill="white"/>
</clipPath>
</defs>
</svg>
