<svg width="1227" height="1227" viewBox="0 0 1227 1227" fill="none" xmlns="http://www.w3.org/2000/svg">
<g clip-path="url(#clip0_604_7476)">
<path d="M654.53 592.55L930.65 987.5H817.33L592.01 665.22V665.2L558.93 617.89L295.72 241.39H409.04L621.45 545.24L654.53 592.55Z" fill="white"/>
<path d="M1094.42 0H132.58C59.36 0 0 59.36 0 132.58V1094.42C0 1167.64 59.36 1227 132.58 1227H1094.42C1167.64 1227 1227 1167.64 1227 1094.42V132.58C1227 59.36 1167.64 0 1094.42 0ZM782.62 1040.52L554.61 708.68L269.14 1040.52H195.36L521.85 661.02L195.36 185.85H444.38L660.29 500.08L930.61 185.85H1004.39L693.06 547.75H693.04L1031.64 1040.52H782.62Z" fill="white"/>
</g>
<defs>
<clipPath id="clip0_604_7476">
<rect width="1227" height="1227" fill="white"/>
</clipPath>
</defs>
</svg>
