<svg width="686" height="686" viewBox="0 0 686 686" fill="none" xmlns="http://www.w3.org/2000/svg">
<path d="M343 251.891C336.069 251.949 329.167 252.804 322.431 254.438C327.136 258.848 330.907 264.158 333.518 270.054C336.13 275.949 337.53 282.31 337.634 288.757C337.739 295.204 336.546 301.607 334.127 307.584C331.708 313.561 328.111 318.991 323.552 323.551C318.992 328.11 313.563 331.706 307.585 334.126C301.608 336.545 295.206 337.738 288.759 337.634C282.311 337.529 275.951 336.13 270.055 333.518C264.159 330.906 258.849 327.136 254.44 322.431C250.194 340.83 251.778 360.094 258.97 377.553C266.163 395.012 278.608 409.801 294.582 419.871C310.555 429.94 329.265 434.792 348.119 433.752C366.973 432.713 385.036 425.834 399.806 414.07C414.576 402.305 425.32 386.238 430.55 368.094C435.779 349.95 435.236 330.629 428.994 312.808C422.751 294.987 411.12 279.55 395.712 268.635C380.304 257.72 361.882 251.868 343 251.891Z" fill="#87F467"/>
<path d="M627.214 301.318L596.9 270.994C529.509 203.754 438.198 165.991 343 165.991C247.802 165.991 156.49 203.754 89.0996 270.994L58.7856 301.318C53.3101 306.791 48.9665 313.289 46.003 320.441C43.0395 327.592 41.5142 335.258 41.5142 343C41.5142 350.741 43.0395 358.407 46.003 365.559C48.9665 372.711 53.3101 379.209 58.7856 384.682L89.0996 415.006C156.491 482.244 247.802 520.006 343 520.006C438.198 520.006 529.509 482.244 596.9 415.006L627.214 384.682C632.69 379.209 637.033 372.711 639.997 365.559C642.96 358.407 644.486 350.741 644.486 343C644.486 335.258 642.96 327.592 639.997 320.441C637.033 313.289 632.69 306.791 627.214 301.318ZM343 466.265C319.526 466.288 296.534 459.601 276.734 446.992C256.934 434.383 241.15 416.377 231.242 395.097C221.334 373.816 217.714 350.147 220.81 326.878C223.905 303.609 233.587 281.709 248.714 263.759C252.549 257.691 257.687 252.552 263.756 248.716C278.924 235.966 296.944 227.062 316.287 222.76C335.63 218.457 355.725 218.883 374.869 224.001C394.012 229.119 411.638 238.778 426.253 252.16C440.868 265.541 452.041 282.25 458.823 300.868C465.605 319.487 467.797 339.467 465.212 359.114C462.628 378.76 455.344 397.493 443.977 413.725C432.611 429.956 417.497 443.207 399.919 452.354C382.341 461.5 362.816 466.272 343 466.265Z" fill="#87F467"/>
<path d="M343 123.266C338.736 123.264 334.647 121.57 331.632 118.555C328.617 115.54 326.923 111.451 326.922 107.188V64.3125C326.922 60.0483 328.616 55.9588 331.631 52.9435C334.646 49.9283 338.736 48.2344 343 48.2344C347.264 48.2344 351.354 49.9283 354.369 52.9435C357.384 55.9588 359.078 60.0483 359.078 64.3125V107.188C359.077 111.451 357.383 115.54 354.368 118.555C351.353 121.57 347.264 123.264 343 123.266Z" fill="#87F467"/>
<path d="M471.603 144.703C468.865 144.698 466.173 143.994 463.783 142.658C461.393 141.321 459.383 139.397 457.945 137.066C456.507 134.736 455.687 132.077 455.564 129.341C455.441 126.606 456.019 123.884 457.242 121.434L478.679 78.5588C480.591 74.7515 483.935 71.8583 487.978 70.5144C492.02 69.1705 496.431 69.4858 500.241 71.391C504.052 73.2962 506.95 76.6356 508.301 80.676C509.651 84.7165 509.343 89.1277 507.444 92.9412L486.007 135.816C484.668 138.489 482.611 140.736 480.067 142.305C477.523 143.875 474.593 144.705 471.603 144.703Z" fill="#87F467"/>
<path d="M214.396 144.703C211.407 144.705 208.477 143.875 205.933 142.305C203.389 140.736 201.332 138.489 199.993 135.816L178.556 92.9412C176.657 89.1277 176.348 84.7165 177.699 80.676C179.049 76.6356 181.948 73.2962 185.758 71.391C189.569 69.4858 193.98 69.1705 198.022 70.5144C202.065 71.8583 205.409 74.7515 207.32 78.5588L228.758 121.434C229.981 123.884 230.559 126.606 230.436 129.341C230.313 132.077 229.493 134.736 228.055 137.066C226.617 139.397 224.607 141.321 222.217 142.658C219.827 143.994 217.135 144.698 214.396 144.703Z" fill="#87F467"/>
<path d="M343 637.766C338.736 637.764 334.647 636.07 331.632 633.055C328.617 630.04 326.923 625.951 326.922 621.688V578.812C326.922 574.548 328.616 570.459 331.631 567.444C334.646 564.428 338.736 562.734 343 562.734C347.264 562.734 351.354 564.428 354.369 567.444C357.384 570.459 359.078 574.548 359.078 578.812V621.688C359.077 625.951 357.383 630.04 354.368 633.055C351.353 636.07 347.264 637.764 343 637.766Z" fill="#87F467"/>
<path d="M493.084 616.328C490.095 616.33 487.164 615.5 484.62 613.93C482.076 612.361 480.02 610.114 478.681 607.441L457.243 564.566C455.344 560.753 455.036 556.341 456.386 552.301C457.737 548.261 460.636 544.921 464.446 543.016C468.256 541.111 472.667 540.796 476.71 542.139C480.752 543.483 484.096 546.377 486.008 550.184L507.445 593.059C508.669 595.509 509.246 598.231 509.123 600.966C509 603.702 508.181 606.361 506.743 608.691C505.304 611.022 503.295 612.946 500.905 614.283C498.514 615.619 495.822 616.323 493.084 616.328Z" fill="#87F467"/>
<path d="M192.916 616.328C190.177 616.323 187.486 615.619 185.095 614.283C182.705 612.946 180.696 611.022 179.257 608.691C177.819 606.361 177 603.702 176.877 600.966C176.754 598.231 177.331 595.509 178.554 593.059L199.992 550.184C201.903 546.377 205.248 543.483 209.29 542.139C213.333 540.796 217.744 541.111 221.554 543.016C225.364 544.921 228.263 548.261 229.613 552.301C230.964 556.341 230.656 560.753 228.757 564.566L207.319 607.441C205.98 610.114 203.924 612.361 201.38 613.93C198.836 615.5 195.905 616.33 192.916 616.328Z" fill="#87F467"/>
</svg>
